<svg width="12" height="16" viewBox="0 0 12 16" fill="none" xmlns="http://www.w3.org/2000/svg">
<path d="M5.74157 0C2.57565 0 0 2.59944 0 5.79457C0 9.75982 5.13814 15.5811 5.3569 15.8269C5.56238 16.0579 5.92113 16.0575 6.12624 15.8269C6.345 15.5811 11.4831 9.75982 11.4831 5.79457C11.4831 2.59944 8.90746 0 5.74157 0ZM5.74157 8.70998C4.14872 8.70998 2.85287 7.40213 2.85287 5.79457C2.85287 4.18701 4.14875 2.87919 5.74157 2.87919C7.33439 2.87919 8.63024 4.18704 8.63024 5.7946C8.63024 7.40217 7.33439 8.70998 5.74157 8.70998Z" fill="white"/>
</svg>
