<svg width="16" height="16" viewBox="0 0 16 16" fill="none" xmlns="http://www.w3.org/2000/svg">
<path fill-rule="evenodd" clip-rule="evenodd" d="M11.5845 0H4.41553C1.98096 0 0 1.98047 0 4.41504V11.585C0 14.0195 1.98096 16 4.41553 16H11.5845C14.019 16 16 14.0195 16 11.585V4.41504C16 1.98047 14.019 0 11.5845 0ZM7.99951 3.87695C5.72656 3.87695 3.87695 5.72656 3.87695 8C3.87695 10.2734 5.72656 12.1221 7.99951 12.1221C10.2729 12.1221 12.1226 10.2734 12.1226 8C12.1226 5.72656 10.2729 3.87695 7.99951 3.87695ZM7.99951 10.7031C6.50928 10.7031 5.29639 9.49023 5.29639 8C5.29639 6.50879 6.50928 5.29688 7.99951 5.29688C9.49023 5.29688 10.7031 6.50879 10.7031 8C10.7031 9.49023 9.49023 10.7031 7.99951 10.7031ZM11.5605 2.97852C11.7539 2.78418 12.0225 2.67383 12.2959 2.67383C12.5703 2.67383 12.8394 2.78418 13.0322 2.97852C13.1479 3.09375 13.2344 3.23633 13.2847 3.39062C13.3188 3.49512 13.3369 3.60449 13.3369 3.71484C13.3369 3.98828 13.2261 4.25684 13.0322 4.45117C12.8384 4.64453 12.5703 4.75586 12.2959 4.75586C12.0225 4.75586 11.7534 4.64453 11.5605 4.45117C11.4053 4.2959 11.3027 4.09277 11.2681 3.87793C11.2593 3.82422 11.2549 3.76953 11.2549 3.71484C11.2549 3.44043 11.3667 3.17188 11.5605 2.97852Z" fill="white"/>
</svg>
