<svg width="199" height="73" viewBox="0 0 199 73" fill="none" xmlns="http://www.w3.org/2000/svg">
<path d="M12.5465 35.5665C12.796 35.5665 12.9386 35.6742 12.9386 35.9255C12.9386 36.1767 12.796 36.3203 12.5465 36.3203H0.71288C0.534662 36.3203 0.427731 36.2844 0.392088 36.2126C0.356444 36.1408 0.320801 36.069 0.320801 35.9614V16.7935C0.320801 16.5423 0.463375 16.4346 0.71288 16.4346C0.962385 16.4346 1.06932 16.5423 1.06932 16.7935V35.5665H12.5465Z" fill="#FFFDFD"/>
<path d="M15.79 16.7935C15.79 16.5423 15.9326 16.4346 16.1821 16.4346C16.4316 16.4346 16.5386 16.5423 16.5386 16.7935V35.9614C16.5386 36.2126 16.4316 36.3562 16.1821 36.3562C15.9326 36.3562 15.79 36.2126 15.79 35.9614V16.7935Z" fill="#FFFDFD"/>
<path d="M34.2179 16.4346C34.503 16.4346 34.6456 16.5423 34.6456 16.7935C34.6456 17.0448 34.503 17.1884 34.2179 17.1884H27.5525V35.9614C27.5525 36.2126 27.4456 36.3562 27.1961 36.3562C26.9466 36.3562 26.804 36.2126 26.804 35.9614V17.1884H20.0674C19.8179 17.1884 19.7109 17.0448 19.7109 16.7935C19.7109 16.5423 19.8179 16.4346 20.0674 16.4346H34.2179Z" fill="#FFFDFD"/>
<path d="M52.1112 16.6137C52.1468 16.4701 52.2181 16.3983 52.2894 16.3624C52.3607 16.3265 52.4676 16.3266 52.5745 16.3983C52.824 16.4701 52.8953 16.6137 52.824 16.865L44.8042 36.1764C44.7329 36.32 44.626 36.3918 44.4478 36.3918C44.3765 36.4277 44.2696 36.3918 44.1983 36.3559C44.127 36.32 44.0914 36.2482 44.0557 36.1046L36.0716 16.9009C35.9646 16.6496 36.0359 16.506 36.2854 16.4342C36.4993 16.3265 36.6775 16.3624 36.7488 16.5778L44.4478 35.0637L52.1112 16.6137Z" fill="#FFFDFD"/>
<path d="M55.604 16.7935C55.604 16.5423 55.7466 16.4346 55.9961 16.4346C56.2456 16.4346 56.3525 16.5423 56.3525 16.7935V35.9614C56.3525 36.2126 56.2456 36.3562 55.9961 36.3562C55.7466 36.3562 55.604 36.2126 55.604 35.9614V16.7935Z" fill="#FFFDFD"/>
<path d="M76.0992 16.7933C76.0992 16.542 76.2061 16.4343 76.4556 16.4343C76.7051 16.4343 76.8477 16.542 76.8477 16.7933V36.0329C76.8121 36.2124 76.7051 36.3201 76.4913 36.3201C76.3843 36.3201 76.3131 36.2842 76.2418 36.2842C76.1705 36.2842 76.1348 36.2124 76.0992 36.1765L61.414 17.9778V35.9611C61.414 36.2124 61.3071 36.356 61.0576 36.356C60.8081 36.356 60.6655 36.2124 60.6655 35.9611V16.7933C60.6655 16.6856 60.7012 16.5779 60.7368 16.5061C60.7725 16.4343 60.8437 16.3984 60.9863 16.3984C61.0576 16.3984 61.1289 16.3984 61.1645 16.4343C61.2002 16.4702 61.2358 16.5061 61.3071 16.542L76.1348 34.7407L76.0992 16.7933Z" fill="#FFFDFD"/>
<path d="M94.4552 16.4346C94.7403 16.4346 94.8829 16.5423 94.8829 16.7935C94.8829 17.0448 94.7403 17.1884 94.4552 17.1884H81.9443V25.6595H92.2097C92.4948 25.6595 92.6374 25.8031 92.6374 26.0544C92.6374 26.3057 92.4948 26.4133 92.2097 26.4133H81.9443V35.6024H94.7404C95.0255 35.6024 95.1681 35.7101 95.1681 35.9614C95.1681 36.2126 95.0255 36.3562 94.7404 36.3562H81.4453C81.4097 36.3562 81.4097 36.3562 81.374 36.3562C81.3384 36.3562 81.3384 36.3562 81.3027 36.3562V36.3203C81.2314 36.2844 81.1958 36.1408 81.1958 35.9973V16.7935C81.1958 16.6858 81.1958 16.614 81.2314 16.5782L81.2671 16.5423C81.3027 16.5064 81.3384 16.4705 81.374 16.4705C81.4453 16.4346 81.5166 16.4346 81.6235 16.4346H94.4552Z" fill="#FFFDFD"/>
<path d="M113.132 16.7933C113.132 16.542 113.239 16.4343 113.489 16.4343C113.738 16.4343 113.881 16.542 113.881 16.7933V36.0329C113.845 36.2124 113.738 36.3201 113.524 36.3201C113.418 36.3201 113.346 36.2842 113.275 36.2842C113.204 36.2842 113.168 36.2124 113.132 36.1765L98.4472 17.9778V35.9611C98.4472 36.2124 98.3403 36.356 98.0908 36.356C97.8413 36.356 97.6987 36.2124 97.6987 35.9611V16.7933C97.6987 16.6856 97.7344 16.5779 97.77 16.5061C97.8057 16.4343 97.8769 16.3984 98.0195 16.3984C98.0908 16.3984 98.1621 16.3984 98.1977 16.4343C98.2334 16.4702 98.269 16.5061 98.3403 16.542L113.168 34.7407L113.132 16.7933Z" fill="#FFFDFD"/>
<path d="M130.527 16.5782C130.67 16.4346 130.883 16.3987 131.097 16.5423C131.24 16.7217 131.276 16.9012 131.133 17.0807L124.04 24.6904L133.2 35.6383C133.378 35.8537 133.343 36.0332 133.165 36.2126C132.951 36.3562 132.773 36.3562 132.63 36.1767L123.541 25.2288L118.907 30.1464V35.9614C118.907 36.2126 118.8 36.3562 118.551 36.3562C118.301 36.3562 118.159 36.2126 118.159 35.9614V16.7935C118.159 16.5423 118.301 16.4346 118.551 16.4346C118.8 16.4346 118.907 16.5423 118.907 16.7935V29.1055L130.527 16.5782Z" fill="#FFFDFD"/>
<path d="M135.267 26.4131C135.267 25.4799 135.374 24.5825 135.624 23.721C135.873 22.8595 136.194 22.034 136.657 21.2802C137.085 20.5264 137.62 19.8444 138.226 19.2342C138.831 18.6239 139.509 18.0855 140.257 17.6548C141.006 17.224 141.826 16.8651 142.681 16.6138C143.536 16.3626 144.427 16.2549 145.354 16.2549C146.281 16.2549 147.172 16.3626 148.027 16.6138C148.883 16.8651 149.703 17.1881 150.451 17.6548C151.2 18.0855 151.877 18.6239 152.483 19.2342C153.089 19.8444 153.624 20.5264 154.051 21.2802C154.479 22.034 154.835 22.8595 155.085 23.721C155.334 24.5825 155.441 25.4799 155.441 26.4131C155.441 27.3464 155.334 28.2438 155.085 29.1052C154.835 29.9667 154.515 30.7923 154.051 31.5461C153.624 32.2999 153.089 32.9819 152.483 33.5921C151.877 34.2023 151.2 34.7407 150.451 35.1715C149.703 35.6022 148.883 35.9612 148.027 36.2124C147.172 36.4637 146.281 36.5714 145.354 36.5714C144.427 36.5714 143.536 36.4637 142.681 36.2124C141.826 35.9612 141.006 35.6381 140.257 35.1715C139.509 34.7048 138.831 34.2023 138.226 33.5921C137.62 32.9819 137.085 32.2999 136.657 31.5461C136.229 30.7923 135.873 30.0026 135.624 29.1052C135.374 28.2438 135.267 27.3464 135.267 26.4131ZM136.051 26.4131C136.051 27.2746 136.158 28.1002 136.372 28.8899C136.586 29.6796 136.907 30.4333 137.299 31.1153C137.691 31.7974 138.19 32.4435 138.76 33.0178C139.33 33.5921 139.936 34.0587 140.649 34.4895C141.326 34.8843 142.075 35.2074 142.859 35.4227C143.643 35.6381 144.463 35.7458 145.319 35.7458C146.174 35.7458 146.994 35.6381 147.778 35.4227C148.562 35.2074 149.311 34.8843 149.988 34.4895C150.665 34.0946 151.307 33.5921 151.877 33.0178C152.447 32.4435 152.946 31.8332 153.338 31.1153C153.73 30.4333 154.051 29.6796 154.265 28.8899C154.479 28.1002 154.586 27.2746 154.586 26.4131C154.586 25.5516 154.479 24.7261 154.265 23.9364C154.051 23.1467 153.73 22.3929 153.338 21.7109C152.946 21.0289 152.447 20.3828 151.877 19.8085C151.307 19.2342 150.665 18.7316 149.988 18.3368C149.311 17.9419 148.562 17.6189 147.778 17.3676C146.994 17.1523 146.174 17.0446 145.319 17.0446C144.463 17.0446 143.643 17.1523 142.859 17.3676C142.075 17.583 141.326 17.906 140.649 18.3368C139.972 18.7316 139.33 19.2342 138.76 19.8085C138.19 20.3828 137.727 21.0289 137.299 21.7109C136.907 22.3929 136.586 23.1467 136.372 23.9364C136.158 24.7261 136.051 25.5516 136.051 26.4131Z" fill="#FFFDFD"/>
<path d="M162.927 71.6411C182.297 71.6411 198 55.8275 198 36.3205C198 16.8135 182.297 1 162.927 1C143.556 1 127.854 16.8135 127.854 36.3205C127.854 55.8275 143.556 71.6411 162.927 71.6411Z" stroke="white" stroke-miterlimit="10"/>
<path d="M127.996 71.9995C147.367 71.9995 163.069 56.1859 163.069 36.6789C163.069 17.1719 147.367 1.3584 127.996 1.3584C108.626 1.3584 92.9229 17.1719 92.9229 36.6789C92.9229 56.1859 108.626 71.9995 127.996 71.9995Z" stroke="white" stroke-miterlimit="10"/>
<path d="M127.854 36.7155H163.141L145.141 5.88184L127.854 36.7155Z" stroke="white" stroke-miterlimit="10"/>
</svg>
