<svg width="175" height="63" viewBox="0 0 175 63" fill="none" xmlns="http://www.w3.org/2000/svg">
<path d="M10.8812 31.3697C11.1113 31.3697 11.2428 31.4674 11.2428 31.6955C11.2428 31.9236 11.1113 32.054 10.8812 32.054H0.36161C0.197242 32.054 0.0986208 32.0214 0.0657471 31.9562C0.0328735 31.891 0 31.8259 0 31.7281V14.9792C0 14.7511 0.131495 14.6533 0.36161 14.6533C0.591725 14.6533 0.690346 14.7511 0.690346 14.9792V31.3697H10.8812Z" fill="white"/>
<path d="M13.7412 14.9792C13.7412 14.7511 13.8727 14.6533 14.1028 14.6533C14.3329 14.6533 14.4316 14.7511 14.4316 14.9792V31.7281C14.4316 31.9562 14.3329 32.0865 14.1028 32.0865C13.8727 32.0865 13.7412 31.9562 13.7412 31.7281V14.9792Z" fill="white"/>
<path d="M30.112 14.6534C30.375 14.6534 30.5065 14.7512 30.5065 14.9793C30.5065 15.2074 30.375 15.3377 30.112 15.3377H24.1948V31.7282C24.1948 31.9563 24.0962 32.0867 23.8661 32.0867C23.6359 32.0867 23.5044 31.9563 23.5044 31.7282V15.3051H17.5543C17.3242 15.3051 17.2256 15.1748 17.2256 14.9467C17.2256 14.7186 17.3242 14.6208 17.5543 14.6208H30.112V14.6534Z" fill="white"/>
<path d="M45.9902 14.8162C46.0231 14.6858 46.0889 14.6206 46.1546 14.5881C46.2204 14.5555 46.319 14.5555 46.4176 14.6206C46.6477 14.6858 46.7135 14.8162 46.6477 15.0443L39.5141 31.9235C39.4484 32.0539 39.3498 32.119 39.1854 32.119C39.1197 32.1516 39.021 32.119 38.9553 32.0865C38.8895 32.0539 38.8567 31.9887 38.8238 31.8584L31.7231 15.0768C31.6245 14.8487 31.6902 14.7184 31.9203 14.6532C32.1176 14.5555 32.2819 14.5881 32.3477 14.7836L39.1854 30.946L45.9902 14.8162Z" fill="white"/>
<path d="M49.1133 14.9792C49.1133 14.7511 49.2448 14.6533 49.4749 14.6533C49.705 14.6533 49.8036 14.7511 49.8036 14.9792V31.7281C49.8036 31.9562 49.705 32.0865 49.4749 32.0865C49.2448 32.0865 49.1133 31.9562 49.1133 31.7281V14.9792Z" fill="white"/>
<path d="M67.2924 14.9793C67.2924 14.7512 67.3911 14.6534 67.6212 14.6534C67.8513 14.6534 67.9828 14.7512 67.9828 14.9793V31.7934C67.9499 31.9563 67.8513 32.0541 67.654 32.0541C67.5554 32.0541 67.4897 32.0215 67.4239 32.0215C67.3582 32.0215 67.3253 31.9563 67.2924 31.9237L54.2416 16.022V31.7282C54.2416 31.9563 54.143 32.0867 53.9129 32.0867C53.6828 32.0867 53.5513 31.9563 53.5513 31.7282V14.9793C53.5513 14.8815 53.5841 14.7838 53.617 14.7186C53.6499 14.6534 53.7156 14.6208 53.8471 14.6208C53.9129 14.6208 53.9786 14.6209 54.0115 14.6534C54.0444 14.686 54.0772 14.7186 54.143 14.7512L67.2924 30.6529V14.9793Z" fill="white"/>
<path d="M83.5974 14.6533C83.8604 14.6533 83.9919 14.7511 83.9919 14.9792C83.9919 15.2073 83.8604 15.3376 83.5974 15.3376H72.4861V22.7345H81.5921C81.8551 22.7345 81.9866 22.8649 81.9866 23.093C81.9866 23.3211 81.8551 23.4188 81.5921 23.4188H72.4861V31.4348H83.8604C84.1233 31.4348 84.2548 31.5326 84.2548 31.7607C84.2548 31.9888 84.1233 32.1191 83.8604 32.1191H72.0587C72.0259 32.1191 72.0259 32.1191 71.993 32.1191C71.9601 32.1191 71.9601 32.1191 71.9272 32.1191V32.0865C71.8615 32.054 71.8286 31.9236 71.8286 31.7933V14.9792C71.8286 14.8814 71.8286 14.8162 71.8615 14.7837L71.8944 14.7511C71.9272 14.7185 71.9601 14.6859 71.993 14.6859C72.0587 14.6533 72.1245 14.6533 72.2231 14.6533C72.1902 14.6533 83.5974 14.6533 83.5974 14.6533Z" fill="white"/>
<path d="M100.166 14.9793C100.166 14.7512 100.265 14.6534 100.495 14.6534C100.725 14.6534 100.856 14.7512 100.856 14.9793V31.7934C100.823 31.9563 100.725 32.0541 100.528 32.0541C100.429 32.0541 100.363 32.0215 100.297 32.0215C100.232 32.0215 100.199 31.9563 100.166 31.9237L87.1152 16.022V31.7282C87.1152 31.9563 87.0165 32.0867 86.7864 32.0867C86.5563 32.0867 86.4248 31.9563 86.4248 31.7282V14.9793C86.4248 14.8815 86.4577 14.7838 86.4905 14.7186C86.5234 14.6534 86.5892 14.6208 86.7207 14.6208C86.7864 14.6208 86.8522 14.6209 86.885 14.6534C86.9179 14.686 86.9508 14.7186 87.0165 14.7512L100.166 30.6529V14.9793Z" fill="white"/>
<path d="M115.617 14.7837C115.748 14.6533 115.945 14.6207 116.11 14.7511C116.241 14.914 116.274 15.0769 116.143 15.2073L109.831 21.8547L117.951 31.4348C118.115 31.6304 118.082 31.7933 117.918 31.9236C117.721 32.054 117.556 32.054 117.458 31.891L109.404 22.3435L105.294 26.6448V31.7281C105.294 31.9562 105.196 32.0865 104.966 32.0865C104.736 32.0865 104.604 31.9562 104.604 31.7281V14.9792C104.604 14.7511 104.736 14.6533 104.966 14.6533C105.196 14.6533 105.294 14.7511 105.294 14.9792V25.7324L115.617 14.7837Z" fill="white"/>
<path d="M119.824 23.3862C119.824 22.5716 119.923 21.7895 120.153 21.04C120.383 20.2906 120.646 19.5737 121.073 18.922C121.468 18.2703 121.928 17.6512 122.454 17.1298C122.98 16.6084 123.605 16.1196 124.262 15.7612C124.92 15.3702 125.643 15.0769 126.399 14.8488C127.155 14.6207 127.944 14.5229 128.766 14.5229C129.588 14.5229 130.377 14.6207 131.133 14.8488C131.889 15.0769 132.612 15.3376 133.27 15.7612C133.927 16.1522 134.552 16.6084 135.078 17.1298C135.604 17.6512 136.097 18.2703 136.458 18.922C136.853 19.5737 137.149 20.2906 137.379 21.04C137.609 21.7895 137.707 22.5716 137.707 23.3862C137.707 24.2008 137.609 24.9829 137.379 25.7324C137.149 26.4818 136.886 27.1987 136.458 27.8504C136.064 28.5021 135.604 29.1212 135.078 29.6426C134.552 30.164 133.927 30.6528 133.27 31.0112C132.612 31.4022 131.889 31.6955 131.133 31.9236C130.377 32.1517 129.588 32.2494 128.766 32.2494C127.944 32.2494 127.155 32.1517 126.399 31.9236C125.643 31.6955 124.92 31.4348 124.262 31.0112C123.605 30.5876 122.98 30.164 122.454 29.6426C121.928 29.1212 121.435 28.5021 121.073 27.8504C120.679 27.1987 120.383 26.5144 120.153 25.7324C119.923 24.9829 119.824 24.2008 119.824 23.3862ZM120.515 23.3862C120.515 24.1357 120.613 24.8525 120.81 25.5368C121.008 26.2211 121.271 26.8728 121.632 27.492C121.994 28.0785 122.421 28.665 122.914 29.1538C123.407 29.6426 123.966 30.0662 124.591 30.4247C125.183 30.7831 125.873 31.0438 126.563 31.2393C127.254 31.4348 127.977 31.5326 128.733 31.5326C129.489 31.5326 130.212 31.4348 130.903 31.2393C131.593 31.0438 132.25 30.7831 132.875 30.4247C133.467 30.0662 134.058 29.6426 134.552 29.1538C135.045 28.665 135.505 28.1111 135.834 27.492C136.195 26.9054 136.458 26.2211 136.655 25.5368C136.853 24.8525 136.951 24.1357 136.951 23.3862C136.951 22.6367 136.853 21.9199 136.655 21.2356C136.458 20.5513 136.195 19.8996 135.834 19.2804C135.472 18.6939 135.045 18.1074 134.552 17.6186C134.058 17.1298 133.467 16.6736 132.875 16.3477C132.283 16.0219 131.593 15.7286 130.903 15.5005C130.212 15.305 129.489 15.2072 128.733 15.2072C127.977 15.2072 127.254 15.305 126.563 15.5005C125.873 15.696 125.215 15.9567 124.591 16.3477C123.999 16.7062 123.407 17.1298 122.914 17.6186C122.421 18.1074 121.994 18.6939 121.632 19.2804C121.271 19.867 121.008 20.5513 120.81 21.2356C120.613 21.8873 120.515 22.6041 120.515 23.3862Z" fill="white"/>
<path d="M143.23 62C160.224 62 174 48.3447 174 31.5C174 14.6553 160.224 1 143.23 1C126.237 1 112.46 14.6553 112.46 31.5C112.46 48.3447 126.237 62 143.23 62Z" stroke="white" stroke-width="0.75" stroke-miterlimit="10"/>
<path d="M114.301 62C131.295 62 145.071 48.3447 145.071 31.5C145.071 14.6553 131.295 1 114.301 1C97.3078 1 83.5317 14.6553 83.5317 31.5C83.5317 48.3447 97.3078 62 114.301 62Z" stroke="white" stroke-width="0.75" stroke-miterlimit="10"/>
<path d="M128.766 5.07324L112.756 32.5428H144.775L128.766 5.07324Z" stroke="white" stroke-width="0.75" stroke-miterlimit="10"/>
<path d="M7.39648 47.9882V41.08C7.39648 40.9497 7.46223 40.8845 7.56085 40.8845H9.89488C10.388 40.8845 10.8811 40.9823 11.3084 41.1778C11.7687 41.3733 12.1303 41.634 12.459 41.9598C12.7878 42.2857 13.0507 42.6767 13.248 43.1003C13.4452 43.5565 13.5438 44.0127 13.5438 44.5341C13.5438 45.0229 13.4452 45.5117 13.248 45.9353C13.0507 46.3915 12.7878 46.7499 12.459 47.0758C12.1303 47.4016 11.7358 47.6623 11.2756 47.8578C10.8153 48.0533 10.3551 48.1511 9.82913 48.1511H7.52798C7.46223 48.1511 7.39648 48.1185 7.39648 47.9882ZM7.95534 47.6297H9.862C10.2894 47.6297 10.7167 47.532 11.0783 47.369C11.4728 47.2061 11.8015 46.978 12.0645 46.6847C12.3604 46.3915 12.5576 46.0656 12.722 45.7072C12.8864 45.3161 12.9521 44.9251 12.9521 44.5015C12.9521 44.0453 12.8535 43.6543 12.6891 43.2633C12.5248 42.9048 12.2947 42.579 11.9988 42.2857C11.7029 42.025 11.3742 41.7969 11.0126 41.634C10.6181 41.4711 10.2236 41.4059 9.79626 41.4059H7.92246V47.6297H7.95534Z" fill="white"/>
<path d="M14.7271 47.988V41.0799C14.7271 40.9496 14.7928 40.917 14.9243 40.917H15.1215C15.253 40.917 15.3188 40.9822 15.3188 41.0799V47.988C15.3188 48.1184 15.253 48.151 15.1215 48.151H14.9243C14.7928 48.151 14.7271 48.1184 14.7271 47.988Z" fill="white"/>
<path d="M20.3158 47.6949C20.6445 47.6949 20.9733 47.6297 21.3349 47.5319C21.6636 47.4016 21.9595 47.2713 22.1567 47.1083V45.1206C22.1567 45.0229 22.2225 44.9577 22.3211 44.9577H22.5841C22.6827 44.9577 22.7484 45.0229 22.7484 45.1206V47.2713C22.7484 47.369 22.7156 47.4016 22.6827 47.4342C22.354 47.6623 22.0252 47.8578 21.6307 48.0207C21.2363 48.1837 20.8089 48.2488 20.3815 48.2488C19.8556 48.2488 19.3625 48.1511 18.9022 47.9556C18.442 47.76 18.0475 47.4994 17.6859 47.1735C17.3572 46.8476 17.0942 46.4566 16.8969 46.0004C16.6997 45.5442 16.6011 45.0554 16.6011 44.5341C16.6011 44.0127 16.6997 43.5239 16.8969 43.0677C17.0942 42.6115 17.3572 42.2205 17.7188 41.8947C18.0475 41.5688 18.4749 41.3081 18.9351 41.1126C19.3953 40.9171 19.8884 40.8193 20.4144 40.8193C20.8746 40.8193 21.2691 40.8845 21.6636 41.0474C22.0581 41.1778 22.3868 41.4059 22.7156 41.634C22.7813 41.6991 22.8142 41.7317 22.8142 41.7643C22.8142 41.7969 22.7813 41.8295 22.7813 41.8295L22.6169 42.0576C22.6169 42.0576 22.5841 42.0902 22.5183 42.1228C22.4854 42.1553 22.4197 42.1228 22.354 42.0902C22.091 41.8947 21.7622 41.7317 21.4664 41.6014C21.1376 41.471 20.8089 41.4059 20.4144 41.4059C19.9871 41.4059 19.5597 41.5036 19.1652 41.6666C18.7707 41.8295 18.442 42.0576 18.1461 42.3509C17.8503 42.6441 17.6202 42.97 17.4558 43.361C17.2914 43.752 17.1928 44.1431 17.1928 44.5993C17.1928 45.0229 17.2914 45.4465 17.4558 45.8375C17.6202 46.2285 17.8503 46.5544 18.1461 46.8476C18.442 47.1409 18.7707 47.369 19.1652 47.5319C19.4611 47.5971 19.8884 47.6949 20.3158 47.6949Z" fill="white"/>
<path d="M24.0635 47.988V41.0799C24.0635 40.9496 24.1292 40.917 24.2607 40.917H24.458C24.5895 40.917 24.6552 40.9822 24.6552 41.0799V47.988C24.6552 48.1184 24.5895 48.151 24.458 48.151H24.2607C24.1292 48.151 24.0635 48.1184 24.0635 47.988Z" fill="white"/>
<path d="M25.8056 40.8845H30.9667C31.0325 40.8845 31.0654 40.8845 31.0982 40.9171C31.1311 40.9497 31.164 40.9823 31.164 41.0474V41.2755C31.164 41.4059 31.0982 41.4385 30.9667 41.4385H28.6656V47.9556C28.6656 48.0859 28.5998 48.1185 28.5012 48.1185H28.304C28.1725 48.1185 28.1396 48.0533 28.1396 47.9556V41.4385H25.8384C25.707 41.4385 25.6741 41.3733 25.6741 41.243V41.0474C25.6412 40.9497 25.707 40.8845 25.8056 40.8845Z" fill="white"/>
<path d="M33.8597 41.0149L36.7526 47.9556C36.7854 48.0207 36.7854 48.0859 36.7526 48.1185C36.7197 48.1511 36.6868 48.1837 36.6211 48.1837H36.3252C36.2595 48.1837 36.1937 48.1511 36.1608 48.0533L35.4705 46.3589H31.69L30.9997 48.0533C30.9668 48.1511 30.9011 48.1837 30.8353 48.1837H30.5395C30.5066 48.1837 30.4408 48.1511 30.408 48.1185C30.3751 48.0859 30.3751 48.0207 30.408 47.9556L33.3337 41.0149C33.3666 40.9171 33.4323 40.8845 33.4981 40.8845H33.6953C33.7939 40.8845 33.8268 40.9497 33.8597 41.0149ZM33.5967 41.7969L31.953 45.7723H35.2733L33.5967 41.7969Z" fill="white"/>
<path d="M37.9688 48.0206V41.0799C37.9688 40.9822 38.0345 40.917 38.1331 40.917H38.3961C38.4947 40.917 38.5605 40.9822 38.5605 41.0799V47.6296H42.4724C42.6039 47.6296 42.6368 47.6948 42.6368 47.7925V48.0532C42.6368 48.151 42.5711 48.2161 42.4724 48.2161H38.1331C38.0016 48.151 37.9688 48.1184 37.9688 48.0206Z" fill="white"/>
<path d="M49.7049 41.0149L52.5978 47.9556C52.6307 48.0207 52.6307 48.0859 52.5978 48.1185C52.5649 48.1511 52.532 48.1837 52.4663 48.1837H52.1704C52.1047 48.1837 52.0389 48.1511 52.0061 48.0533L51.3157 46.3589H47.5352L46.8449 48.0533C46.812 48.1511 46.7463 48.1837 46.6805 48.1837H46.3847C46.3518 48.1837 46.286 48.1511 46.2532 48.1185C46.2203 48.0859 46.2203 48.0207 46.2532 47.9556L49.1789 41.0149C49.2118 40.9171 49.2775 40.8845 49.3433 40.8845H49.5405C49.6063 40.8845 49.672 40.9497 49.7049 41.0149ZM49.4419 41.7969L47.7982 45.7723H51.1185L49.4419 41.7969Z" fill="white"/>
<path d="M58.2519 41.4711H54.3728V48.0207C54.3728 48.0533 54.3728 48.0859 54.3399 48.1185C54.3071 48.1511 54.2742 48.1837 54.2413 48.1837H53.9783C53.8797 48.1837 53.814 48.1185 53.814 48.0207V41.0474C53.814 40.9497 53.8797 40.8845 53.9783 40.8845H58.2848C58.3834 40.8845 58.4491 40.9497 58.4491 41.0474V41.3407C58.4163 41.4059 58.3505 41.4711 58.2519 41.4711Z" fill="white"/>
<path d="M59.4028 48.0206V41.0799C59.4028 40.9822 59.4686 40.917 59.5672 40.917H64.3667C64.4654 40.917 64.5311 40.9496 64.5311 41.0473V41.308C64.5311 41.4058 64.4654 41.4709 64.3667 41.4709H59.9617V44.1104H63.4792C63.6107 44.1104 63.6764 44.1755 63.6764 44.2733V44.534C63.6764 44.6317 63.6107 44.6969 63.4792 44.6969H59.9617V47.6622H64.4325C64.5311 47.6622 64.5969 47.6948 64.5969 47.7925V48.0858C64.5969 48.1836 64.5311 48.2161 64.4325 48.2161H59.5672C59.4686 48.151 59.4028 48.1184 59.4028 48.0206Z" fill="white"/>
<path d="M71.1385 47.988V44.7295H66.3061V47.988C66.3061 48.0858 66.2403 48.151 66.1417 48.151H65.8787C65.7801 48.151 65.7144 48.0858 65.7144 47.988V41.0799C65.7144 41.0147 65.7144 40.9821 65.7472 40.9496C65.7801 40.917 65.813 40.8844 65.8787 40.8844H66.1417C66.2403 40.8844 66.3061 40.9496 66.3061 41.0473V44.1429H71.1385V41.0473C71.1385 40.9821 71.1385 40.9496 71.1714 40.917C71.2042 40.8844 71.2371 40.8518 71.3029 40.8518H71.5659C71.6645 40.8518 71.7302 40.917 71.7302 41.0147V47.9554C71.7302 48.0532 71.6645 48.1184 71.5659 48.1184H71.3029C71.2042 48.1509 71.1385 48.1184 71.1385 47.988Z" fill="white"/>
<path d="M72.9793 40.8845H78.1404C78.2062 40.8845 78.2391 40.8845 78.2719 40.9171C78.3048 40.9497 78.3377 40.9823 78.3377 41.0474V41.2755C78.3377 41.4059 78.2719 41.4385 78.1404 41.4385H75.8393V47.9556C75.8393 48.0859 75.7735 48.1185 75.6749 48.1185H75.4777C75.3462 48.1185 75.3133 48.0533 75.3133 47.9556V41.4385H73.0122C72.8807 41.4385 72.8478 41.3733 72.8478 41.243V41.0474C72.8149 40.9497 72.8478 40.8845 72.9793 40.8845Z" fill="white"/>
<path d="M83.9261 47.0107C83.9589 46.9781 83.9918 46.9455 84.0576 46.9455C84.0904 46.9455 84.1562 46.9781 84.189 47.0107L84.3534 47.2388C84.3863 47.304 84.3863 47.3365 84.3863 47.3691C84.3863 47.4017 84.3534 47.4343 84.2877 47.4669C83.9918 47.7276 83.6302 47.9231 83.2686 48.0534C82.8741 48.1838 82.4796 48.2815 82.0194 48.2815C81.4934 48.2815 81.0003 48.1838 80.5401 47.9883C80.0799 47.7927 79.6854 47.5321 79.3238 47.1736C78.995 46.8478 78.6992 46.4242 78.5019 45.968C78.3047 45.5118 78.2061 45.023 78.2061 44.5016C78.2061 43.9802 78.3047 43.4915 78.5019 43.0353C78.6992 42.5791 78.9621 42.188 79.3238 41.8622C79.6525 41.5363 80.0799 41.2756 80.5401 41.0801C81.0003 40.8846 81.4934 40.7869 82.0194 40.7869C82.4796 40.7869 82.907 40.852 83.2686 41.015C83.6631 41.1453 83.9918 41.3408 84.3205 41.6015C84.3863 41.6667 84.4192 41.6993 84.4192 41.7318C84.4192 41.7644 84.4192 41.797 84.3863 41.8296L84.2219 42.0577C84.2219 42.0577 84.1891 42.0903 84.1233 42.1229C84.0904 42.1555 84.0247 42.1229 83.9589 42.0903C83.6959 41.8948 83.3672 41.6993 83.0713 41.5689C82.7426 41.4386 82.381 41.3734 82.0194 41.3734C81.592 41.3734 81.1647 41.4712 80.7702 41.6341C80.3757 41.797 80.047 42.0251 79.7511 42.3184C79.4553 42.6117 79.2251 42.9375 79.0608 43.3285C78.8964 43.7196 78.7978 44.1106 78.7978 44.5668C78.7978 44.9904 78.8964 45.414 79.0608 45.805C79.2251 46.1961 79.4553 46.5219 79.7511 46.8152C80.047 47.1084 80.3757 47.3365 80.7702 47.4995C81.1647 47.6624 81.5592 47.7602 82.0194 47.7602C82.381 47.7602 82.7426 47.695 83.0713 47.5646C83.3672 47.4017 83.6631 47.2388 83.9261 47.0107Z" fill="white"/>
<path d="M85.1097 40.8845H90.2708C90.3366 40.8845 90.3694 40.8845 90.4023 40.9171C90.4352 40.9497 90.4681 40.9823 90.4681 41.0474V41.2755C90.4681 41.4059 90.4023 41.4385 90.2708 41.4385H87.9697V47.9556C87.9697 48.0859 87.9039 48.1185 87.8053 48.1185H87.6081C87.4766 48.1185 87.4437 48.0533 87.4437 47.9556V41.4385H85.1425C85.011 41.4385 84.9782 41.3733 84.9782 41.243V41.0474C84.9453 40.9497 84.9782 40.8845 85.1097 40.8845Z" fill="white"/>
<path d="M91.7172 40.8845H94.6101C94.8731 40.8845 95.136 40.9171 95.3662 41.0149C95.5963 41.1126 95.7935 41.243 95.9908 41.4059C96.1551 41.5688 96.3195 41.7643 96.4181 41.9924C96.5167 42.2205 96.5825 42.4486 96.5825 42.7419C96.5825 43.0677 96.5167 43.361 96.3524 43.6217C96.188 43.8824 95.9908 44.1105 95.7278 44.2734C95.8921 44.3386 96.0565 44.4363 96.2209 44.5667C96.3852 44.697 96.5167 44.8274 96.6154 44.9903C96.714 45.1532 96.8126 45.3161 96.8784 45.5117C96.9441 45.7072 96.977 45.9027 96.977 46.0982C96.977 46.3589 96.9112 46.6196 96.8126 46.8477C96.714 47.0758 96.5825 47.3039 96.4181 47.4994C96.2538 47.6949 96.0236 47.8252 95.7935 47.923C95.5634 48.0207 95.3004 48.0859 95.0374 48.0859H91.7501C91.6514 48.0859 91.5857 48.0533 91.5857 47.9556V41.0149C91.5528 40.9497 91.6186 40.8845 91.7172 40.8845ZM95.9908 42.7745C95.9908 42.579 95.9579 42.416 95.8921 42.2531C95.8264 42.0902 95.7278 41.9598 95.5963 41.8295C95.4648 41.6992 95.3333 41.634 95.1689 41.5688C95.0046 41.5036 94.8073 41.4711 94.6101 41.4711H92.1117V44.1431H94.6101C94.8073 44.1431 94.9717 44.1105 95.1361 44.0453C95.3004 43.9801 95.4648 43.8824 95.5634 43.752C95.6949 43.6217 95.7935 43.4914 95.8593 43.3284C95.9579 43.1329 95.9908 42.97 95.9908 42.7745ZM96.3524 46.1634C96.3524 45.9679 96.3195 45.8049 96.2538 45.6094C96.188 45.4139 96.0894 45.2836 95.9579 45.1206C95.8264 44.9903 95.6949 44.8599 95.5305 44.7948C95.3662 44.697 95.1689 44.6644 95.0046 44.6644H92.1446V47.5971H95.0046C95.2018 47.5971 95.3662 47.5645 95.5305 47.4668C95.6949 47.4016 95.8264 47.2713 95.9579 47.1409C96.0894 47.0106 96.188 46.8477 96.2538 46.6847C96.3195 46.5544 96.3524 46.3589 96.3524 46.1634Z" fill="white"/>
<path d="M97.8975 44.5341C97.8975 44.0127 97.9961 43.5239 98.1933 43.0677C98.3906 42.6115 98.6535 42.2205 98.9823 41.8621C99.311 41.5362 99.7055 41.2429 100.166 41.0474C100.626 40.8519 101.119 40.7542 101.645 40.7542C102.171 40.7542 102.631 40.8519 103.091 41.0474C103.552 41.2429 103.946 41.5036 104.275 41.8621C104.604 42.1879 104.867 42.6115 105.064 43.0677C105.261 43.5239 105.36 44.0127 105.36 44.5341C105.36 45.0554 105.261 45.5442 105.064 45.9678C104.867 46.424 104.604 46.815 104.275 47.1409C103.946 47.4668 103.552 47.7274 103.091 47.923C102.631 48.1185 102.138 48.2162 101.612 48.2162C101.086 48.2162 100.593 48.1185 100.166 47.923C99.7055 47.7274 99.311 47.4668 98.9823 47.1409C98.6535 46.815 98.3906 46.424 98.1933 45.9678C97.9961 45.5442 97.8975 45.0554 97.8975 44.5341ZM98.4563 44.5341C98.4563 44.9577 98.5549 45.3813 98.7193 45.7723C98.8837 46.1633 99.1138 46.4892 99.4096 46.7825C99.7055 47.0757 100.034 47.3038 100.429 47.4668C100.823 47.6297 101.218 47.7274 101.678 47.7274C102.105 47.7274 102.533 47.6297 102.927 47.4668C103.322 47.3038 103.65 47.0757 103.946 46.7825C104.242 46.4892 104.472 46.1633 104.637 45.7723C104.801 45.3813 104.9 44.9903 104.9 44.5341C104.9 44.1105 104.801 43.6868 104.637 43.2958C104.472 42.9048 104.242 42.5789 103.946 42.2857C103.65 41.9924 103.322 41.7643 102.927 41.6014C102.533 41.4384 102.138 41.3407 101.678 41.3407C101.251 41.3407 100.823 41.4384 100.429 41.6014C100.034 41.7643 99.7055 41.9924 99.4096 42.2857C99.1138 42.5789 98.8837 42.9048 98.7193 43.2958C98.5549 43.6868 98.4563 44.1105 98.4563 44.5341Z" fill="white"/>
</svg>
