<svg width="17" height="14" viewBox="0 0 17 14" fill="none" xmlns="http://www.w3.org/2000/svg">
<path d="M15.4673 13.367C15.827 13.367 16.1386 13.2472 16.4035 13.0105L11.8706 8.43554C11.7618 8.51414 11.6564 8.59057 11.5568 8.66324C11.2176 8.91548 10.9423 9.11231 10.7309 9.25336C10.5195 9.39472 10.2382 9.53881 9.88715 9.68592C9.53584 9.83321 9.20856 9.90662 8.90494 9.90662H8.88717C8.58353 9.90662 8.25624 9.83324 7.90496 9.68592C7.55368 9.53881 7.27243 9.39472 7.06125 9.25336C6.84986 9.11231 6.57469 8.91551 6.23529 8.66324C6.14071 8.59326 6.03582 8.51648 5.92241 8.43431L1.38858 13.0105C1.65347 13.2472 1.96531 13.367 2.32493 13.367H15.4673Z" fill="white"/>
<path d="M1.79835 5.55457C1.45915 5.32634 1.15835 5.06495 0.896484 4.77052V11.731L4.89181 7.69878C4.09252 7.13561 3.06267 6.42169 1.79835 5.55457Z" fill="white"/>
<path d="M16.0033 5.55457C14.7872 6.38528 13.7536 7.10043 12.9024 7.70039L16.8961 11.7312V4.77052C16.6401 5.05903 16.3425 5.32024 16.0033 5.55457Z" fill="white"/>
<path d="M15.4678 0.679688H2.32546C1.86696 0.679688 1.51446 0.835945 1.26752 1.14814C1.02038 1.46048 0.897008 1.85109 0.897008 2.31954C0.897008 2.69793 1.06072 3.10792 1.38801 3.54963C1.7153 3.99117 2.06356 4.33799 2.43262 4.59026C2.63494 4.73452 3.24507 5.1626 4.26301 5.87435C4.81251 6.25866 5.29039 6.59363 5.70104 6.8827C6.05107 7.12884 6.35294 7.342 6.60218 7.5189C6.63079 7.53915 6.67579 7.57164 6.73551 7.61473C6.79985 7.66137 6.88127 7.72056 6.98172 7.79377C7.17516 7.93496 7.33585 8.04909 7.46384 8.13627C7.59165 8.22349 7.74651 8.32091 7.92817 8.42909C8.1097 8.53712 8.28091 8.61836 8.4416 8.67239C8.60233 8.72639 8.75111 8.75348 8.88799 8.75348H8.90577C9.04261 8.75348 9.19143 8.72639 9.35218 8.67239C9.51285 8.61836 9.68391 8.53729 9.86558 8.42909C10.0471 8.32091 10.2017 8.22328 10.3299 8.13627C10.4579 8.04909 10.6186 7.93499 10.8121 7.79377C10.9123 7.72056 10.9938 7.66135 11.0581 7.61488C11.1179 7.57161 11.1628 7.53933 11.1916 7.5189C11.3858 7.38254 11.6883 7.17026 12.0951 6.88519C12.8353 6.36614 13.9255 5.60218 15.3701 4.59026C15.8046 4.28399 16.1675 3.91439 16.4593 3.482C16.7505 3.04961 16.8965 2.59605 16.8965 2.12148C16.8965 1.72497 16.7549 1.38569 16.4724 1.10311C16.1896 0.820876 15.8547 0.679688 15.4678 0.679688Z" fill="white"/>
</svg>
