<svg width="17" height="17" viewBox="0 0 17 17" fill="none" xmlns="http://www.w3.org/2000/svg">
<path d="M12.6883 10.0855C12.3602 9.75303 11.9644 9.57528 11.545 9.57528C11.1289 9.57528 10.7298 9.74974 10.3882 10.0822L9.31926 11.1191C9.23131 11.073 9.14336 11.0302 9.0588 10.9875C8.93703 10.9282 8.82202 10.8722 8.72392 10.813C7.72268 10.1941 6.81277 9.38764 5.94006 8.34414C5.51724 7.82404 5.2331 7.38623 5.02677 6.94184C5.30414 6.69496 5.56121 6.43819 5.81152 6.19131C5.90624 6.09914 6.00095 6.00368 6.09566 5.91151C6.806 5.22023 6.806 4.32486 6.09566 3.63359L5.17222 2.73493C5.06736 2.63288 4.95911 2.52754 4.85764 2.42221C4.65468 2.21811 4.44158 2.00744 4.22171 1.80993C3.8936 1.49392 3.50122 1.32604 3.08855 1.32604C2.67587 1.32604 2.27673 1.49392 1.93847 1.80993C1.93509 1.81322 1.93509 1.81322 1.93171 1.81651L0.78163 2.9456C0.34866 3.36695 0.101731 3.88047 0.0476102 4.47629C-0.0335717 5.43749 0.25733 6.33286 0.48058 6.9188C1.02856 8.35731 1.84714 9.69049 3.06825 11.1191C4.54982 12.8407 6.33244 14.2002 8.36875 15.1582C9.14675 15.517 10.1852 15.9416 11.3454 16.014C11.4165 16.0173 11.4909 16.0206 11.5585 16.0206C12.3399 16.0206 12.9961 15.7474 13.5103 15.2042C13.5137 15.1977 13.5204 15.1944 13.5238 15.1878C13.6997 14.9804 13.9027 14.7928 14.1158 14.592C14.2612 14.457 14.41 14.3155 14.5555 14.1673C14.8904 13.8283 15.0663 13.4333 15.0663 13.0284C15.0663 12.6202 14.887 12.2285 14.5453 11.8993L12.6883 10.0855ZM13.8993 13.5518C13.8959 13.5551 13.8959 13.5518 13.8993 13.5518C13.7673 13.69 13.632 13.8151 13.4866 13.9534C13.2667 14.1575 13.0435 14.3714 12.8338 14.6117C12.4921 14.9672 12.0896 15.1351 11.5619 15.1351C11.5112 15.1351 11.457 15.1351 11.4063 15.1318C10.4017 15.0693 9.46809 14.6874 8.7679 14.3615C6.85336 13.4596 5.17222 12.1791 3.77521 10.5562C2.62175 9.2033 1.85052 7.95242 1.33976 6.60937C1.02518 5.78971 0.910168 5.1511 0.960906 4.54871C0.994732 4.16356 1.14695 3.84426 1.4277 3.57104L2.58116 2.44854C2.74691 2.29712 2.9228 2.21482 3.09531 2.21482C3.30842 2.21482 3.48093 2.33991 3.58917 2.44525C3.59255 2.44854 3.59593 2.45183 3.59932 2.45512C3.80565 2.64276 4.00184 2.83697 4.20818 3.04435C4.31304 3.14969 4.42128 3.25503 4.52953 3.36366L5.45297 4.26232C5.81152 4.61125 5.81152 4.93385 5.45297 5.28278C5.35488 5.37824 5.26016 5.4737 5.16207 5.56587C4.87793 5.84896 4.60733 6.11231 4.31304 6.36907C4.30628 6.37565 4.29951 6.37894 4.29613 6.38553C4.00523 6.66862 4.05935 6.94513 4.12023 7.13276C4.12362 7.14264 4.127 7.15251 4.13038 7.16239C4.37055 7.72858 4.7088 8.26185 5.22296 8.89717L5.22634 8.90046C6.15993 10.0197 7.14426 10.892 8.23007 11.5602C8.36875 11.6458 8.51082 11.7149 8.64612 11.7808C8.7679 11.84 8.8829 11.896 8.981 11.9552C8.99453 11.9618 9.00806 11.9717 9.02159 11.9783C9.1366 12.0342 9.24484 12.0606 9.35647 12.0606C9.63722 12.0606 9.81311 11.8894 9.87062 11.8334L11.0275 10.7077C11.1425 10.5957 11.3251 10.4608 11.5382 10.4608C11.7479 10.4608 11.9205 10.5891 12.0253 10.7011C12.0287 10.7044 12.0287 10.7044 12.0321 10.7077L13.8959 12.5214C14.2443 12.8572 14.2443 13.2028 13.8993 13.5518Z" fill="white"/>
<path d="M8.68387 4.13411C9.57011 4.27895 10.3752 4.68713 11.0179 5.31257C11.6605 5.93801 12.0766 6.72146 12.2288 7.58391C12.266 7.80117 12.4588 7.95259 12.6787 7.95259C12.7058 7.95259 12.7294 7.9493 12.7565 7.94601C13.0068 7.90651 13.1726 7.67608 13.132 7.43249C12.9493 6.38899 12.4419 5.43766 11.6673 4.68384C10.8927 3.93002 9.91513 3.43625 8.84286 3.25849C8.59255 3.21899 8.35915 3.38029 8.31517 3.62059C8.2712 3.86089 8.43356 4.09461 8.68387 4.13411Z" fill="white"/>
<path d="M16.0302 7.30387C15.7291 5.58556 14.897 4.02195 13.6184 2.77765C12.3398 1.53335 10.733 0.723573 8.96734 0.430603C8.72041 0.38781 8.48701 0.5524 8.44304 0.792701C8.40245 1.03629 8.5682 1.26343 8.81851 1.30622C10.3948 1.56627 11.8324 2.29376 12.9757 3.40309C14.119 4.51572 14.8632 5.91474 15.1304 7.44871C15.1676 7.66597 15.3604 7.81739 15.5803 7.81739C15.6073 7.81739 15.631 7.8141 15.6581 7.81081C15.905 7.7746 16.0741 7.54417 16.0302 7.30387Z" fill="white"/>
</svg>
