<svg width="16" height="18" viewBox="0 0 16 18" fill="none" xmlns="http://www.w3.org/2000/svg">
<path d="M5.71875 3.34345C4.56043 3.34345 3.40247 3.34346 2.24427 3.34346C1.08614 4.50957 0.506506 15.0046 1.66482 16.1707C3.98108 16.7538 12.089 16.7538 14.4054 16.1707C15.5636 15.0046 14.9844 4.50958 13.8263 3.34346C12.9577 3.34347 11.5098 3.34345 10.3516 3.34345M5.71875 3.34345C5.71875 2.17734 5.13965 1.01123 6.29785 1.01123C7.45605 1.01123 8.61425 1.01123 9.77245 1.01123C10.9307 1.01123 10.3516 2.17734 10.3516 3.34345M5.71875 3.34345C6.87707 3.34345 9.19335 3.34345 10.3516 3.34345" stroke="white"/>
</svg>
