<svg width="14" height="18" viewBox="0 0 14 18" fill="none" xmlns="http://www.w3.org/2000/svg">
<path d="M1.36937 10.3099C1.70476 9.71793 2.52762 8.31828 2.52762 8.31828C2.52762 8.31828 1.73112 3.04055 2.52762 1.84559C3.32412 0.650631 4.51886 1.84559 4.51886 1.84559L5.51449 8.31828C5.51449 8.31828 6.51011 7.32248 7.00792 7.82038C7.00792 7.82038 7.50574 8.31828 8.00355 8.31828C8.50136 8.31828 8.00355 7.82038 8.99917 7.82038C9.49698 7.82038 9.9948 8.31828 9.9948 8.31828C9.9948 8.31828 10.1939 3.04055 10.9904 1.84559C11.7869 0.650631 12.6498 1.34769 12.9817 1.84559C13.3799 10.6086 11.4882 16.7826 11.4882 16.7826H3.02543C3.02543 16.7826 1.03418 12.3015 1.03418 11.3057C1.03418 11.01 1.17138 10.6593 1.36937 10.3099ZM1.36937 10.3099C2.75108 9.97795 5.71361 9.41366 6.51011 9.81198C7.30661 10.2103 6.51011 11.8036 6.51011 11.8036C6.51011 11.8036 4.31974 12.2019 3.52324 11.8036C4.18699 12.3015 5.31536 13.4964 4.51886 14.2931" stroke="white"/>
</svg>
