<svg width="16" height="17" viewBox="0 0 16 17" fill="none" xmlns="http://www.w3.org/2000/svg">
<path d="M13.1193 2.54822C13.1975 1.41429 13.0587 0.598621 12.7029 0.59864C11.5359 0.598705 4.53444 0.598606 3.36753 0.59864C3.01172 0.598651 2.87289 1.41431 2.95104 2.54822M13.1193 2.54822C13.8698 2.54822 15.0367 2.54822 15.0367 3.52306C15.0367 4.49791 15.0367 7.42231 12.2177 6.4475M13.1193 2.54822C13.0404 3.69408 12.7398 5.16494 12.2177 6.4475M12.2177 6.4475C11.5619 8.05818 10.5568 9.37188 9.20211 9.37191V13.2711H11.5359V14.2459H13.8698V16.1955H2.20061V14.2459H4.53444V13.2711H6.86828V9.37184C5.51362 9.37186 4.50843 8.05818 3.85271 6.4475M2.95104 2.54822C2.20061 2.54822 1.03369 2.54825 1.03369 3.52306C1.03369 4.49787 1.03369 7.42231 3.85271 6.4475M2.95104 2.54822C3.03002 3.69408 3.33057 5.16495 3.85271 6.4475" stroke="white"/>
</svg>
