<svg width="16" height="17" viewBox="0 0 16 17" fill="none" xmlns="http://www.w3.org/2000/svg">
<path d="M12.0923 10.889C11.5743 10.3729 10.9277 10.3729 10.4131 10.889C10.0205 11.2819 9.62795 11.6748 9.24197 12.0743C9.13641 12.1842 9.04733 12.2075 8.91867 12.1342C8.66465 11.9944 8.39414 11.8812 8.15001 11.728C7.01187 11.0055 6.05847 10.0766 5.21393 9.03118C4.79496 8.51179 4.42218 7.95577 4.16156 7.32984C4.10877 7.20332 4.11867 7.12008 4.22094 7.01687C4.61352 6.63398 4.9962 6.24111 5.38218 5.84824C5.91991 5.30221 5.91991 4.66296 5.37888 4.1136C5.07207 3.80063 4.76527 3.49432 4.45847 3.18135C4.14176 2.86173 3.82836 2.53877 3.50836 2.22247C2.99042 1.71307 2.34382 1.71307 1.82919 2.2258C1.43331 2.61868 1.05393 3.02154 0.651453 3.40776C0.278669 3.76401 0.0906275 4.20016 0.0510399 4.70957C-0.0116406 5.5386 0.189597 6.32102 0.473308 7.08346C1.05393 8.66161 1.93805 10.0633 3.01022 11.3485C4.45847 13.0864 6.18713 14.4615 8.2094 15.4537C9.11991 15.8998 10.0634 16.2428 11.0894 16.2994C11.7954 16.3393 12.409 16.1595 12.9005 15.6035C13.237 15.2239 13.6164 14.8777 13.9727 14.5148C14.5005 13.9754 14.5038 13.3228 13.9793 12.7901C13.3525 12.1542 12.7224 11.5216 12.0923 10.889Z" fill="white"/>
<path d="M11.4621 8.23541L12.6794 8.02566C12.4881 6.89698 11.9603 5.87484 11.1586 5.06246C10.3108 4.20679 9.2386 3.66742 8.05757 3.50095L7.88602 4.73617C8.79984 4.86602 9.63118 5.2822 10.2877 5.94476C10.9079 6.57069 11.3137 7.3631 11.4621 8.23541Z" fill="white"/>
<path d="M13.3657 2.89499C11.9603 1.47665 10.1822 0.581031 8.21929 0.304688L8.04774 1.53991C9.74341 1.77963 11.2807 2.55539 12.4948 3.7773C13.6461 4.93927 14.4016 6.40755 14.6754 8.02233L15.8927 7.81258C15.5727 5.94143 14.6985 4.24342 13.3657 2.89499Z" fill="white"/>
</svg>
