<svg width="16" height="16" viewBox="0 0 16 16" fill="none" xmlns="http://www.w3.org/2000/svg">
<path d="M8 0C3.58174 0 0 3.5817 0 8C0 12.4183 3.58174 16 8 16C12.4183 16 16 12.4183 16 8C16 3.5817 12.4183 0 8 0ZM4.90355 1.87397C4.76025 2.07245 4.62302 2.28558 4.49301 2.51397C4.2944 2.86281 4.11721 3.23832 3.96193 3.6352C3.6311 3.54412 3.30187 3.44185 2.97469 3.32821C3.52451 2.73715 4.17694 2.24275 4.90355 1.87397ZM2.14556 4.41822C2.61481 4.59434 3.08816 4.74872 3.56468 4.88152C3.36857 5.6583 3.24697 6.48899 3.20591 7.34663H1.16611C1.2672 6.28135 1.61251 5.28624 2.14556 4.41822ZM2.14556 11.5818C1.61247 10.7137 1.26716 9.71865 1.16611 8.65337H3.20591C3.24702 9.51102 3.36857 10.3417 3.56468 11.1185C3.08816 11.2513 2.61481 11.4057 2.14556 11.5818ZM2.97469 12.6718C3.30187 12.5582 3.6311 12.4558 3.96189 12.3648C4.11721 12.7617 4.2944 13.1372 4.49301 13.4861C4.62297 13.7144 4.76025 13.9276 4.90355 14.1261C4.17694 13.7573 3.52451 13.2629 2.97469 12.6718ZM7.34663 14.5259C6.50999 14.2122 5.76886 13.3119 5.25227 12.0688C5.94687 11.9406 6.6462 11.8612 7.34663 11.8308V14.5259ZM7.34663 10.5212C6.50773 10.5547 5.67024 10.6533 4.83926 10.8162C4.66859 10.1452 4.55586 9.416 4.51454 8.65333H7.34663V10.5212ZM7.34663 7.34663H4.51454C4.55586 6.58396 4.66859 5.85473 4.83926 5.18375C5.6702 5.34667 6.50773 5.44521 7.34663 5.47877V7.34663ZM7.34663 4.16915C6.6462 4.13875 5.94691 4.05941 5.25227 3.9312C5.76886 2.68808 6.50999 1.78782 7.34663 1.47401V4.16915ZM13.8545 4.41834C14.3875 5.28632 14.7328 6.2814 14.8338 7.34663H12.7941C12.753 6.48907 12.6314 5.65838 12.4353 4.88168C12.9119 4.74888 13.3853 4.59454 13.8545 4.41834ZM13.0254 3.32833C12.6983 3.44197 12.369 3.54433 12.0382 3.63536C11.8828 3.2384 11.7056 2.86281 11.507 2.51393C11.377 2.28558 11.2398 2.07241 11.0965 1.87393C11.8231 2.24279 12.4756 2.73723 13.0254 3.32833ZM8.65337 1.47405C9.49001 1.78782 10.2312 2.68821 10.7478 3.93141C10.0532 4.05957 9.35385 4.13887 8.65337 4.16923V1.47405ZM8.65337 5.47885C9.49235 5.44533 10.3299 5.34679 11.1608 5.18396C11.3314 5.85489 11.4441 6.58408 11.4855 7.34667H8.65337V5.47885ZM8.65337 8.65337H11.4855C11.4441 9.41596 11.3314 10.1451 11.1608 10.8161C10.3299 10.6532 9.49235 10.5547 8.65337 10.5211V8.65337ZM8.65337 14.5259V11.8308C9.35389 11.8612 10.0532 11.9405 10.7478 12.0687C10.2312 13.3118 9.49001 14.2122 8.65337 14.5259ZM11.0965 14.126C11.2398 13.9275 11.377 13.7144 11.507 13.486C11.7056 13.1371 11.8828 12.7616 12.0382 12.3646C12.369 12.4557 12.6982 12.558 13.0254 12.6717C12.4756 13.2628 11.8231 13.7572 11.0965 14.126ZM13.8545 11.5817C13.3853 11.4055 12.9119 11.2511 12.4354 11.1183C12.6314 10.3416 12.753 9.51093 12.7941 8.65337H14.8339C14.7328 9.71861 14.3875 10.7137 13.8545 11.5817Z" fill="white"/>
</svg>
