<svg width="165" height="200" viewBox="0 0 165 200" fill="none" xmlns="http://www.w3.org/2000/svg">
<path d="M119.048 87.0738C135.2 81.7604 164.787 60.4689 164.787 32.1399C164.787 18.2734 152.933 7.02829 138.911 8.15222C138.944 7.20385 138.994 6.26337 139.009 5.31251C139.009 3.90636 138.477 2.56246 137.478 1.56263C136.478 0.530836 135.134 0 133.728 0H31.0712C29.665 0 28.3211 0.530836 27.3213 1.56263C26.3214 2.56246 25.7902 3.90636 25.7902 5.31251C25.8039 6.25009 25.8271 7.19348 25.8558 8.15263C11.8374 7.04655 0 18.2796 0 32.1399C0 60.4755 29.6015 81.7708 45.7511 87.0771C51.819 97.1115 58.7452 104.369 66.3214 108.625C65.7274 110.875 65.634 112.906 65.634 112.937C65.634 113.031 65.9777 118.438 68.4464 121.125V128.907C61.3762 130.855 56.6584 134.154 55.0277 138.157H45.6337C43.8839 138.157 42.5088 139.563 42.5088 141.281V185.313H40.2274C38.4775 185.313 37.1025 186.719 37.1025 188.438V196.875C37.1025 198.594 38.4775 200 40.2274 200H124.571C126.29 200 127.696 198.594 127.696 196.875V188.438C127.696 186.719 126.29 185.313 124.571 185.313H122.29V141.281C122.29 139.562 120.884 138.157 119.166 138.157H109.744C108.121 134.154 103.423 130.855 96.3528 128.907V121.188C98.7904 118.531 99.1652 113.031 99.1652 112.937C99.1652 112.906 99.0402 110.875 98.4778 108.656C106.054 104.37 112.953 97.1095 119.048 87.0738ZM6.24968 32.1399C6.24968 22.298 14.2575 14.2902 24.0993 14.2902C24.7679 14.2902 25.4519 14.3371 26.1442 14.4222C26.2036 15.5001 26.25 16.5784 26.3206 17.6558C27.8338 40.5142 32.9318 61.4318 40.9566 78.2098C26.8104 70.9437 6.24968 53.9316 6.24968 32.1399ZM138.477 17.6558C138.547 16.5983 138.613 15.5262 138.672 14.4202C139.354 14.3371 140.028 14.2898 140.687 14.2898C150.529 14.2898 158.537 22.2976 158.537 32.1395C158.537 53.9237 137.991 70.9316 123.844 78.2027C131.867 61.4268 136.933 40.5112 138.477 17.6558ZM106.663 153.792V175.945H58.1235V153.792H106.663ZM95.9606 92.6013L92.3352 87.5108C96.4807 84.5566 100.629 79.674 104.33 73.3874C105.407 71.5567 106.427 69.652 107.359 67.7354C114.057 53.9565 118.464 35.7072 119.769 16.3439C119.828 15.4254 119.885 14.5007 119.937 13.5241L126.178 13.8474C126.126 14.8543 126.066 15.8035 126.005 16.7556C124.647 36.9095 120.022 55.9831 112.98 70.4668C111.977 72.5299 110.879 74.5807 109.718 76.5583C105.573 83.5957 100.816 89.1436 95.9606 92.6013Z" fill="#E9E9E9"/>
</svg>
