<svg width="191" height="200" viewBox="0 0 191 200" fill="none" xmlns="http://www.w3.org/2000/svg">
<rect width="190.476" height="200" fill="black" fill-opacity="0"/>
<rect width="190.476" height="113.073" fill="black" fill-opacity="0" transform="translate(0 9.52368)"/>
<path d="M190.476 12.4999C190.476 10.8563 189.143 9.52368 187.5 9.52368C185.856 9.52368 184.524 10.8563 184.524 12.4999V20.1029L172.619 30.8172L160.714 20.1029V12.4999C160.714 10.8563 159.382 9.52368 157.738 9.52368C156.094 9.52368 154.762 10.8563 154.762 12.4999V119.643C154.762 122.164 157.855 123.539 159.729 121.855L172.619 110.254L185.509 121.855C187.383 123.539 190.476 122.164 190.476 119.643V12.4999ZM160.714 51.9206L168.17 58.6308L160.714 65.341V51.9206ZM160.714 75.7301L168.17 82.4403L160.714 89.1505V75.7301ZM163.84 70.5356L172.619 62.6349L181.398 70.5356L172.619 78.4362L163.84 70.5356ZM184.524 65.341L177.068 58.6308L184.524 51.9206V65.341ZM184.524 75.7301V89.1505L177.068 82.4403L184.524 75.7301ZM172.619 54.6267L163.84 46.7261L172.619 38.8254L181.398 46.7261L172.619 54.6267ZM172.619 86.4444L181.398 94.3451L172.619 102.246L163.84 94.3451L172.619 86.4444ZM184.524 28.1111V41.5315L177.068 34.8213L184.524 28.1111ZM168.17 34.8213L160.714 41.5315V28.1111L168.17 34.8213ZM160.714 112.96V99.5397L168.17 106.25L160.714 112.96ZM184.524 99.5397V112.96L177.068 106.25L184.524 99.5397Z" fill="#E9E9E9"/>
<path d="M35.7143 12.4999C35.7143 10.8563 34.3817 9.52368 32.7381 9.52368C31.0945 9.52368 29.7619 10.8563 29.7619 12.4999V20.1029L17.8571 30.8172L5.95238 20.1029V12.4999C5.95238 10.8563 4.61979 9.52368 2.97619 9.52368C1.33259 9.52368 0 10.8563 0 12.4999V119.643C0 122.167 3.09263 123.535 4.96726 121.855L17.8571 110.254L30.747 121.855C32.6209 123.539 35.7143 122.164 35.7143 119.643V12.4999ZM5.95238 51.9206L13.4085 58.6308L5.95238 65.341V51.9206ZM5.95238 75.7301L13.4085 82.4403L5.95238 89.1505V75.7301ZM9.0785 70.5356L17.8571 62.6349L26.6358 70.5356L17.8571 78.4362L9.0785 70.5356ZM29.7619 65.341L22.3058 58.6308L29.7619 51.9206V65.341ZM29.7619 75.7301V89.1505L22.3058 82.4403L29.7619 75.7301ZM17.8571 54.6267L9.0785 46.7261L17.8571 38.8254L26.6358 46.7261L17.8571 54.6267ZM17.8571 86.4444L26.6358 94.3451L17.8571 102.246L9.0785 94.3451L17.8571 86.4444ZM29.7619 28.1111V41.5315L22.3058 34.8213L29.7619 28.1111ZM13.4085 34.8213L5.95238 41.5315V28.1111L13.4085 34.8213ZM5.95238 112.96V99.5397L13.4085 106.25L5.95238 112.96ZM29.7619 99.5397V112.96L22.3058 106.25L29.7619 99.5397Z" fill="#E9E9E9"/>
<path d="M137.23 84.9287L119.373 73.0239C118.395 72.3718 117.246 72.0239 116.071 72.0239H77.3806C76.0926 72.0239 74.8397 72.4417 73.8092 73.2144L49.9996 91.0715C46.936 93.3688 46.8627 98.0894 49.8523 100.482L64.7333 112.386C67.3002 114.44 71.0461 114.024 73.0997 111.457C75.1533 108.89 74.737 105.144 72.17 103.09L63.2891 95.9852L80.3568 83.9287V125.595H113.095V83.9287L127.424 92.6988L125.081 106.759C124.54 110.002 126.731 113.069 129.973 113.609C130.305 113.665 130.634 113.692 130.959 113.692C133.816 113.692 136.338 111.628 136.823 108.717L139.799 90.8599C140.185 88.5492 139.179 86.2278 137.23 84.9287Z" fill="#E9E9E9"/>
<path d="M135.926 110.633C132.683 110.093 130.493 107.026 131.033 103.783L133.377 89.7225L115.704 78.9062L113.095 83.5919V83.9286L127.424 92.6987L125.081 106.759C124.54 110.002 126.731 113.069 129.973 113.609C130.305 113.664 130.634 113.692 130.959 113.692C133.126 113.692 135.098 112.503 136.137 110.66C136.067 110.65 135.997 110.645 135.926 110.633Z" fill="#E9E9E9"/>
<path d="M86.3093 83.9285H80.3569V125.595H86.3093V83.9285Z" fill="#E9E9E9"/>
<path d="M58.7814 100.482C55.7914 98.0894 55.8651 93.3688 58.9287 91.0715L82.7382 73.2144C83.7687 72.4417 85.0217 72.0239 86.3097 72.0239H77.3811C76.0931 72.0239 74.8402 72.4417 73.8096 73.2144L50.0001 91.0715C46.9365 93.3688 46.8632 98.0894 49.8528 100.482L64.7338 112.386C67.2021 114.361 70.7553 114.046 72.8513 111.737L58.7814 100.482Z" fill="#E9E9E9"/>
<path d="M119.373 73.0239C118.396 72.3718 117.247 72.0239 116.072 72.0239H77.3812C76.0932 72.0239 74.8402 72.4417 73.8097 73.2144L60.1587 83.4529L68.3838 92.387L80.3574 83.9287V125.595H113.095V83.9287L122.93 89.948L129.647 79.8729L119.373 73.0239Z" fill="#E9E9E9"/>
<path d="M116.071 57.1428H81.5987C80.8019 58.9661 80.3569 60.9784 80.3569 63.0952H116.071C117.715 63.0952 119.047 61.7626 119.047 60.119C119.047 58.4754 117.715 57.1428 116.071 57.1428Z" fill="#E9E9E9"/>
<path d="M95.2379 77.9763C103.456 77.9763 110.119 71.3138 110.119 63.0953C110.119 54.8768 103.456 48.2144 95.2379 48.2144C87.0194 48.2144 80.3569 54.8768 80.3569 63.0953C80.3569 71.3138 87.0194 77.9763 95.2379 77.9763Z" fill="#E9E9E9"/>
<path d="M101.19 75C92.9719 75 86.3093 68.3374 86.3093 60.119C86.3093 55.4955 88.4179 51.3642 91.7264 48.635C85.2029 50.2139 80.3569 56.087 80.3569 63.0952C80.3569 71.3136 87.0195 77.9762 95.2379 77.9762C98.8328 77.9762 102.13 76.7012 104.702 74.5792C103.576 74.8519 102.4 75 101.19 75Z" fill="#E9E9E9"/>
<rect width="68.4524" height="80.3572" fill="black" fill-opacity="0" transform="translate(62.5 48.2144)"/>
<path d="M95.2379 48.2144C87.0195 48.2144 80.3569 54.8769 80.3569 63.0953H110.119C110.119 54.8769 103.456 48.2144 95.2379 48.2144Z" fill="#E9E9E9"/>
<path d="M65.4762 128.572C63.8326 128.572 62.5 127.239 62.5 125.595V119.643C62.5 117.999 63.8326 116.667 65.4762 116.667C67.1198 116.667 68.4524 117.999 68.4524 119.643V125.595C68.4524 127.239 67.1198 128.572 65.4762 128.572Z" fill="#E9E9E9"/>
<path d="M74.4049 128.572C72.7613 128.572 71.4287 127.239 71.4287 125.595V119.643C71.4287 117.999 72.7613 116.667 74.4049 116.667C76.0485 116.667 77.3811 117.999 77.3811 119.643V125.595C77.3811 127.239 76.0485 128.572 74.4049 128.572Z" fill="#E9E9E9"/>
<path d="M119.047 128.572C117.404 128.572 116.071 127.239 116.071 125.595V119.643C116.071 117.999 117.404 116.667 119.047 116.667C120.691 116.667 122.024 117.999 122.024 119.643V125.595C122.024 127.239 120.691 128.572 119.047 128.572Z" fill="#E9E9E9"/>
<path d="M127.976 128.572C126.333 128.572 125 127.239 125 125.595V119.643C125 117.999 126.333 116.667 127.976 116.667C129.62 116.667 130.952 117.999 130.952 119.643V125.595C130.952 127.239 129.62 128.572 127.976 128.572Z" fill="#E9E9E9"/>
<path d="M104.167 113.69H86.3097C84.6661 113.69 83.3335 115.023 83.3335 116.667V125.595C83.3335 127.239 84.6661 128.571 86.3097 128.571H104.167C105.81 128.571 107.143 127.239 107.143 125.595V116.667C107.143 115.023 105.81 113.69 104.167 113.69Z" fill="#E9E9E9"/>
<path d="M130.953 122.619H59.524C57.8804 122.619 56.5479 123.952 56.5479 125.595V137.5C56.5479 139.144 57.8804 140.476 59.524 140.476H130.953C132.596 140.476 133.929 139.144 133.929 137.5V125.595C133.929 123.952 132.596 122.619 130.953 122.619Z" fill="#E9E9E9"/>
<rect width="95.2383" height="65.4761" fill="black" fill-opacity="0" transform="translate(46.5029 134.524)"/>
<path fill-rule="evenodd" clip-rule="evenodd" d="M140.253 134.524H47.9912C47.1694 134.524 46.5029 135.856 46.5029 137.5V197.024C46.5029 198.667 47.1694 200 47.9912 200H140.253C141.075 200 141.741 198.667 141.741 197.024V137.5C141.741 135.856 141.075 134.524 140.253 134.524ZM122.024 146.428H68.4521C66.8086 146.428 65.4761 147.761 65.4761 149.405V161.309C65.4761 162.953 66.8086 164.286 68.4521 164.286H122.024C123.667 164.286 125 162.953 125 161.309V149.405C125 147.761 123.667 146.428 122.024 146.428ZM68.4521 170.238H122.024C123.667 170.238 125 171.571 125 173.214V185.119C125 186.763 123.667 188.095 122.024 188.095H68.4521C66.8086 188.095 65.4761 186.763 65.4761 185.119V173.214C65.4761 171.571 66.8086 170.238 68.4521 170.238Z" fill="#E9E9E9"/>
<path d="M142.857 197.024V119.643C142.857 117.999 144.19 116.667 145.833 116.667H139.881C138.237 116.667 136.905 117.999 136.905 119.643V197.024C136.905 198.667 138.237 200 139.881 200H145.833C144.19 200 142.857 198.667 142.857 197.024Z" fill="#E9E9E9"/>
<path d="M163.69 161.31C157.126 161.31 151.786 166.65 151.786 173.214C151.786 179.779 157.126 185.119 163.69 185.119C170.255 185.119 175.595 179.779 175.595 173.214C175.595 166.65 170.255 161.31 163.69 161.31Z" fill="#E9E9E9"/>
<path fill-rule="evenodd" clip-rule="evenodd" d="M187.5 116.667H139.881C138.237 116.667 136.905 117.999 136.905 119.643V197.024C136.905 198.667 138.237 200 139.881 200H187.5C189.144 200 190.476 198.667 190.476 197.024V119.643C190.476 117.999 189.144 116.667 187.5 116.667ZM163.69 155.357C153.844 155.357 145.833 163.367 145.833 173.214C145.833 183.061 153.844 191.071 163.69 191.071C173.538 191.071 181.548 183.061 181.548 173.214C181.548 163.367 173.538 155.357 163.69 155.357ZM151.786 137.5C151.786 130.935 157.126 125.595 163.69 125.595C170.255 125.595 175.595 130.935 175.595 137.5C175.595 144.064 170.255 149.405 163.69 149.405C157.126 149.405 151.786 144.064 151.786 137.5Z" fill="#E9E9E9"/>
<path d="M163.691 131.548C160.409 131.548 157.738 134.218 157.738 137.5C157.738 140.782 160.409 143.452 163.691 143.452C166.973 143.452 169.643 140.782 169.643 137.5C169.643 134.218 166.973 131.548 163.691 131.548Z" fill="#E9E9E9"/>
<path d="M5.95238 197.024V119.643C5.95238 117.999 7.28497 116.667 8.92857 116.667H2.97619C1.33259 116.667 0 117.999 0 119.643V197.024C0 198.667 1.33259 200 2.97619 200H8.92857C7.28497 200 5.95238 198.667 5.95238 197.024Z" fill="#E9E9E9"/>
<path d="M26.7856 161.31C20.2213 161.31 14.8809 166.65 14.8809 173.214C14.8809 179.779 20.2213 185.119 26.7856 185.119C33.35 185.119 38.6904 179.779 38.6904 173.214C38.6904 166.65 33.35 161.31 26.7856 161.31Z" fill="#E9E9E9"/>
<path fill-rule="evenodd" clip-rule="evenodd" d="M50.5952 116.667H2.97607C1.33252 116.667 0 117.999 0 119.643V197.024C0 198.667 1.33252 200 2.97607 200H50.5952C52.2388 200 53.5713 198.667 53.5713 197.024V119.643C53.5713 117.999 52.2388 116.667 50.5952 116.667ZM26.7856 125.595C20.2212 125.595 14.8809 130.936 14.8809 137.5C14.8809 144.064 20.2212 149.405 26.7856 149.405C33.3501 149.405 38.6904 144.064 38.6904 137.5C38.6904 130.936 33.3501 125.595 26.7856 125.595ZM8.92871 173.214C8.92871 163.368 16.939 155.357 26.7856 155.357C36.6328 155.357 44.6431 163.368 44.6431 173.214C44.6431 183.061 36.6328 191.072 26.7856 191.072C16.939 191.072 8.92871 183.061 8.92871 173.214Z" fill="#E9E9E9"/>
<path d="M26.7859 131.548C23.5039 131.548 20.8335 134.218 20.8335 137.5C20.8335 140.782 23.5039 143.452 26.7859 143.452C30.0679 143.452 32.7383 140.782 32.7383 137.5C32.7383 134.218 30.0679 131.548 26.7859 131.548Z" fill="#E9E9E9"/>
<path d="M53.5714 48.2144C51.9278 48.2144 50.5952 46.8818 50.5952 45.2382V24.4049C50.5952 23.3368 51.1674 22.351 52.0948 21.8208L72.9282 9.91606C74.8787 8.80184 77.3809 10.2598 77.3809 12.5001V36.3097C77.3809 37.9533 76.0483 39.2858 74.4047 39.2858C72.7611 39.2858 71.4285 37.9533 71.4285 36.3097V17.6285L56.5476 26.1318V45.2382C56.5476 46.8818 55.215 48.2144 53.5714 48.2144Z" fill="#E9E9E9"/>
<rect width="35.7143" height="20.8333" fill="black" fill-opacity="0" transform="translate(41.667 30.3572)"/>
<path d="M49.1075 51.1904C53.2167 51.1904 56.5479 48.5254 56.5479 45.238C56.5479 41.9506 53.2167 39.2856 49.1075 39.2856C44.9982 39.2856 41.667 41.9506 41.667 45.238C41.667 48.5254 44.9982 51.1904 49.1075 51.1904Z" fill="#E9E9E9"/>
<path d="M49.1075 48.2143C45.6417 48.2143 42.738 46.3158 41.911 43.75C41.7574 44.2266 41.667 44.7232 41.667 45.2381C41.667 48.5253 44.9981 51.1905 49.1075 51.1905C53.2168 51.1905 56.5479 48.5253 56.5479 45.2381C56.5479 44.7232 56.4575 44.2266 56.3039 43.75C55.4769 46.3158 52.5732 48.2143 49.1075 48.2143Z" fill="#E9E9E9"/>
<path d="M69.941 42.2619C74.0502 42.2619 77.3814 39.597 77.3814 36.3096C77.3814 33.0221 74.0502 30.3572 69.941 30.3572C65.8317 30.3572 62.5005 33.0221 62.5005 36.3096C62.5005 39.597 65.8317 42.2619 69.941 42.2619Z" fill="#E9E9E9"/>
<path d="M69.941 39.2858C66.4752 39.2858 63.5715 37.3874 62.7445 34.8215C62.5909 35.2981 62.5005 35.7947 62.5005 36.3096C62.5005 39.5968 65.8316 42.262 69.941 42.262C74.0503 42.262 77.3814 39.5968 77.3814 36.3096C77.3814 35.7947 77.291 35.2981 77.1374 34.8215C76.3104 37.3874 73.4067 39.2858 69.941 39.2858Z" fill="#E9E9E9"/>
<rect width="32.7382" height="41.6492" fill="black" fill-opacity="0" transform="translate(111.428)"/>
<path d="M141.19 38.673C139.547 38.673 138.214 37.3404 138.214 35.6968V19.2337L126.309 9.3129V20.8159C126.309 22.4595 124.977 23.7921 123.333 23.7921C121.69 23.7921 120.357 22.4595 120.357 20.8159V2.95873C120.357 0.48849 123.336 -0.912552 125.238 0.672269L143.095 15.5532C143.774 16.1187 144.166 16.9565 144.166 17.8397V35.6968C144.166 37.3404 142.834 38.673 141.19 38.673Z" fill="#E9E9E9"/>
<rect width="32.7381" height="26.7857" fill="black" fill-opacity="0" transform="translate(111.428 14.8635)"/>
<path d="M118.869 26.7683C122.978 26.7683 126.309 24.1033 126.309 20.8159C126.309 17.5285 122.978 14.8635 118.869 14.8635C114.759 14.8635 111.428 17.5285 111.428 20.8159C111.428 24.1033 114.759 26.7683 118.869 26.7683Z" fill="#E9E9E9"/>
<path d="M118.869 23.7922C115.403 23.7922 112.499 21.8937 111.672 19.3279C111.519 19.8044 111.428 20.3011 111.428 20.816C111.428 24.1032 114.759 26.7684 118.869 26.7684C122.978 26.7684 126.309 24.1032 126.309 20.816C126.309 20.3011 126.219 19.8044 126.065 19.3279C125.238 21.8937 122.334 23.7922 118.869 23.7922Z" fill="#E9E9E9"/>
<path d="M136.726 41.6491C140.835 41.6491 144.166 38.9842 144.166 35.6968C144.166 32.4094 140.835 29.7444 136.726 29.7444C132.616 29.7444 129.285 32.4094 129.285 35.6968C129.285 38.9842 132.616 41.6491 136.726 41.6491Z" fill="#E9E9E9"/>
<path d="M136.726 38.673C133.26 38.673 130.356 36.7746 129.529 34.2087C129.376 34.6853 129.285 35.182 129.285 35.6968C129.285 38.984 132.616 41.6492 136.726 41.6492C140.835 41.6492 144.166 38.984 144.166 35.6968C144.166 35.182 144.076 34.6853 143.922 34.2087C143.095 36.7746 140.191 38.673 136.726 38.673Z" fill="#E9E9E9"/>
</svg>
