<svg width="159" height="200" viewBox="0 0 159 200" fill="none" xmlns="http://www.w3.org/2000/svg">
<rect width="158.889" height="200" fill="black" fill-opacity="0"/>
<path d="M127.222 95C137.407 99.6296 145.185 105.926 150.556 113.889C156.111 121.667 158.889 130.833 158.889 141.389C158.889 153.241 155.556 163.611 148.889 172.5C142.407 181.389 133.148 188.241 121.111 193.056C109.074 197.685 95.0926 200 79.1667 200C63.2407 200 49.2593 197.685 37.2222 193.056C25.3704 188.241 16.2037 181.389 9.72222 172.5C3.24074 163.611 0 153.241 0 141.389C0 130.833 2.68518 121.667 8.05555 113.889C13.4259 105.926 21.1111 99.6296 31.1111 95C23.3333 90.7407 17.3148 85.1852 13.0556 78.3333C8.98148 71.2963 6.94444 63.2407 6.94444 54.1667C6.94444 43.2407 9.90741 33.7037 15.8333 25.5556C21.9444 17.4074 30.463 11.1111 41.3889 6.66667C52.3148 2.22222 64.9074 0 79.1667 0C93.6111 0 106.296 2.22222 117.222 6.66667C128.148 11.1111 136.667 17.4074 142.778 25.5556C148.889 33.7037 151.944 43.2407 151.944 54.1667C151.944 63.2407 149.815 71.2037 145.556 78.0555C141.296 84.9074 135.185 90.5556 127.222 95ZM79.1667 28.3333C67.8704 28.3333 58.8889 30.7407 52.2222 35.5556C45.7407 40.3704 42.5 47.1296 42.5 55.8333C42.5 64.1667 45.7407 70.8333 52.2222 75.8333C58.8889 80.6481 67.8704 83.0556 79.1667 83.0556C90.6481 83.0556 99.7222 80.6481 106.389 75.8333C113.056 70.8333 116.389 64.1667 116.389 55.8333C116.389 47.1296 112.963 40.3704 106.111 35.5556C99.4444 30.7407 90.463 28.3333 79.1667 28.3333ZM79.1667 171.667C92.5 171.667 103.056 168.889 110.833 163.333C118.611 157.778 122.5 150.093 122.5 140.278C122.5 130.648 118.611 123.056 110.833 117.5C103.056 111.944 92.5 109.167 79.1667 109.167C65.8333 109.167 55.3704 111.944 47.7778 117.5C40.1852 123.056 36.3889 130.648 36.3889 140.278C36.3889 150.093 40.1852 157.778 47.7778 163.333C55.3704 168.889 65.8333 171.667 79.1667 171.667Z" fill="#E9E9E9"/>
</svg>
