<svg width="44" height="76" viewBox="0 0 44 76" fill="none" xmlns="http://www.w3.org/2000/svg">
<path fill-rule="evenodd" clip-rule="evenodd" d="M42.8699 26.4101C42.7809 26.1893 42.6273 26.0005 42.4293 25.8685C42.2312 25.7364 41.998 25.6673 41.7599 25.6701H27.1999L41.6299 2.85004C41.7525 2.66834 41.8179 2.4542 41.8179 2.23505C41.8179 2.0159 41.7525 1.80176 41.6299 1.62006C41.5149 1.42904 41.352 1.2714 41.1573 1.16266C40.9626 1.05392 40.7429 0.997856 40.52 1.00006H20.79C20.5675 1.00038 20.3487 1.05746 20.1545 1.16596C19.9602 1.27445 19.7969 1.43078 19.68 1.62006L1.17993 38.6201C1.06244 38.8037 1 39.0171 1 39.235C1 39.453 1.06244 39.6664 1.17993 39.85C1.30731 40.0293 1.47304 40.178 1.66504 40.2852C1.85704 40.3925 2.07047 40.4556 2.28992 40.47H14.9999L1.17993 73.4001C1.08013 73.6666 1.07541 73.9594 1.1665 74.2291C1.2576 74.4987 1.43893 74.7287 1.67993 74.8801C1.86348 74.9889 2.07884 75.0312 2.28992 75.0001C2.65558 75.0108 3.01098 74.878 3.27997 74.6301L42.7399 27.7601C42.8817 27.5679 42.9687 27.3408 42.9916 27.1031C43.0145 26.8653 42.9724 26.6258 42.8699 26.4101ZM6.60992 66.7401L17.9599 39.6C18.0299 39.4184 18.0547 39.2224 18.032 39.029C18.0094 38.8356 17.94 38.6506 17.8299 38.4901C17.5756 38.2104 17.2262 38.0357 16.8499 38.0001H4.26996L21.53 3.47003H38.3L23.7499 26.2801C23.6277 26.4638 23.5624 26.6795 23.5624 26.9001C23.5624 27.1207 23.6277 27.3364 23.7499 27.5201C23.8676 27.708 24.0314 27.8627 24.2256 27.9694C24.4199 28.0762 24.6382 28.1315 24.8599 28.1301H39.17L6.60992 66.7401Z" fill="#FF0000" stroke="#FF0000" stroke-linejoin="round"/>
</svg>
