<svg width="220" height="205" viewBox="0 0 220 205" fill="none" xmlns="http://www.w3.org/2000/svg">
<rect width="51.7894" height="48" fill="black" fill-opacity="0" transform="scale(4.16667)"/>
<path fill-rule="evenodd" clip-rule="evenodd" d="M125.086 160.801C124.649 153.183 124.16 150.553 120.039 148.553C101.65 139.626 98.5388 134.668 97.9211 130.994C97.348 127.58 99.1454 124.429 102.891 122.701C105.596 121.457 108.335 121.233 110.537 121.055C111.653 120.963 113.337 120.827 113.712 120.582C113.786 120.487 115.462 118.126 111.838 103.888L111.501 102.561L111.918 101.256C112.025 100.917 114.639 92.8616 120.538 86.9781C125.992 81.5356 132.607 79.4946 139.668 81.0709C151.854 83.7935 157.478 94.8817 161.2 102.22C162.293 104.375 163.775 107.297 164.607 108.093C165.5 108.342 167.911 108.637 169.876 108.877C181.842 110.344 206.743 113.395 213.547 135.458C221.634 161.673 205.698 177.572 199.699 183.557L198.612 184.638C187.862 195.363 161.299 210.252 137.715 189.833C126.179 179.845 125.547 168.838 125.086 160.801Z" stroke="#E9E9E9" stroke-width="2" stroke-miterlimit="1.41421"/>
<path d="M120.312 117.429L131.069 106.699L48.4407 24.2642L37.6851 34.9947L120.312 117.429Z" fill="#E9E9E9"/>
<path d="M51.7892 28.6493C51.7892 28.6493 53.9577 25.6735 47.8554 20.9391C41.7532 16.2048 9.79449 4.2583 9.79449 4.2583C9.79449 4.2583 8.74025 6.85571 10.3885 14.4087L28.4415 34.2184L39.5848 35.6834L51.7892 28.6493Z" fill="#E9E9E9"/>
<path d="M2.00073 15.1907C4.66837 17.8508 8.99264 17.8508 11.6589 15.1907C14.3265 12.5293 14.3265 8.21372 11.6589 5.55368C8.99264 2.89226 4.66837 2.89226 2.00073 5.55368C-0.66691 8.21372 -0.66691 12.5293 2.00073 15.1907Z" fill="#E9E9E9"/>
<rect width="65.4843" height="95.5414" fill="black" fill-opacity="0" transform="translate(102.619 95.6125)"/>
<path d="M118.457 115.01L118.457 114.998C118.284 107.557 120.594 101.716 123.602 98.3701C125.104 96.6986 126.801 95.629 128.468 95.3259C130.154 95.0196 131.779 95.5041 133.07 96.8753L133.07 96.8754C135.812 99.7869 137.437 103.134 138.954 106.258C139.459 107.299 139.952 108.315 140.471 109.281C142.553 113.164 145.071 116.355 150.46 117.623L150.461 117.623C157.708 119.329 163.938 123.867 166.802 129.114C168.237 131.742 168.835 134.566 168.264 137.301C167.693 140.041 165.959 142.643 162.822 144.843C150.334 153.603 146.297 161.522 145.551 168.389C145.176 171.835 145.627 175.042 146.288 177.999C146.583 179.32 146.919 180.586 147.243 181.804C147.281 181.95 147.32 182.095 147.358 182.24C147.715 183.587 148.048 184.875 148.273 186.091M118.457 115.01L122.141 144.245M118.457 115.01L118.458 115.023C118.778 118.58 118.474 120.856 117.784 122.332C117.107 123.78 116.04 124.497 114.709 124.896C113.586 125.233 112.303 125.338 110.91 125.452C110.612 125.476 110.309 125.501 110.002 125.528C108.283 125.682 106.455 125.923 104.749 126.709M118.457 115.01L104.906 127.049M148.273 186.091L147.905 186.159L148.273 186.09C148.273 186.09 148.273 186.09 148.273 186.091ZM148.273 186.091C148.702 188.396 148.686 190.106 148.279 191.277L148.134 191.695L147.745 191.483C145.361 190.185 142.98 188.546 140.618 186.503L140.618 186.503C131.023 178.196 130.038 169.373 129.578 161.8C129.552 161.379 129.528 160.962 129.505 160.55C129.315 157.25 129.143 154.256 128.298 151.648C127.358 148.75 125.587 146.335 121.978 144.582M121.978 144.582L122.141 144.245M121.978 144.582C121.978 144.582 121.978 144.582 121.978 144.582L122.141 144.245M121.978 144.582C113.358 140.4 107.484 136.775 104.524 133.822C103.054 132.355 102.228 130.982 102.244 129.731C102.262 128.43 103.178 127.432 104.749 126.709M122.141 144.245C104.906 135.881 98.848 129.837 104.906 127.049M104.749 126.709L104.906 127.049M104.749 126.709C104.749 126.709 104.749 126.709 104.749 126.709L104.906 127.049M152.101 146.327L152.101 146.327C151.468 146.959 150.443 146.959 149.809 146.327L149.809 146.327L144.843 141.375C144.843 141.375 144.843 141.375 144.843 141.375C144.21 140.744 144.21 139.72 144.843 139.088C144.843 139.088 144.843 139.088 144.843 139.088L152.778 131.175L152.778 131.175C153.411 130.543 154.436 130.543 155.07 131.175L155.07 131.175L160.036 136.126C160.036 136.126 160.036 136.126 160.036 136.126C160.67 136.761 160.669 137.782 160.036 138.414C160.036 138.414 160.036 138.414 160.036 138.414L152.101 146.327ZM144.428 122.507L144.428 122.506C145.021 121.912 145.989 121.911 146.586 122.507L147.549 123.468C147.549 123.468 147.549 123.468 147.549 123.468C148.142 124.063 148.142 125.024 147.549 125.619C147.549 125.619 147.549 125.619 147.549 125.619L139.381 133.768C138.784 134.361 137.815 134.361 137.218 133.769C137.218 133.769 137.218 133.769 137.218 133.768L136.259 132.808L136.258 132.807C135.663 132.216 135.662 131.252 136.258 130.657L144.428 122.507ZM132.807 127.211L132.806 127.212C132.214 127.806 131.246 127.807 130.649 127.211L129.689 126.253C129.092 125.658 129.093 124.694 129.688 124.103L129.689 124.103L137.855 115.953C138.451 115.358 139.416 115.357 140.016 115.953C140.016 115.953 140.016 115.953 140.017 115.953L140.976 116.911C141.573 117.506 141.573 118.47 140.976 119.064C140.976 119.064 140.976 119.064 140.976 119.064L132.807 127.211ZM131.285 109.395L131.286 109.394C131.879 108.8 132.846 108.799 133.443 109.395L134.406 110.356C134.406 110.356 134.406 110.356 134.406 110.356C135 110.951 135 111.912 134.406 112.507C134.406 112.507 134.406 112.507 134.406 112.507L126.237 120.657C125.641 121.252 124.673 121.252 124.076 120.657L123.116 119.699C122.52 119.104 122.52 118.14 123.116 117.545L131.285 109.395Z" fill="#E9E9E9" stroke="#E9E9E9" stroke-width="0.75"/>
<path d="M41.0657 13.0939C40.5944 14.2027 41.1131 15.4813 42.2231 15.9515C43.3345 16.4203 44.616 15.9028 45.0874 14.7953C45.5587 13.6865 45.04 12.408 43.9286 11.9378C42.8186 11.4689 41.5356 11.9865 41.0657 13.0939Z" fill="#E9E9E9"/>
<path d="M43.0772 13.9438L41.3452 18.0215" stroke="#E9E9E9" stroke-miterlimit="1.41421"/>
<path d="M34.1095 10.1528C33.6396 11.2616 34.1569 12.5401 35.2683 13.0103C36.3797 13.4792 37.6612 12.9616 38.1326 11.8542C38.6025 10.7454 38.0838 9.46684 36.9738 8.99661C35.8624 8.52776 34.5809 9.04533 34.1095 10.1528Z" fill="#E9E9E9"/>
<path fill-rule="evenodd" clip-rule="evenodd" d="M36.1206 11.0029L34.3887 15.0806L36.1206 11.0029Z" fill="#E9E9E9"/>
<path d="M27.156 7.21194C26.6847 8.32075 27.2034 9.59791 28.3134 10.0681C29.4248 10.5384 30.7064 10.0209 31.1763 8.91204C31.6476 7.80462 31.1289 6.52469 30.0175 6.05724C28.9075 5.587 27.626 6.10452 27.156 7.21194Z" fill="#E9E9E9"/>
<path fill-rule="evenodd" clip-rule="evenodd" d="M29.1651 8.06201L27.4331 12.1397L29.1651 8.06201Z" fill="#E9E9E9"/>
<path d="M20.1993 4.26935C19.7279 5.37816 20.2481 6.65668 21.3581 7.12691C22.4681 7.59715 23.751 7.07962 24.2209 5.97081C24.6923 4.86339 24.1735 3.58345 23.0635 3.1146C21.9521 2.64437 20.6706 3.16193 20.1993 4.26935Z" fill="#E9E9E9"/>
<path fill-rule="evenodd" clip-rule="evenodd" d="M22.211 5.12085L20.479 9.19714L22.211 5.12085Z" fill="#E9E9E9"/>
<path d="M13.2444 1.32839C12.7731 2.4372 13.2918 3.71577 14.4018 4.186C15.5132 4.65624 16.7948 4.13867 17.2661 3.02986C17.7374 1.92244 17.2187 0.642535 16.1073 0.173691C14.9973 -0.296545 13.7143 0.220974 13.2444 1.32839Z" fill="#E9E9E9"/>
<path fill-rule="evenodd" clip-rule="evenodd" d="M15.2539 2.17847L13.522 6.25616L15.2539 2.17847Z" fill="#E9E9E9"/>
<path d="M169.695 149.636L179.607 159.002L173.684 171.271L185.673 164.763L195.541 174.175L193.042 160.786L205.062 154.333L191.527 152.566L189.09 139.166L183.225 151.464L169.695 149.636Z" fill="#E9E9E9"/>
</svg>
