<svg width="80" height="70" viewBox="0 0 80 70" fill="none" xmlns="http://www.w3.org/2000/svg">
<path fill-rule="evenodd" clip-rule="evenodd" d="M73.2383 6.88046C71.3481 4.70324 69.0091 2.96102 66.3818 1.77341C63.7546 0.585793 60.9014 -0.0190738 58.0182 0.000458407C49.6942 0.000458407 44.4242 4.9905 41.4682 9.1705C40.7455 10.1943 40.0888 11.2631 39.5022 12.3705C38.9156 11.2628 38.2586 10.194 37.5352 9.1705C34.5802 4.9905 29.3102 0.000458407 20.9862 0.000458407C18.1031 -0.0190738 15.2499 0.585793 12.6227 1.77341C9.9954 2.96102 7.65633 4.70324 5.76621 6.88046C1.97158 11.3207 -0.0772481 16.9902 0.00222839 22.8304C0.00222839 29.4204 2.56825 35.5505 8.07926 42.1305C13.0033 48.0005 20.0882 54.0604 28.2922 61.0704C31.3492 63.6804 34.5112 66.3804 37.8763 69.3404L37.9762 69.4305C38.3991 69.798 38.9405 70.0003 39.5007 70.0003C40.061 70.0003 40.6024 69.798 41.0252 69.4305L41.1252 69.3404C44.4912 66.3804 47.6532 63.6804 50.7102 61.0704C58.9102 54.0604 65.9993 48.0005 70.9232 42.1305C76.4342 35.5505 79.0002 29.4204 79.0002 22.8304C79.0802 16.9904 77.0322 11.321 73.2383 6.88046ZM47.7092 57.5305C45.0742 59.7905 42.3622 62.1004 39.5022 64.6004C36.6422 62.1104 33.9302 59.7905 31.2942 57.5305C15.2382 43.8105 4.63126 34.7504 4.63126 22.8304C4.55401 18.1174 6.19117 13.5367 9.23825 9.9404C10.7 8.26398 12.5062 6.92269 14.5337 6.00803C16.5611 5.09336 18.7621 4.62693 20.9862 4.64047C27.3322 4.64047 31.4352 8.56043 33.7582 11.8504C35.2729 14.0246 36.4662 16.4058 37.3012 18.9205C37.4521 19.3852 37.7462 19.7901 38.1414 20.0774C38.5366 20.3646 39.0127 20.5194 39.5013 20.5194C39.9898 20.5194 40.4658 20.3646 40.8611 20.0774C41.2563 19.7901 41.5504 19.3852 41.7012 18.9205C42.5367 16.406 43.73 14.0248 45.2442 11.8504C47.5682 8.56043 51.6702 4.64047 58.0172 4.64047C60.2413 4.62688 62.442 5.09336 64.4693 6.00803C66.4966 6.9227 68.3027 8.26396 69.7643 9.9404C72.8121 13.5364 74.4496 18.1172 74.3722 22.8304C74.3732 34.7504 63.7662 43.8105 47.7092 57.5305Z" fill="#FF0000"/>
</svg>
