<svg width="64" height="71" viewBox="0 0 64 71" fill="none" xmlns="http://www.w3.org/2000/svg">
<path fill-rule="evenodd" clip-rule="evenodd" d="M63.9998 15.6379V2.00794C63.9995 1.69255 63.9253 1.38161 63.7828 1.10022C63.6404 0.818829 63.4338 0.574855 63.1798 0.387941C62.9229 0.203241 62.6268 0.0800986 62.3147 0.0280781C62.0026 -0.0239424 61.6827 -0.00349573 61.3798 0.0878926L20.8098 12.9879C20.4046 13.1195 20.0516 13.3762 19.8018 13.7213C19.5519 14.0664 19.4183 14.482 19.4198 14.908V54.648C17.0622 53.1151 14.3002 52.3219 11.4885 52.37C8.67682 52.4181 5.9436 53.3054 3.63977 54.918C2.52088 55.6578 1.60282 56.6633 0.967651 57.8447C0.332478 59.0262 0 60.3465 0 61.6879C0 63.0292 0.332478 64.3497 0.967651 65.5311C1.60282 66.7126 2.52088 67.7181 3.63977 68.4579C6.00793 70.1113 8.8265 70.9979 11.7147 70.9979C14.6029 70.9979 17.4216 70.1113 19.7898 68.4579C20.8879 67.6969 21.7902 66.6868 22.4229 65.5101C23.0555 64.3334 23.4006 63.0235 23.4298 61.6879V30.028L59.9897 18.3879V41.6879C57.6321 40.1551 54.8702 39.3618 52.0585 39.4099C49.2468 39.458 46.5135 40.3453 44.2097 41.9579C43.0908 42.6977 42.1728 43.7033 41.5376 44.8848C40.9024 46.0662 40.5699 47.3866 40.5699 48.7279C40.5699 50.0693 40.9024 51.3897 41.5376 52.5712C42.1728 53.7526 43.0908 54.7581 44.2097 55.4979C46.5779 57.1513 49.3966 58.0378 52.2848 58.0378C55.173 58.0378 57.9916 57.1513 60.3597 55.4979C61.4586 54.7378 62.3615 53.7278 62.9943 52.5509C63.627 51.374 63.9717 50.0638 63.9998 48.7279V15.6379ZM11.7097 66.9779C7.53972 66.9779 4.00977 64.5579 4.00977 61.6879C4.00977 58.8179 7.53972 56.3879 11.7097 56.3879C15.8797 56.3879 19.4198 58.8079 19.4198 61.6879C19.4198 64.5679 15.8897 66.9779 11.7097 66.9779ZM23.4298 25.798V16.3679L59.9897 4.74793V14.178L23.4298 25.798ZM52.2998 54.0179C48.1198 54.0179 44.5997 51.5979 44.5997 48.7279C44.5997 45.8579 48.1198 43.428 52.2998 43.428C56.4798 43.428 59.9998 45.8479 59.9998 48.7279C59.9998 51.6079 56.4598 54.0179 52.2998 54.0179Z" fill="#FF0000"/>
</svg>
