<svg width="196" height="200" viewBox="0 0 196 200" fill="none" xmlns="http://www.w3.org/2000/svg">
<rect width="195.91" height="200" fill="black" fill-opacity="0"/>
<rect width="195.91" height="200" fill="black" fill-opacity="0"/>
<rect width="47.0184" height="48" fill="black" fill-opacity="0" transform="scale(4.16667)"/>
<rect width="47.0184" height="48" fill="black" fill-opacity="0" transform="scale(4.16667)"/>
<path d="M119.001 128H116.912V146H119.001C123.418 146 127 141.97 127 136.999C127 132.029 123.418 128 119.001 128Z" fill="#E9E9E9"/>
<path d="M76.9994 128C72.5809 128 69 132.029 69 136.999C69 141.97 72.5809 146 76.9994 146H79.0869V128H76.9994Z" fill="#E9E9E9"/>
<path d="M126.484 136.981V162.765C126.484 172.078 118.933 179.629 109.618 179.629H86.2917C76.9771 179.629 69.4272 172.078 69.4272 162.765V136.981" stroke="#E9E9E9" stroke-miterlimit="1.41421"/>
<path d="M87.7532 112.642H76.1113V108.48H87.7532C88.5619 108.48 89.2179 109.136 89.2179 109.946V111.176C89.2179 111.986 88.5619 112.642 87.7532 112.642Z" fill="#E9E9E9"/>
<path d="M87.7532 123.043H76.1113V118.883H87.7532C88.5619 118.883 89.2179 119.539 89.2179 120.348V121.578C89.2179 122.388 88.5619 123.043 87.7532 123.043Z" fill="#E9E9E9"/>
<path d="M87.7532 133.445H76.1113V129.284H87.7532C88.5619 129.284 89.2179 129.94 89.2179 130.749V131.981C89.2179 132.789 88.5619 133.445 87.7532 133.445Z" fill="#E9E9E9"/>
<path d="M87.7532 143.847H76.1113V139.687H87.7532C88.5619 139.687 89.2179 140.341 89.2179 141.151V142.382C89.2179 143.191 88.5619 143.847 87.7532 143.847Z" fill="#E9E9E9"/>
<path d="M108.158 139.687H119.798V143.847H108.158C107.349 143.847 106.692 143.191 106.692 142.382V141.151C106.692 140.341 107.349 139.687 108.158 139.687Z" fill="#E9E9E9"/>
<path d="M108.158 129.284H119.798V133.445H108.158C107.349 133.445 106.692 132.789 106.692 131.981V130.749C106.692 129.94 107.349 129.284 108.158 129.284Z" fill="#E9E9E9"/>
<path d="M108.158 118.883H119.798V123.043H108.158C107.349 123.043 106.692 122.388 106.692 121.578V120.348C106.692 119.539 107.349 118.883 108.158 118.883Z" fill="#E9E9E9"/>
<path d="M108.158 108.48H119.798V112.642H108.158C107.349 112.642 106.692 111.986 106.692 111.176V109.946C106.692 109.136 107.349 108.48 108.158 108.48Z" fill="#E9E9E9"/>
<rect width="43.6894" height="24.5562" fill="black" fill-opacity="0" transform="translate(76.1104 148.416)"/>
<path d="M107.941 160.274C114.491 160.274 119.8 154.964 119.8 148.416V161.114C119.8 167.242 115.153 172.283 109.191 172.907V169.601C109.191 168.791 108.534 168.135 107.724 168.135H106.493C105.686 168.135 105.029 168.791 105.029 169.601V172.972H100.034V164.608C100.034 163.799 99.3804 163.142 98.5708 163.142H97.3393C96.5297 163.142 95.873 163.799 95.873 164.608V172.972H90.8809V169.601C90.8809 168.791 90.2269 168.135 89.4173 168.135H88.1858C87.3762 168.135 86.7222 168.791 86.7222 169.601V172.907C80.7596 172.283 76.1104 167.242 76.1104 161.114V148.416C76.1104 154.964 81.4215 160.274 87.9695 160.274H107.941Z" fill="#E9E9E9"/>
<path d="M105.028 82.7279V79.3557H109.19V82.7279C109.19 83.5367 108.534 84.1927 107.724 84.1927H106.493C105.684 84.1927 105.028 83.5367 105.028 82.7279Z" fill="#E9E9E9"/>
<path d="M86.7212 82.7279V79.3557H90.8812V82.7279C90.8812 83.5367 90.2264 84.1927 89.4166 84.1927H88.1859C87.3772 84.1927 86.7212 83.5367 86.7212 82.7279Z" fill="#E9E9E9"/>
<path d="M106.539 185.869H89.3701C87.6757 185.869 86.3022 184.496 86.3022 182.801V179.629H109.607V182.801C109.607 184.496 108.233 185.869 106.539 185.869Z" fill="#E9E9E9"/>
<path d="M97.9556 182.75V195.752" stroke="#E9E9E9" stroke-width="3" stroke-miterlimit="1.41421"/>
<path d="M111.685 200H84.2246V195.049C84.2246 193.607 85.3926 192.439 86.8343 192.439H109.075C110.517 192.439 111.685 193.607 111.685 195.049V200Z" fill="#E9E9E9"/>
<rect width="195.91" height="186.323" fill="black" fill-opacity="0"/>
<path d="M86.5507 79.3555C80.7833 79.3555 76.1103 84.0288 76.1103 89.7944V158.07L37.4156 186.323L60.7463 115.087L0 71.1683L74.9579 71.3432L97.9563 0L120.952 71.3432L195.91 71.1683L135.166 115.087L158.494 186.323L119.8 158.07V89.7944C119.8 84.0288 115.124 79.3555 109.359 79.3555H86.5507ZM126.485 136.981C126.485 138.36 125.364 139.478 123.987 139.478C122.608 139.478 121.49 138.36 121.49 136.981C121.49 135.602 122.608 134.485 123.987 134.485C125.364 134.485 126.485 135.602 126.485 136.981ZM75.1214 136.981C75.1214 138.36 74.0006 139.478 72.624 139.478C71.2448 139.478 70.1266 138.36 70.1266 136.981C70.1266 135.602 71.2448 134.485 72.624 134.485C74.0006 134.485 75.1214 135.602 75.1214 136.981Z" fill="#E9E9E9"/>
<path d="M97.9555 84.4958L100.64 92.8259L109.393 92.8061L102.3 97.9342L105.024 106.251L97.9555 101.091L90.8858 106.251L93.6108 97.9342L86.5181 92.8061L95.27 92.8259L97.9555 84.4958Z" fill="#E9E9E9"/>
</svg>
