<svg width="76" height="72" viewBox="0 0 76 72" fill="none" xmlns="http://www.w3.org/2000/svg">
<path fill-rule="evenodd" clip-rule="evenodd" d="M74.9017 27.21C74.7811 26.8401 74.5605 26.5108 74.2643 26.2584C73.9682 26.0061 73.608 25.8405 73.2237 25.78L49.8237 22.4399L39.2947 1.16003C39.1224 0.81289 38.8568 0.520533 38.5278 0.315674C38.1988 0.110815 37.8193 0.00149754 37.4317 0C37.0417 0.00130171 36.66 0.112765 36.3306 0.321533C36.0011 0.530301 35.7374 0.827932 35.5697 1.18005L25.1787 22.52L1.77869 26.02C1.39345 26.0766 1.0318 26.2401 0.734866 26.4919C0.437929 26.7438 0.217654 27.074 0.0990017 27.4448C-0.0196503 27.8157 -0.0319261 28.2124 0.0636623 28.5898C0.159251 28.9673 0.35885 29.3103 0.639712 29.58L17.6187 46.12L13.6927 69.55C13.6409 69.8495 13.6549 70.1565 13.7337 70.45C13.8125 70.7434 13.9543 71.0162 14.1492 71.2494C14.3441 71.4825 14.5874 71.6704 14.8622 71.8C15.1371 71.9297 15.4369 71.9979 15.7407 72C16.0798 72.0014 16.4136 71.9153 16.7097 71.75L37.5997 60.62L58.5497 71.63C58.8464 71.7784 59.173 71.857 59.5047 71.86C60.0568 71.8563 60.585 71.6345 60.9742 71.243C61.3635 70.8515 61.5822 70.3221 61.5827 69.77C61.5854 69.6079 61.5645 69.4462 61.5207 69.29L57.4737 46L74.3447 29.36C74.6341 29.0929 74.8404 28.7481 74.9392 28.3668C75.038 27.9856 75.025 27.584 74.9017 27.21ZM53.8127 43.78C53.5705 44.0186 53.3905 44.3128 53.2885 44.6371C53.1865 44.9614 53.1657 45.3058 53.2277 45.64L56.7527 65.96L38.5527 56.41C38.253 56.2548 37.9203 56.1737 37.5827 56.1737C37.2451 56.1737 36.9125 56.2548 36.6127 56.41L18.4797 66.0699L21.8797 45.72C21.9352 45.3876 21.9096 45.0468 21.8052 44.7264C21.7007 44.4061 21.5205 44.1158 21.2797 43.88L6.56372 29.51L26.8637 26.48C27.1956 26.4294 27.5104 26.2993 27.7811 26.1008C28.0519 25.9023 28.2706 25.6413 28.4187 25.34L37.4397 6.81006L46.5827 25.29C46.7326 25.5929 46.9538 25.8549 47.2272 26.0535C47.5007 26.252 47.8183 26.3813 48.1527 26.4301L68.4727 29.34L53.8127 43.78Z" fill="#FF0000"/>
</svg>
