<svg width="18" height="99" viewBox="0 0 18 99" fill="none" xmlns="http://www.w3.org/2000/svg">
<path d="M13.6 0.333577L13.6 10.5036L11.278 10.5036L11.278 3.23158L8.686 3.23158L8.686 6.72358C8.686 8.24758 8.368 9.40558 7.732 10.1976C7.096 11.0016 6.178 11.4036 4.978 11.4036C3.718 11.4036 2.74 10.9596 2.044 10.0716C1.348 9.18358 0.999999 7.92958 0.999999 6.30958L0.999999 0.333576L13.6 0.333577ZM3.16 6.14758C3.16 6.89158 3.304 7.46158 3.592 7.85758C3.892 8.25358 4.324 8.45158 4.888 8.45158C5.992 8.45158 6.544 7.68358 6.544 6.14758L6.544 3.23158L3.16 3.23158L3.16 6.14758ZM3.7 22.0492L3.7 16.1992L0.999998 15.0832L0.999998 12.0952L13.6 17.7112L13.6 20.5912L0.999998 26.2252L0.999998 23.1652L3.7 22.0492ZM5.914 21.1312L10.738 19.1332L5.914 17.1352L5.914 21.1312ZM7.57 35.0601C7.318 35.7921 6.922 36.3621 6.382 36.7701C5.854 37.1901 5.236 37.4001 4.528 37.4001C3.76 37.4001 3.094 37.1481 2.53 36.6441C1.966 36.1401 1.534 35.4561 1.234 34.5921C0.933997 33.7401 0.783997 32.8041 0.783998 31.7841C0.783998 30.9201 0.891998 30.0561 1.108 29.1921C1.324 28.3401 1.654 27.5301 2.098 26.7621L4.186 27.6621C3.85 28.2141 3.592 28.8201 3.412 29.4801C3.244 30.1521 3.16 30.8061 3.16 31.4421C3.16 32.3061 3.316 33.0201 3.628 33.5841C3.94 34.1601 4.378 34.4481 4.942 34.4481C5.41 34.4481 5.764 34.2501 6.004 33.8541C6.244 33.4701 6.364 32.9421 6.364 32.2701L6.364 29.1921L8.56 29.1921L8.56 32.0541C8.56 32.6421 8.68 33.0981 8.92 33.4221C9.16 33.7581 9.49 33.9261 9.91 33.9261C10.402 33.9261 10.786 33.6861 11.062 33.2061C11.338 32.7381 11.476 32.1321 11.476 31.3881C11.476 30.8361 11.398 30.2661 11.242 29.6781C11.098 29.0901 10.876 28.5321 10.576 28.0041L12.844 27.1221C13.528 28.4541 13.87 29.8941 13.87 31.4421C13.87 32.4261 13.726 33.3321 13.438 34.1601C13.15 34.9881 12.73 35.6481 12.178 36.1401C11.626 36.6321 10.984 36.8781 10.252 36.8781C9.652 36.8781 9.118 36.7161 8.65 36.3921C8.182 36.0681 7.822 35.6241 7.57 35.0601ZM0.783997 45.7206C0.783997 44.4126 1.066 43.2306 1.63 42.1746C2.194 41.1306 2.968 40.3086 3.952 39.7086C4.948 39.1206 6.064 38.8266 7.3 38.8266C8.536 38.8266 9.646 39.1206 10.63 39.7086C11.626 40.3086 12.406 41.1306 12.97 42.1746C13.534 43.2306 13.816 44.4126 13.816 45.7206C13.816 47.0286 13.534 48.2046 12.97 49.2486C12.406 50.2926 11.626 51.1146 10.63 51.7146C9.646 52.3146 8.536 52.6146 7.3 52.6146C6.064 52.6146 4.948 52.3146 3.952 51.7146C2.968 51.1146 2.194 50.2926 1.63 49.2486C1.066 48.2046 0.783997 47.0286 0.783997 45.7206ZM3.268 45.7206C3.268 46.4646 3.436 47.1366 3.772 47.7366C4.12 48.3366 4.6 48.8046 5.212 49.1406C5.824 49.4886 6.52 49.6626 7.3 49.6626C8.08 49.6626 8.776 49.4886 9.388 49.1406C10 48.8046 10.474 48.3366 10.81 47.7366C11.158 47.1366 11.332 46.4646 11.332 45.7206C11.332 44.9766 11.158 44.3046 10.81 43.7046C10.474 43.1046 10 42.6306 9.388 42.2826C8.776 41.9466 8.08 41.7786 7.3 41.7786C6.52 41.7786 5.824 41.9466 5.212 42.2826C4.6 42.6306 4.12 43.1046 3.772 43.7046C3.436 44.3046 3.268 44.9766 3.268 45.7206ZM7.57 63.5909C7.342 64.3589 6.97 64.9469 6.454 65.3549C5.938 65.7629 5.302 65.9669 4.546 65.9669C3.43 65.9669 2.56 65.5409 1.936 64.6889C1.312 63.8489 0.999996 62.6429 0.999996 61.0709L0.999997 54.8609L13.6 54.8609L13.6 60.7289C13.6 62.1929 13.318 63.3329 12.754 64.1489C12.19 64.9649 11.386 65.3729 10.342 65.3729C9.718 65.3729 9.166 65.2169 8.686 64.9049C8.218 64.5929 7.846 64.1549 7.57 63.5909ZM8.38 57.7589L8.38 60.4769C8.38 61.1129 8.506 61.5929 8.758 61.9169C9.022 62.2409 9.406 62.4029 9.91 62.4029C10.402 62.4029 10.78 62.2349 11.044 61.8989C11.308 61.5749 11.44 61.1009 11.44 60.4769L11.44 57.7589L8.38 57.7589ZM3.16 60.9629C3.16 62.3309 3.7 63.0149 4.78 63.0149C5.824 63.0149 6.346 62.3309 6.346 60.9629L6.346 57.7589L3.16 57.7589L3.16 60.9629ZM9.46 74.375C9.46 75.911 9.118 77.087 8.434 77.903C7.75 78.731 6.736 79.145 5.392 79.145C3.964 79.145 2.872 78.689 2.116 77.777C1.372 76.877 0.999996 75.605 0.999996 73.961L0.999996 68.273L13.6 68.273L13.6 71.171L9.46 71.171L9.46 74.375ZM3.16 73.799C3.16 74.555 3.346 75.143 3.718 75.563C4.09 75.995 4.63 76.211 5.338 76.211C6.646 76.211 7.3 75.407 7.3 73.799L7.3 71.171L3.16 71.171L3.16 73.799ZM13.6 80.747L13.6 83.645L0.999995 83.645L0.999995 80.747L13.6 80.747ZM13.6 86.7828L13.6 89.6808L5.392 89.6808L13.6 95.6928L13.6 98.4288L0.999995 98.4288L0.999995 95.5488L9.18999 95.5488L0.999995 89.5368L0.999995 86.7828L13.6 86.7828ZM14.41 92.5968C14.41 90.2928 15.328 89.1288 17.164 89.1048L17.164 91.1028C16.288 91.1268 15.85 91.6248 15.85 92.5968C15.85 93.0768 15.958 93.4428 16.174 93.6948C16.402 93.9468 16.732 94.0788 17.164 94.0908L17.164 96.0888C16.264 96.0768 15.58 95.7828 15.112 95.2068C14.644 94.6308 14.41 93.7608 14.41 92.5968Z" fill="black"/>
</svg>
