<svg width="18" height="162" viewBox="0 0 18 162" fill="none" xmlns="http://www.w3.org/2000/svg">
<path d="M0.783999 7.40026C0.783999 6.09226 1.066 4.91026 1.63 3.85426C2.194 2.81026 2.968 1.98826 3.952 1.38826C4.948 0.800264 6.064 0.506264 7.3 0.506264C8.536 0.506264 9.646 0.800264 10.63 1.38826C11.626 1.98826 12.406 2.81026 12.97 3.85426C13.534 4.91026 13.816 6.09226 13.816 7.40026C13.816 8.70826 13.534 9.88426 12.97 10.9283C12.406 11.9723 11.626 12.7943 10.63 13.3943C9.646 13.9943 8.536 14.2943 7.3 14.2943C6.064 14.2943 4.948 13.9943 3.952 13.3943C2.968 12.7943 2.194 11.9723 1.63 10.9283C1.066 9.88426 0.783999 8.70826 0.783999 7.40026ZM3.268 7.40026C3.268 8.14426 3.436 8.81626 3.772 9.41626C4.12 10.0163 4.6 10.4843 5.212 10.8203C5.824 11.1683 6.52 11.3423 7.3 11.3423C8.08 11.3423 8.776 11.1683 9.388 10.8203C10 10.4843 10.474 10.0163 10.81 9.41626C11.158 8.81626 11.332 8.14426 11.332 7.40026C11.332 6.65626 11.158 5.98426 10.81 5.38426C10.474 4.78426 10 4.31026 9.388 3.96226C8.776 3.62626 8.08 3.45826 7.3 3.45826C6.52 3.45826 5.824 3.62626 5.212 3.96226C4.6 4.31026 4.12 4.78426 3.772 5.38426C3.436 5.98426 3.268 6.65626 3.268 7.40026ZM13.6 28.0246L0.999998 28.0246L0.999998 25.1266L11.224 25.1266L11.224 19.4386L0.999999 19.4386L0.999999 16.5406L13.6 16.5406L13.6 28.0246ZM11.224 40.778L11.224 36.746L0.999998 36.746L0.999998 33.866L11.224 33.866L11.224 29.852L13.6 29.852L13.6 40.778L11.224 40.778ZM13.6 42.609L13.6 45.507L5.392 45.507L13.6 51.519L13.6 54.255L0.999997 54.255L0.999997 51.375L9.19 51.375L0.999998 45.363L0.999998 42.609L13.6 42.609ZM0.999997 68.8582L8.542 68.8402L2.332 65.1322L2.332 63.8362L8.398 60.1282L0.999997 60.1282L0.999997 57.3922L13.6 57.3922L13.6 59.8042L5.77 64.5202L13.6 69.1642L13.6 71.5762L0.999996 71.5942L0.999997 68.8582ZM3.7 83.2562L3.7 77.4062L0.999996 76.2902L0.999996 73.3022L13.6 78.9182L13.6 81.7982L0.999996 87.4322L0.999996 84.3722L3.7 83.2562ZM5.914 82.3382L10.738 80.3402L5.914 78.3422L5.914 82.3382ZM13.6 100.441L0.999995 100.441L0.999995 97.5606L11.224 97.5606L11.224 93.2406L8.596 93.1506C6.808 93.0906 5.356 92.9466 4.24 92.7186C3.136 92.4906 2.284 92.1066 1.684 91.5666C1.096 91.0386 0.801996 90.2946 0.801996 89.3346C0.801996 88.9386 0.867996 88.4586 0.999996 87.8946L3.466 88.0746C3.418 88.2306 3.394 88.4046 3.394 88.5966C3.394 89.2926 3.802 89.7786 4.618 90.0546C5.446 90.3306 6.736 90.5046 8.488 90.5766L13.6 90.7566L13.6 100.441ZM9.45999 109.689C9.45999 111.225 9.11799 112.401 8.43399 113.217C7.74999 114.045 6.73599 114.459 5.39199 114.459C3.96399 114.459 2.87199 114.003 2.11599 113.091C1.37199 112.191 0.999995 110.919 0.999995 109.275L0.999995 103.587L13.6 103.587L13.6 106.485L9.45999 106.485L9.45999 109.689ZM3.15999 109.113C3.15999 109.869 3.34599 110.457 3.71799 110.877C4.08999 111.309 4.62999 111.525 5.33799 111.525C6.64599 111.525 7.29999 110.721 7.29999 109.113L7.29999 106.485L3.15999 106.485L3.15999 109.113ZM13.6 128.116L0.999994 128.116L0.999994 125.2L6.16599 125.2L6.16599 119.476L0.999994 119.476L0.999994 116.56L13.6 116.56L13.6 119.476L8.63199 119.476L8.63199 125.2L13.6 125.2L13.6 128.116ZM9.45999 137.375C9.45999 138.911 9.11799 140.087 8.43399 140.903C7.74999 141.731 6.73599 142.145 5.39199 142.145C3.96399 142.145 2.87199 141.689 2.11599 140.777C1.37199 139.877 0.999994 138.605 0.999994 136.961L0.999994 131.273L13.6 131.273L13.6 134.171L9.45999 134.171L9.45999 137.375ZM3.15999 136.799C3.15999 137.555 3.34599 138.143 3.71799 138.563C4.08999 138.995 4.62999 139.211 5.33799 139.211C6.64599 139.211 7.29999 138.407 7.29999 136.799L7.29999 134.171L3.15999 134.171L3.15999 136.799ZM13.6 143.747L13.6 146.645L0.999993 146.645L0.999993 143.747L13.6 143.747ZM13.6 149.783L13.6 152.681L5.39199 152.681L13.6 158.693L13.6 161.429L0.999993 161.429L0.999993 158.549L9.18999 158.549L0.999993 152.537L0.999993 149.783L13.6 149.783ZM14.41 155.597C14.41 153.293 15.328 152.129 17.164 152.105L17.164 154.103C16.288 154.127 15.85 154.625 15.85 155.597C15.85 156.077 15.958 156.443 16.174 156.695C16.402 156.947 16.732 157.079 17.164 157.091L17.164 159.089C16.264 159.077 15.58 158.783 15.112 158.207C14.644 157.631 14.41 156.761 14.41 155.597Z" fill="white"/>
</svg>
