<svg width="18" height="100" viewBox="0 0 14 100" fill="none" xmlns="http://www.w3.org/2000/svg">
<path d="M13.6 12.2727L0.999998 12.2727L0.999999 9.37465L11.224 9.37466L11.224 3.68665L0.999999 3.68665L0.999999 0.788655L13.6 0.788655L13.6 12.2727ZM13.6 20.8501C13.6 21.9661 13.414 22.9321 13.042 23.7481C12.67 24.5761 12.142 25.2121 11.458 25.6561C10.774 26.1001 9.964 26.3221 9.028 26.3221C8.104 26.3221 7.294 26.1001 6.598 25.6561C5.914 25.2121 5.386 24.5761 5.014 23.7481C4.654 22.9321 4.474 21.9661 4.474 20.8501L4.474 18.3121L0.999998 18.3121L0.999998 15.3961L13.6 15.3961L13.6 20.8501ZM6.85 20.6881C6.85 21.5641 7.036 22.2301 7.408 22.6861C7.792 23.1421 8.332 23.3701 9.028 23.3701C9.736 23.3701 10.276 23.1421 10.648 22.6861C11.032 22.2301 11.224 21.5641 11.224 20.6881L11.224 18.3121L6.85 18.3121L6.85 20.6881ZM3.34 38.0017L0.999997 38.0017L0.999998 28.2457L13.6 28.2457L13.6 37.7677L11.26 37.7677L11.26 31.1437L8.524 31.1437L8.524 36.9937L6.256 36.9937L6.256 31.1437L3.34 31.1437L3.34 38.0017ZM0.999997 51.823L8.542 51.805L2.332 48.097L2.332 46.801L8.398 43.093L0.999997 43.093L0.999997 40.357L13.6 40.357L13.6 42.769L5.77 47.485L13.6 52.129L13.6 54.541L0.999997 54.559L0.999997 51.823ZM13.6 57.689L13.6 60.587L5.392 60.587L13.6 66.599L13.6 69.335L0.999996 69.335L0.999996 66.455L9.19 66.455L0.999996 60.443L0.999996 57.689L13.6 57.689ZM13.6 83.8482L3.628 78.4842C2.668 77.9682 1.942 77.3442 1.45 76.6122C0.957996 75.8922 0.711996 75.1062 0.711996 74.2542C0.711996 73.5942 0.855996 72.9102 1.144 72.2022L3.358 72.9042C3.202 73.4082 3.124 73.8282 3.124 74.1642C3.124 74.5242 3.208 74.8482 3.376 75.1362C3.556 75.4242 3.832 75.6882 4.204 75.9282L4.348 76.0362L13.6 71.0682L13.6 74.1822L6.832 77.5302L13.6 80.9862L13.6 83.8482ZM0.999995 96.7L8.54199 96.682L2.33199 92.974L2.33199 91.678L8.398 87.97L0.999995 87.97L0.999995 85.234L13.6 85.234L13.6 87.646L5.76999 92.362L13.6 97.006L13.6 99.418L0.999995 99.436L0.999995 96.7Z" fill="#C69F17"/>
</svg>
