<svg width="84" height="72" viewBox="0 0 84 72" fill="none" xmlns="http://www.w3.org/2000/svg">
<rect width="83.9866" height="71.002" fill="black" fill-opacity="0"/>
<path fill-rule="evenodd" clip-rule="evenodd" d="M25.45 55.5601L21.48 59.0501C22.7454 60.4622 24.1196 61.7728 25.59 62.9701L28.95 58.9001C27.6995 57.878 26.5294 56.7614 25.45 55.5601ZM20.23 47.4201L15.36 49.5001C16.1122 51.2399 17.0052 52.9155 18.03 54.5101L22.5 51.69C21.63 50.3299 20.8709 48.902 20.23 47.4201ZM66.17 4.79012C61.0941 1.86231 55.3771 0.224878 49.5208 0.0215633C43.6645 -0.181751 37.8477 1.05524 32.5809 3.62398C27.3141 6.19272 22.7582 10.0147 19.3129 14.7546C15.8675 19.4945 13.638 25.0077 12.8199 30.8101L3.75 21.8101L0 25.5201L15.12 40.5301L30.24 25.5201L26.49 21.8101L18.3 29.9301C19.3673 23.9941 22.1745 18.5089 26.3651 14.1713C30.5558 9.83378 35.9409 6.8394 41.8367 5.56832C47.7325 4.29723 53.873 4.80686 59.4786 7.03243C65.0843 9.258 69.9021 13.0992 73.3204 18.0682C76.7388 23.0372 78.6033 28.9099 78.6775 34.9408C78.7516 40.9716 77.0319 46.8883 73.7368 51.9399C70.4417 56.9915 65.7199 60.95 60.1707 63.3127C54.6215 65.6754 48.4952 66.3358 42.5699 65.21C39.1874 64.5726 35.9357 63.3727 32.95 61.6601L30.29 66.21C38.4945 70.9345 48.2324 72.2287 57.386 69.8111C66.5396 67.3935 74.3685 61.4597 79.17 53.3001C81.5231 49.2668 83.0538 44.8072 83.6737 40.179C84.2936 35.5508 83.9905 30.8457 82.7817 26.3353C81.573 21.8249 79.4827 17.5987 76.6315 13.9007C73.7803 10.2027 70.2247 7.10625 66.17 4.79012ZM44.26 11.83V40.7601L55.92 49.4301L59.1 45.2301L49.5601 38.1301V11.83H44.26Z" fill="#FF0000"/>
</svg>
