<svg width="13" height="93" viewBox="0 0 13 93" fill="none" xmlns="http://www.w3.org/2000/svg">
<path d="M3.59911 11.5319L3.59911 9.01186L0.287109 9.01186L0.287109 7.71586L3.59911 7.71586L3.59911 0.605864L4.53511 0.605864L12.8871 7.28386L12.8871 8.72386L4.75111 2.27986L4.75111 7.75186L7.66711 7.75186L7.66711 9.01186L4.75111 9.01186L4.75111 11.5319L3.59911 11.5319ZM0.179108 22.4552C0.179108 21.4832 0.437108 20.6132 0.953109 19.8452C1.46911 19.0892 2.20711 18.4952 3.16711 18.0632C4.13911 17.6432 5.27911 17.4332 6.58711 17.4332C7.89511 17.4332 9.02911 17.6432 9.98911 18.0632C10.9611 18.4952 11.7051 19.0892 12.2211 19.8452C12.7371 20.6132 12.9951 21.4832 12.9951 22.4552C12.9951 23.4272 12.7371 24.2912 12.2211 25.0472C11.7051 25.8152 10.9611 26.4152 9.98911 26.8472C9.02911 27.2792 7.89511 27.4952 6.58711 27.4952C5.27911 27.4952 4.13911 27.2792 3.16711 26.8472C2.20711 26.4152 1.46911 25.8152 0.953108 25.0472C0.437108 24.2912 0.179108 23.4272 0.179108 22.4552ZM1.36711 22.4552C1.36711 23.1872 1.57111 23.8292 1.97911 24.3812C2.38711 24.9452 2.98111 25.3832 3.76111 25.6952C4.54111 26.0072 5.48311 26.1632 6.58711 26.1632C7.69111 26.1632 8.63311 26.0072 9.41311 25.6952C10.1931 25.3832 10.7871 24.9452 11.1951 24.3812C11.6031 23.8292 11.8071 23.1872 11.8071 22.4552C11.8071 21.7232 11.6031 21.0752 11.1951 20.5112C10.7871 19.9592 10.1931 19.5272 9.41311 19.2152C8.63311 18.9032 7.69111 18.7472 6.58711 18.7472C5.48311 18.7472 4.54111 18.9032 3.76111 19.2152C2.98111 19.5272 2.38711 19.9592 1.97911 20.5112C1.57111 21.0752 1.36711 21.7232 1.36711 22.4552ZM0.179108 34.3732C0.179108 33.4012 0.437108 32.5312 0.953108 31.7632C1.46911 31.0072 2.20711 30.4132 3.16711 29.9812C4.13911 29.5612 5.27911 29.3512 6.58711 29.3512C7.89511 29.3512 9.02911 29.5612 9.98911 29.9812C10.9611 30.4132 11.7051 31.0072 12.2211 31.7632C12.7371 32.5312 12.9951 33.4012 12.9951 34.3732C12.9951 35.3452 12.7371 36.2092 12.2211 36.9652C11.7051 37.7332 10.9611 38.3332 9.98911 38.7652C9.02911 39.1972 7.89511 39.4132 6.58711 39.4132C5.27911 39.4132 4.13911 39.1972 3.16711 38.7652C2.20711 38.3332 1.46911 37.7332 0.953108 36.9652C0.437108 36.2092 0.179108 35.3452 0.179108 34.3732ZM1.36711 34.3732C1.36711 35.1052 1.57111 35.7472 1.97911 36.2992C2.38711 36.8632 2.98111 37.3012 3.76111 37.6132C4.54111 37.9252 5.48311 38.0812 6.58711 38.0812C7.69111 38.0812 8.63311 37.9252 9.41311 37.6132C10.1931 37.3012 10.7871 36.8632 11.1951 36.2992C11.6031 35.7472 11.8071 35.1052 11.8071 34.3732C11.8071 33.6412 11.6031 32.9932 11.1951 32.4292C10.7871 31.8772 10.1931 31.4452 9.41311 31.1332C8.63311 30.8212 7.69111 30.6652 6.58711 30.6652C5.48311 30.6652 4.54111 30.8212 3.76111 31.1332C2.98111 31.4452 2.38711 31.8772 1.97911 32.4292C1.57111 32.9932 1.36711 33.6412 1.36711 34.3732ZM0.179107 46.2911C0.179107 45.3191 0.437107 44.4491 0.953108 43.6811C1.46911 42.9251 2.20711 42.3311 3.16711 41.8991C4.13911 41.4791 5.27911 41.2691 6.58711 41.2691C7.89511 41.2691 9.02911 41.4791 9.98911 41.8991C10.9611 42.3311 11.7051 42.9251 12.2211 43.6811C12.7371 44.4491 12.9951 45.3191 12.9951 46.2911C12.9951 47.2631 12.7371 48.1271 12.2211 48.8831C11.7051 49.6511 10.9611 50.2511 9.98911 50.6831C9.02911 51.1151 7.89511 51.3311 6.58711 51.3311C5.27911 51.3311 4.13911 51.1151 3.16711 50.6831C2.20711 50.2511 1.46911 49.6511 0.953107 48.8831C0.437107 48.1271 0.179107 47.2631 0.179107 46.2911ZM1.36711 46.2911C1.36711 47.0231 1.57111 47.6651 1.97911 48.2171C2.38711 48.7811 2.98111 49.2191 3.76111 49.5311C4.54111 49.8431 5.48311 49.9991 6.58711 49.9991C7.69111 49.9991 8.63311 49.8431 9.41311 49.5311C10.1931 49.2191 10.7871 48.7811 11.1951 48.2171C11.6031 47.6651 11.8071 47.0231 11.8071 46.2911C11.8071 45.5591 11.6031 44.9111 11.1951 44.3471C10.7871 43.7951 10.1931 43.3631 9.41311 43.0511C8.63311 42.7391 7.69111 42.5831 6.58711 42.5831C5.48311 42.5831 4.54111 42.7391 3.76111 43.0511C2.98111 43.3631 2.38711 43.7951 1.97911 44.3471C1.57111 44.9111 1.36711 45.5591 1.36711 46.2911ZM9.75511 65.926L0.287107 65.926L0.287107 64.648L4.22911 64.648C3.74911 63.556 3.50911 62.482 3.50911 61.426C3.50911 60.286 3.76711 59.398 4.28311 58.762C4.81111 58.126 5.59711 57.808 6.64111 57.808L9.75511 57.808L9.75511 59.086L6.71311 59.086C6.00511 59.086 5.46511 59.314 5.09311 59.77C4.73311 60.226 4.55311 60.856 4.55311 61.66C4.55311 62.548 4.78711 63.544 5.25511 64.648L9.75511 64.648L9.75511 65.926ZM4.62511 77.8354L4.62511 69.9154C3.64111 69.9874 2.84311 70.3654 2.23111 71.0494C1.63111 71.7334 1.33111 72.5974 1.33111 73.6414C1.33111 74.2294 1.43311 74.7694 1.63711 75.2614C1.85311 75.7534 2.16511 76.1794 2.57311 76.5394L1.74511 77.2594C1.24111 76.8394 0.857106 76.3114 0.593106 75.6754C0.329106 75.0514 0.197106 74.3614 0.197106 73.6054C0.197106 72.6334 0.401106 71.7694 0.809106 71.0134C1.22911 70.2694 1.80511 69.6874 2.53711 69.2674C3.26911 68.8474 4.09711 68.6374 5.02111 68.6374C5.94511 68.6374 6.77311 68.8354 7.50511 69.2314C8.23711 69.6394 8.80711 70.1914 9.21511 70.8874C9.62311 71.5954 9.82711 72.3874 9.82711 73.2634C9.82711 74.1394 9.62311 74.9254 9.21511 75.6214C8.80711 76.3174 8.23711 76.8634 7.50511 77.2594C6.78511 77.6554 5.95711 77.8534 5.02111 77.8534L4.62511 77.8354ZM8.72911 73.2634C8.72911 72.3514 8.43511 71.5834 7.84711 70.9594C7.27111 70.3474 6.51511 69.9994 5.57911 69.9154L5.57911 76.6294C6.51511 76.5454 7.27111 76.1914 7.84711 75.5674C8.43511 74.9554 8.72911 74.1874 8.72911 73.2634ZM9.75511 88.229L0.287106 88.229L0.287106 86.951L8.62111 86.951L8.62111 82.415L6.28111 82.289C4.31311 82.193 2.80111 81.965 1.74511 81.605C0.689106 81.245 0.161106 80.603 0.161106 79.679C0.161106 79.427 0.209106 79.121 0.305106 78.761L1.40311 78.851C1.35511 79.067 1.33111 79.217 1.33111 79.301C1.33111 79.793 1.55911 80.165 2.01511 80.417C2.47111 80.669 3.03511 80.837 3.70711 80.921C4.37911 81.005 5.26711 81.077 6.37111 81.137L9.75511 81.299L9.75511 88.229ZM0.197105 91.9521C0.197105 91.6881 0.293105 91.4601 0.485105 91.2681C0.677105 91.0881 0.911105 90.9981 1.18711 90.9981C1.46311 90.9981 1.69111 91.0881 1.87111 91.2681C2.06311 91.4601 2.15911 91.6881 2.15911 91.9521C2.15911 92.2161 2.06311 92.4441 1.87111 92.6361C1.69111 92.8281 1.46311 92.9241 1.18711 92.9241C0.911105 92.9241 0.677105 92.8281 0.485105 92.6361C0.293105 92.4441 0.197105 92.2161 0.197105 91.9521Z" fill="white"/>
</svg>
