<svg width="13" height="93" viewBox="0 0 13 93" fill="none" xmlns="http://www.w3.org/2000/svg">
<path d="M7.80274 6.20385C7.80274 7.03185 7.64674 7.76385 7.33474 8.39985C7.02274 9.04785 6.57874 9.55185 6.00274 9.91185C5.43874 10.2719 4.77874 10.4519 4.02274 10.4519C3.25474 10.4519 2.57674 10.2659 1.98874 9.89385C1.40074 9.52185 0.944742 9.00585 0.620742 8.34585C0.308742 7.69785 0.152742 6.96585 0.152742 6.14985C0.152742 4.48185 0.698742 3.20385 1.79074 2.31585C2.89474 1.42785 4.44874 0.983851 6.45274 0.983851C7.85674 0.983851 9.04474 1.22385 10.0167 1.70385C10.9887 2.18385 11.7207 2.85585 12.2127 3.71985C12.7167 4.58385 12.9687 5.59185 12.9687 6.74385C12.9687 7.99185 12.7407 8.98785 12.2847 9.73185L11.2407 9.20985C11.6367 8.60985 11.8347 7.79385 11.8347 6.76185C11.8347 5.36985 11.3907 4.27785 10.5027 3.48585C9.62674 2.69385 8.34874 2.29785 6.66874 2.29785C6.36874 2.29785 6.02674 2.31585 5.64274 2.35185C6.32674 2.66385 6.85474 3.16185 7.22674 3.84585C7.61074 4.52985 7.80274 5.31585 7.80274 6.20385ZM1.25074 6.09585C1.25074 7.00785 1.49674 7.74585 1.98874 8.30985C2.49274 8.88585 3.15874 9.17385 3.98674 9.17385C4.81474 9.17385 5.47474 8.88585 5.96674 8.30985C6.45874 7.74585 6.70474 6.97785 6.70474 6.00585C6.70474 5.36985 6.58474 4.80585 6.34474 4.31385C6.10474 3.83385 5.77474 3.45585 5.35474 3.17985C4.93474 2.90385 4.46674 2.76585 3.95074 2.76585C3.47074 2.76585 3.02674 2.89185 2.61874 3.14385C2.21074 3.40785 1.88074 3.79185 1.62874 4.29585C1.37674 4.79985 1.25074 5.39985 1.25074 6.09585ZM0.152741 21.6855C0.152741 20.7135 0.410741 19.8435 0.926741 19.0755C1.44274 18.3195 2.18074 17.7255 3.14074 17.2935C4.11274 16.8735 5.25274 16.6635 6.56074 16.6635C7.86874 16.6635 9.00274 16.8735 9.96274 17.2935C10.9347 17.7255 11.6787 18.3195 12.1947 19.0755C12.7107 19.8435 12.9687 20.7135 12.9687 21.6855C12.9687 22.6575 12.7107 23.5215 12.1947 24.2775C11.6787 25.0455 10.9347 25.6455 9.96274 26.0775C9.00274 26.5095 7.86874 26.7255 6.56074 26.7255C5.25274 26.7255 4.11274 26.5095 3.14074 26.0775C2.18074 25.6455 1.44274 25.0455 0.926741 24.2775C0.410741 23.5215 0.152741 22.6575 0.152741 21.6855ZM1.34074 21.6855C1.34074 22.4175 1.54474 23.0595 1.95274 23.6115C2.36074 24.1755 2.95474 24.6135 3.73474 24.9255C4.51474 25.2375 5.45674 25.3935 6.56074 25.3935C7.66474 25.3935 8.60674 25.2375 9.38674 24.9255C10.1667 24.6135 10.7607 24.1755 11.1687 23.6115C11.5767 23.0595 11.7807 22.4175 11.7807 21.6855C11.7807 20.9535 11.5767 20.3055 11.1687 19.7415C10.7607 19.1895 10.1667 18.7575 9.38674 18.4455C8.60674 18.1335 7.66474 17.9775 6.56074 17.9775C5.45674 17.9775 4.51474 18.1335 3.73474 18.4455C2.95474 18.7575 2.36074 19.1895 1.95274 19.7415C1.54474 20.3055 1.34074 20.9535 1.34074 21.6855ZM0.152741 33.6035C0.152741 32.6315 0.410741 31.7615 0.926741 30.9935C1.44274 30.2375 2.18074 29.6435 3.14074 29.2115C4.11274 28.7915 5.25274 28.5815 6.56074 28.5815C7.86874 28.5815 9.00274 28.7915 9.96274 29.2115C10.9347 29.6435 11.6787 30.2375 12.1947 30.9935C12.7107 31.7615 12.9687 32.6315 12.9687 33.6035C12.9687 34.5755 12.7107 35.4395 12.1947 36.1955C11.6787 36.9635 10.9347 37.5635 9.96274 37.9955C9.00274 38.4275 7.86874 38.6435 6.56074 38.6435C5.25274 38.6435 4.11274 38.4275 3.14074 37.9955C2.18074 37.5635 1.44274 36.9635 0.926741 36.1955C0.410741 35.4395 0.152741 34.5755 0.152741 33.6035ZM1.34074 33.6035C1.34074 34.3355 1.54474 34.9775 1.95274 35.5295C2.36074 36.0935 2.95474 36.5315 3.73474 36.8435C4.51474 37.1555 5.45674 37.3115 6.56074 37.3115C7.66474 37.3115 8.60674 37.1555 9.38674 36.8435C10.1667 36.5315 10.7607 36.0935 11.1687 35.5295C11.5767 34.9775 11.7807 34.3355 11.7807 33.6035C11.7807 32.8715 11.5767 32.2235 11.1687 31.6595C10.7607 31.1075 10.1667 30.6755 9.38674 30.3635C8.60674 30.0515 7.66474 29.8955 6.56074 29.8955C5.45674 29.8955 4.51474 30.0515 3.73474 30.3635C2.95474 30.6755 2.36074 31.1075 1.95274 31.6595C1.54474 32.2235 1.34074 32.8715 1.34074 33.6035ZM0.15274 45.5215C0.15274 44.5495 0.41074 43.6795 0.92674 42.9115C1.44274 42.1555 2.18074 41.5615 3.14074 41.1295C4.11274 40.7095 5.25274 40.4995 6.56074 40.4995C7.86874 40.4995 9.00274 40.7095 9.96274 41.1295C10.9347 41.5615 11.6787 42.1555 12.1947 42.9115C12.7107 43.6795 12.9687 44.5495 12.9687 45.5215C12.9687 46.4935 12.7107 47.3575 12.1947 48.1135C11.6787 48.8815 10.9347 49.4815 9.96274 49.9135C9.00274 50.3455 7.86874 50.5615 6.56074 50.5615C5.25274 50.5615 4.11274 50.3455 3.14074 49.9135C2.18074 49.4815 1.44274 48.8815 0.92674 48.1135C0.41074 47.3575 0.15274 46.4935 0.15274 45.5215ZM1.34074 45.5215C1.34074 46.2535 1.54474 46.8955 1.95274 47.4475C2.36074 48.0115 2.95474 48.4495 3.73474 48.7615C4.51474 49.0735 5.45674 49.2295 6.56074 49.2295C7.66474 49.2295 8.60674 49.0735 9.38674 48.7615C10.1667 48.4495 10.7607 48.0115 11.1687 47.4475C11.5767 46.8955 11.7807 46.2535 11.7807 45.5215C11.7807 44.7895 11.5767 44.1415 11.1687 43.5775C10.7607 43.0255 10.1667 42.5935 9.38674 42.2815C8.60674 41.9695 7.66474 41.8135 6.56074 41.8135C5.45674 41.8135 4.51474 41.9695 3.73474 42.2815C2.95474 42.5935 2.36074 43.0255 1.95274 43.5775C1.54474 44.1415 1.34074 44.7895 1.34074 45.5215ZM9.72874 65.1564L0.260739 65.1564L0.260739 63.8784L4.20274 63.8784C3.72274 62.7864 3.48274 61.7124 3.48274 60.6564C3.48274 59.5164 3.74074 58.6284 4.25674 57.9924C4.78474 57.3564 5.57074 57.0384 6.61474 57.0384L9.72874 57.0384L9.72874 58.3164L6.68674 58.3164C5.97874 58.3164 5.43874 58.5444 5.06674 59.0004C4.70674 59.4564 4.52674 60.0864 4.52674 60.8904C4.52674 61.7784 4.76074 62.7744 5.22874 63.8784L9.72874 63.8784L9.72874 65.1564ZM4.59874 77.0658L4.59874 69.1458C3.61474 69.2178 2.81674 69.5958 2.20474 70.2798C1.60474 70.9638 1.30474 71.8278 1.30474 72.8718C1.30474 73.4598 1.40674 73.9998 1.61074 74.4918C1.82674 74.9838 2.13874 75.4098 2.54674 75.7698L1.71874 76.4898C1.21474 76.0698 0.830739 75.5418 0.566739 74.9058C0.302739 74.2818 0.170739 73.5918 0.170739 72.8358C0.170739 71.8638 0.374739 70.9998 0.782739 70.2438C1.20274 69.4998 1.77874 68.9178 2.51074 68.4978C3.24274 68.0778 4.07074 67.8678 4.99474 67.8678C5.91874 67.8678 6.74674 68.0658 7.47874 68.4618C8.21074 68.8698 8.78074 69.4218 9.18874 70.1178C9.59674 70.8258 9.80074 71.6178 9.80074 72.4938C9.80074 73.3698 9.59674 74.1558 9.18874 74.8518C8.78074 75.5478 8.21074 76.0938 7.47874 76.4898C6.75874 76.8858 5.93074 77.0838 4.99474 77.0838L4.59874 77.0658ZM8.70274 72.4938C8.70274 71.5818 8.40874 70.8138 7.82074 70.1898C7.24474 69.5778 6.48874 69.2298 5.55274 69.1458L5.55274 75.8598C6.48874 75.7758 7.24474 75.4218 7.82074 74.7978C8.40874 74.1858 8.70274 73.4178 8.70274 72.4938ZM9.72874 87.4594L0.260738 87.4594L0.260739 86.1814L8.59474 86.1814L8.59474 81.6454L6.25474 81.5194C4.28674 81.4234 2.77474 81.1954 1.71874 80.8354C0.662739 80.4754 0.134739 79.8334 0.134739 78.9094C0.134739 78.6574 0.182739 78.3514 0.278739 77.9914L1.37674 78.0814C1.32874 78.2974 1.30474 78.4474 1.30474 78.5314C1.30474 79.0234 1.53274 79.3954 1.98874 79.6474C2.44474 79.8994 3.00874 80.0674 3.68074 80.1514C4.35274 80.2354 5.24074 80.3074 6.34474 80.3674L9.72874 80.5294L9.72874 87.4594ZM0.170738 91.1824C0.170738 90.9184 0.266738 90.6904 0.458738 90.4984C0.650738 90.3184 0.884738 90.2284 1.16074 90.2284C1.43674 90.2284 1.66474 90.3184 1.84474 90.4984C2.03674 90.6904 2.13274 90.9184 2.13274 91.1824C2.13274 91.4464 2.03674 91.6744 1.84474 91.8664C1.66474 92.0584 1.43674 92.1544 1.16074 92.1544C0.884738 92.1544 0.650738 92.0584 0.458738 91.8664C0.266738 91.6744 0.170738 91.4464 0.170738 91.1824Z" fill="white"/>
</svg>
