<svg width="13" height="93" viewBox="0 0 13 93" fill="none" xmlns="http://www.w3.org/2000/svg">
<path d="M6.84037 7.7292C6.57637 8.52119 6.18037 9.12719 5.65237 9.5472C5.12437 9.97919 4.48837 10.1952 3.74437 10.1952C3.01237 10.1952 2.37037 9.99719 1.81837 9.60119C1.27837 9.20519 0.858375 8.63519 0.558375 7.89119C0.270375 7.15919 0.126375 6.29519 0.126375 5.29919C0.126375 3.78719 0.450375 2.59919 1.09837 1.73519C1.74637 0.871195 2.62837 0.439195 3.74437 0.439195C4.50037 0.439195 5.13637 0.643195 5.65237 1.05119C6.18037 1.47119 6.57637 2.07719 6.84038 2.86919C7.09238 2.22119 7.45237 1.72919 7.92037 1.39319C8.40037 1.05719 8.96438 0.889195 9.61238 0.889195C10.6324 0.889195 11.4424 1.2852 12.0424 2.0772C12.6424 2.8812 12.9424 3.9552 12.9424 5.29919C12.9424 6.18719 12.8044 6.96119 12.5284 7.6212C12.2644 8.2932 11.8804 8.8152 11.3764 9.18719C10.8724 9.55919 10.2844 9.74519 9.61238 9.74519C8.96437 9.74519 8.40037 9.57119 7.92037 9.2232C7.45237 8.8752 7.09237 8.3772 6.84037 7.7292ZM9.57637 2.18519C8.88037 2.18519 8.32837 2.46119 7.92037 3.01319C7.51237 3.56519 7.30837 4.32719 7.30837 5.29919C7.30837 6.27119 7.51237 7.03319 7.92037 7.58519C8.32837 8.1492 8.87437 8.4312 9.55837 8.4312C10.2664 8.4312 10.8244 8.1432 11.2324 7.5672C11.6404 7.0032 11.8444 6.2472 11.8444 5.29919C11.8444 4.3392 11.6404 3.5772 11.2324 3.0132C10.8244 2.46119 10.2724 2.18519 9.57637 2.18519ZM1.22437 5.29919C1.22437 6.41519 1.45237 7.28519 1.90837 7.90919C2.36437 8.54519 2.98237 8.86319 3.76237 8.86319C4.54237 8.86319 5.15437 8.54519 5.59837 7.90919C6.05437 7.28519 6.28237 6.41519 6.28237 5.29919C6.28237 4.19519 6.05437 3.32519 5.59838 2.68919C5.15438 2.06519 4.54237 1.75319 3.76237 1.75319C2.97037 1.75319 2.34637 2.06519 1.89037 2.68919C1.44637 3.31319 1.22437 4.18319 1.22437 5.29919ZM0.126374 21.7226C0.126374 20.7506 0.384374 19.8806 0.900374 19.1126C1.41637 18.3566 2.15437 17.7626 3.11437 17.3306C4.08637 16.9106 5.22637 16.7006 6.53437 16.7006C7.84237 16.7006 8.97637 16.9106 9.93637 17.3306C10.9084 17.7626 11.6524 18.3566 12.1684 19.1126C12.6844 19.8806 12.9424 20.7506 12.9424 21.7226C12.9424 22.6946 12.6844 23.5586 12.1684 24.3146C11.6524 25.0826 10.9084 25.6826 9.93637 26.1146C8.97637 26.5466 7.84237 26.7626 6.53437 26.7626C5.22637 26.7626 4.08637 26.5466 3.11437 26.1146C2.15437 25.6826 1.41637 25.0826 0.900374 24.3146C0.384374 23.5586 0.126374 22.6946 0.126374 21.7226ZM1.31437 21.7226C1.31437 22.4546 1.51837 23.0966 1.92637 23.6486C2.33437 24.2126 2.92837 24.6506 3.70837 24.9626C4.48837 25.2746 5.43037 25.4306 6.53437 25.4306C7.63837 25.4306 8.58037 25.2746 9.36037 24.9626C10.1404 24.6506 10.7344 24.2126 11.1424 23.6486C11.5504 23.0966 11.7544 22.4546 11.7544 21.7226C11.7544 20.9906 11.5504 20.3426 11.1424 19.7786C10.7344 19.2266 10.1404 18.7946 9.36037 18.4826C8.58037 18.1706 7.63837 18.0146 6.53437 18.0146C5.43037 18.0146 4.48837 18.1706 3.70837 18.4826C2.92837 18.7946 2.33437 19.2266 1.92637 19.7786C1.51837 20.3426 1.31437 20.9906 1.31437 21.7226ZM0.126374 33.6406C0.126374 32.6686 0.384374 31.7986 0.900374 31.0306C1.41637 30.2746 2.15437 29.6806 3.11437 29.2486C4.08637 28.8286 5.22637 28.6186 6.53437 28.6186C7.84237 28.6186 8.97637 28.8286 9.93637 29.2486C10.9084 29.6806 11.6524 30.2746 12.1684 31.0306C12.6844 31.7986 12.9424 32.6686 12.9424 33.6406C12.9424 34.6126 12.6844 35.4766 12.1684 36.2326C11.6524 37.0006 10.9084 37.6006 9.93637 38.0326C8.97637 38.4646 7.84237 38.6806 6.53437 38.6806C5.22637 38.6806 4.08637 38.4646 3.11437 38.0326C2.15437 37.6006 1.41637 37.0006 0.900373 36.2326C0.384373 35.4766 0.126374 34.6126 0.126374 33.6406ZM1.31437 33.6406C1.31437 34.3726 1.51837 35.0146 1.92637 35.5666C2.33437 36.1306 2.92837 36.5686 3.70837 36.8806C4.48837 37.1926 5.43037 37.3486 6.53437 37.3486C7.63837 37.3486 8.58037 37.1926 9.36037 36.8806C10.1404 36.5686 10.7344 36.1306 11.1424 35.5666C11.5504 35.0146 11.7544 34.3726 11.7544 33.6406C11.7544 32.9086 11.5504 32.2606 11.1424 31.6966C10.7344 31.1446 10.1404 30.7126 9.36037 30.4006C8.58037 30.0886 7.63837 29.9326 6.53437 29.9326C5.43037 29.9326 4.48837 30.0886 3.70837 30.4006C2.92837 30.7126 2.33437 31.1446 1.92637 31.6966C1.51837 32.2606 1.31437 32.9086 1.31437 33.6406ZM0.126373 45.5586C0.126373 44.5866 0.384373 43.7166 0.900373 42.9486C1.41637 42.1926 2.15437 41.5986 3.11437 41.1666C4.08637 40.7466 5.22637 40.5366 6.53437 40.5366C7.84237 40.5366 8.97637 40.7466 9.93637 41.1666C10.9084 41.5986 11.6524 42.1926 12.1684 42.9486C12.6844 43.7166 12.9424 44.5866 12.9424 45.5586C12.9424 46.5306 12.6844 47.3946 12.1684 48.1506C11.6524 48.9186 10.9084 49.5186 9.93637 49.9506C8.97637 50.3826 7.84237 50.5986 6.53437 50.5986C5.22637 50.5986 4.08637 50.3826 3.11437 49.9506C2.15437 49.5186 1.41637 48.9186 0.900373 48.1506C0.384373 47.3946 0.126373 46.5306 0.126373 45.5586ZM1.31437 45.5586C1.31437 46.2906 1.51837 46.9326 1.92637 47.4846C2.33437 48.0486 2.92837 48.4866 3.70837 48.7986C4.48837 49.1106 5.43037 49.2666 6.53437 49.2666C7.63837 49.2666 8.58037 49.1106 9.36037 48.7986C10.1404 48.4866 10.7344 48.0486 11.1424 47.4846C11.5504 46.9326 11.7544 46.2906 11.7544 45.5586C11.7544 44.8266 11.5504 44.1786 11.1424 43.6146C10.7344 43.0626 10.1404 42.6306 9.36037 42.3186C8.58037 42.0066 7.63837 41.8506 6.53437 41.8506C5.43037 41.8506 4.48837 42.0066 3.70837 42.3186C2.92837 42.6306 2.33437 43.0626 1.92637 43.6146C1.51837 44.1786 1.31437 44.8266 1.31437 45.5586ZM9.70237 65.1935L0.234372 65.1935L0.234372 63.9155L4.17637 63.9155C3.69637 62.8235 3.45637 61.7495 3.45637 60.6935C3.45637 59.5535 3.71437 58.6655 4.23037 58.0295C4.75837 57.3935 5.54437 57.0755 6.58837 57.0755L9.70237 57.0755L9.70237 58.3535L6.66037 58.3535C5.95237 58.3535 5.41237 58.5815 5.04037 59.0375C4.68037 59.4935 4.50037 60.1235 4.50037 60.9275C4.50037 61.8155 4.73437 62.8115 5.20237 63.9155L9.70237 63.9155L9.70237 65.1935ZM4.57237 77.1029L4.57237 69.1829C3.58837 69.2549 2.79037 69.6329 2.17837 70.3169C1.57837 71.0009 1.27837 71.8649 1.27837 72.9089C1.27837 73.4969 1.38037 74.0369 1.58437 74.5289C1.80037 75.0209 2.11237 75.4469 2.52037 75.8069L1.69237 76.5269C1.18837 76.1069 0.804372 75.5789 0.540372 74.9429C0.276372 74.3189 0.144372 73.6289 0.144372 72.8729C0.144372 71.9009 0.348372 71.0369 0.756372 70.2809C1.17637 69.5369 1.75237 68.9549 2.48437 68.5349C3.21637 68.1149 4.04437 67.9049 4.96837 67.9049C5.89237 67.9049 6.72037 68.1029 7.45237 68.4989C8.18437 68.9069 8.75437 69.4589 9.16237 70.1549C9.57037 70.8629 9.77437 71.6549 9.77437 72.5309C9.77437 73.4069 9.57037 74.1929 9.16237 74.8889C8.75437 75.5849 8.18437 76.1309 7.45237 76.5269C6.73237 76.9229 5.90437 77.1209 4.96837 77.1209L4.57237 77.1029ZM8.67637 72.5309C8.67637 71.6189 8.38237 70.8509 7.79437 70.2269C7.21837 69.6149 6.46237 69.2669 5.52637 69.1829L5.52637 75.8969C6.46237 75.8129 7.21837 75.4589 7.79437 74.8349C8.38237 74.2229 8.67637 73.4549 8.67637 72.5309ZM9.70237 87.4965L0.234371 87.4965L0.234371 86.2185L8.56837 86.2185L8.56837 81.6825L6.22837 81.5565C4.26037 81.4605 2.74837 81.2325 1.69237 80.8725C0.636372 80.5125 0.108372 79.8705 0.108372 78.9465C0.108372 78.6945 0.156372 78.3885 0.252372 78.0285L1.35037 78.1185C1.30237 78.3345 1.27837 78.4845 1.27837 78.5685C1.27837 79.0605 1.50637 79.4325 1.96237 79.6845C2.41837 79.9365 2.98237 80.1045 3.65437 80.1885C4.32637 80.2725 5.21437 80.3445 6.31837 80.4045L9.70237 80.5665L9.70237 87.4965ZM0.144371 91.2195C0.144371 90.9555 0.240371 90.7275 0.432371 90.5355C0.624371 90.3555 0.858371 90.2655 1.13437 90.2655C1.41037 90.2655 1.63837 90.3555 1.81837 90.5355C2.01037 90.7275 2.10637 90.9555 2.10637 91.2195C2.10637 91.4835 2.01037 91.7115 1.81837 91.9035C1.63837 92.0955 1.41037 92.1915 1.13437 92.1915C0.858371 92.1915 0.624371 92.0955 0.432371 91.9035C0.240371 91.7115 0.144371 91.4835 0.144371 91.2195Z" fill="white"/>
</svg>
