<svg width="13" height="100" viewBox="0 0 13 100" fill="none" xmlns="http://www.w3.org/2000/svg">
<path d="M12.8085 4.38003L0.208496 4.38003L0.208496 3.08403L11.6565 3.08403L11.6565 0.114026L12.8085 0.114026L12.8085 4.38003ZM0.100496 12.4139C0.100496 11.4419 0.358496 10.5719 0.874496 9.80393C1.3905 9.04793 2.1285 8.45393 3.0885 8.02193C4.0605 7.60193 5.2005 7.39193 6.5085 7.39193C7.8165 7.39193 8.9505 7.60193 9.9105 8.02193C10.8825 8.45393 11.6265 9.04793 12.1425 9.80393C12.6585 10.5719 12.9165 11.4419 12.9165 12.4139C12.9165 13.3859 12.6585 14.2499 12.1425 15.0059C11.6265 15.7739 10.8825 16.3739 9.91049 16.8059C8.9505 17.2379 7.8165 17.4539 6.5085 17.4539C5.2005 17.4539 4.0605 17.2379 3.0885 16.8059C2.1285 16.3739 1.3905 15.7739 0.874495 15.0059C0.358495 14.2499 0.100496 13.3859 0.100496 12.4139ZM1.2885 12.4139C1.2885 13.1459 1.4925 13.7879 1.9005 14.3399C2.3085 14.9039 2.9025 15.3419 3.6825 15.6539C4.4625 15.9659 5.4045 16.1219 6.5085 16.1219C7.6125 16.1219 8.5545 15.9659 9.3345 15.6539C10.1145 15.3419 10.7085 14.9039 11.1165 14.3399C11.5245 13.7879 11.7285 13.1459 11.7285 12.4139C11.7285 11.6819 11.5245 11.0339 11.1165 10.4699C10.7085 9.91793 10.1145 9.48593 9.3345 9.17393C8.5545 8.86193 7.6125 8.70593 6.5085 8.70593C5.4045 8.70593 4.4625 8.86193 3.6825 9.17393C2.9025 9.48593 2.3085 9.91793 1.9005 10.4699C1.4925 11.0339 1.2885 11.6819 1.2885 12.4139ZM0.100495 29.0428C0.100495 28.0708 0.358495 27.2008 0.874495 26.4328C1.39049 25.6768 2.12849 25.0828 3.08849 24.6508C4.06049 24.2308 5.20049 24.0208 6.50849 24.0208C7.81649 24.0208 8.95049 24.2308 9.91049 24.6508C10.8825 25.0828 11.6265 25.6768 12.1425 26.4328C12.6585 27.2008 12.9165 28.0708 12.9165 29.0428C12.9165 30.0148 12.6585 30.8788 12.1425 31.6348C11.6265 32.4028 10.8825 33.0028 9.91049 33.4348C8.95049 33.8668 7.81649 34.0828 6.50849 34.0828C5.20049 34.0828 4.06049 33.8668 3.08849 33.4348C2.12849 33.0028 1.39049 32.4028 0.874495 31.6348C0.358495 30.8788 0.100495 30.0148 0.100495 29.0428ZM1.28849 29.0428C1.28849 29.7748 1.49249 30.4168 1.90049 30.9688C2.30849 31.5328 2.90249 31.9708 3.68249 32.2828C4.46249 32.5948 5.40449 32.7508 6.50849 32.7508C7.61249 32.7508 8.55449 32.5948 9.3345 32.2828C10.1145 31.9708 10.7085 31.5328 11.1165 30.9688C11.5245 30.4168 11.7285 29.7748 11.7285 29.0428C11.7285 28.3108 11.5245 27.6628 11.1165 27.0988C10.7085 26.5468 10.1145 26.1148 9.3345 25.8028C8.5545 25.4908 7.61249 25.3348 6.50849 25.3348C5.40449 25.3348 4.46249 25.4908 3.6825 25.8028C2.9025 26.1148 2.3085 26.5468 1.90049 27.0988C1.49249 27.6628 1.28849 28.3108 1.28849 29.0428ZM0.100494 40.9608C0.100494 39.9888 0.358494 39.1188 0.874494 38.3508C1.39049 37.5948 2.12849 37.0008 3.08849 36.5688C4.06049 36.1488 5.20049 35.9388 6.50849 35.9388C7.81649 35.9388 8.95049 36.1488 9.91049 36.5688C10.8825 37.0008 11.6265 37.5948 12.1425 38.3508C12.6585 39.1188 12.9165 39.9888 12.9165 40.9608C12.9165 41.9328 12.6585 42.7968 12.1425 43.5528C11.6265 44.3208 10.8825 44.9208 9.91049 45.3528C8.95049 45.7848 7.81649 46.0008 6.50849 46.0008C5.20049 46.0008 4.06049 45.7848 3.08849 45.3528C2.12849 44.9208 1.39049 44.3208 0.874494 43.5528C0.358494 42.7968 0.100494 41.9328 0.100494 40.9608ZM1.28849 40.9608C1.28849 41.6928 1.49249 42.3348 1.90049 42.8868C2.30849 43.4508 2.90249 43.8888 3.68249 44.2008C4.46249 44.5128 5.40449 44.6688 6.50849 44.6688C7.61249 44.6688 8.55449 44.5128 9.33449 44.2008C10.1145 43.8888 10.7085 43.4508 11.1165 42.8868C11.5245 42.3348 11.7285 41.6928 11.7285 40.9608C11.7285 40.2288 11.5245 39.5808 11.1165 39.0168C10.7085 38.4648 10.1145 38.0328 9.3345 37.7208C8.55449 37.4088 7.61249 37.2528 6.50849 37.2528C5.40449 37.2528 4.46249 37.4088 3.68249 37.7208C2.90249 38.0328 2.30849 38.4648 1.90049 39.0168C1.49249 39.5808 1.28849 40.2288 1.28849 40.9608ZM0.100494 52.8788C0.100494 51.9068 0.358494 51.0368 0.874494 50.2688C1.39049 49.5128 2.12849 48.9188 3.08849 48.4868C4.06049 48.0668 5.20049 47.8568 6.50849 47.8568C7.81649 47.8568 8.95049 48.0668 9.91049 48.4868C10.8825 48.9188 11.6265 49.5128 12.1425 50.2688C12.6585 51.0368 12.9165 51.9068 12.9165 52.8788C12.9165 53.8508 12.6585 54.7148 12.1425 55.4708C11.6265 56.2388 10.8825 56.8388 9.91049 57.2708C8.95049 57.7028 7.81649 57.9188 6.50849 57.9188C5.20049 57.9188 4.06049 57.7028 3.08849 57.2708C2.12849 56.8388 1.39049 56.2388 0.874494 55.4708C0.358494 54.7148 0.100494 53.8508 0.100494 52.8788ZM1.28849 52.8788C1.28849 53.6108 1.49249 54.2528 1.90049 54.8048C2.30849 55.3688 2.90249 55.8068 3.68249 56.1188C4.46249 56.4308 5.40449 56.5868 6.50849 56.5868C7.61249 56.5868 8.55449 56.4308 9.33449 56.1188C10.1145 55.8068 10.7085 55.3688 11.1165 54.8048C11.5245 54.2528 11.7285 53.6108 11.7285 52.8788C11.7285 52.1468 11.5245 51.4988 11.1165 50.9348C10.7085 50.3828 10.1145 49.9508 9.33449 49.6388C8.55449 49.3268 7.61249 49.1708 6.50849 49.1708C5.40449 49.1708 4.46249 49.3268 3.68249 49.6388C2.90249 49.9508 2.30849 50.3828 1.90049 50.9348C1.49249 51.4988 1.28849 52.1468 1.28849 52.8788ZM9.67649 72.5137L0.208493 72.5137L0.208493 71.2357L4.15049 71.2357C3.67049 70.1437 3.43049 69.0697 3.43049 68.0137C3.43049 66.8737 3.68849 65.9857 4.20449 65.3497C4.73249 64.7137 5.51849 64.3957 6.56249 64.3957L9.67649 64.3957L9.67649 65.6737L6.63449 65.6737C5.92649 65.6737 5.38649 65.9017 5.01449 66.3577C4.65449 66.8137 4.47449 67.4437 4.47449 68.2477C4.47449 69.1357 4.70849 70.1317 5.17649 71.2357L9.67649 71.2357L9.67649 72.5137ZM4.54649 84.4231L4.54649 76.5031C3.56249 76.5751 2.76449 76.9531 2.15249 77.6371C1.55249 78.3211 1.25249 79.1851 1.25249 80.2291C1.25249 80.8171 1.35449 81.3571 1.55849 81.8491C1.77449 82.3411 2.08649 82.7671 2.49449 83.1271L1.66649 83.8471C1.16249 83.4271 0.778493 82.8991 0.514493 82.2631C0.250493 81.6391 0.118493 80.9491 0.118493 80.1931C0.118493 79.2211 0.322493 78.3571 0.730493 77.6011C1.15049 76.8571 1.72649 76.2751 2.45849 75.8551C3.19049 75.4351 4.01849 75.2251 4.94249 75.2251C5.86649 75.2251 6.69449 75.4231 7.42649 75.8191C8.15849 76.2271 8.72849 76.7791 9.13649 77.4751C9.54449 78.1831 9.74849 78.9751 9.74849 79.8511C9.74849 80.7271 9.54449 81.5131 9.13649 82.2091C8.72849 82.9051 8.15849 83.4511 7.42649 83.8471C6.70649 84.2431 5.87849 84.4411 4.94249 84.4411L4.54649 84.4231ZM8.65049 79.8511C8.65049 78.9391 8.35649 78.1711 7.76849 77.5471C7.19249 76.9351 6.43649 76.5871 5.50049 76.5031L5.50049 83.2171C6.43649 83.1331 7.19249 82.7791 7.76849 82.1551C8.35649 81.5431 8.65049 80.7751 8.65049 79.8511ZM9.67649 94.8167L0.208492 94.8167L0.208492 93.5387L8.54249 93.5387L8.54249 89.0027L6.20249 88.8767C4.23449 88.7807 2.72249 88.5527 1.66649 88.1927C0.610492 87.8327 0.0824924 87.1907 0.0824924 86.2667C0.0824924 86.0147 0.130492 85.7087 0.226492 85.3487L1.32449 85.4387C1.27649 85.6547 1.25249 85.8047 1.25249 85.8887C1.25249 86.3807 1.48049 86.7527 1.93649 87.0047C2.39249 87.2567 2.95649 87.4247 3.62849 87.5087C4.30049 87.5927 5.18849 87.6647 6.29249 87.7247L9.67649 87.8867L9.67649 94.8167ZM0.118492 98.5397C0.118492 98.2757 0.214492 98.0477 0.406492 97.8557C0.598492 97.6757 0.832492 97.5857 1.10849 97.5857C1.38449 97.5857 1.61249 97.6757 1.79249 97.8557C1.98449 98.0477 2.08049 98.2757 2.08049 98.5397C2.08049 98.8037 1.98449 99.0317 1.79249 99.2237C1.61249 99.4157 1.38449 99.5117 1.10849 99.5117C0.832492 99.5117 0.598492 99.4157 0.406492 99.2237C0.214492 99.0317 0.118492 98.8037 0.118492 98.5397Z" fill="white"/>
</svg>
