<svg width="13" height="95" viewBox="0 0 13 95" fill="none" xmlns="http://www.w3.org/2000/svg">
<path d="M12.7821 5.03628L0.182129 5.03628L0.182129 3.74028L11.6301 3.74028L11.6301 0.770276L12.7821 0.770276L12.7821 5.03628ZM12.7821 11.5402L0.182128 11.5402L0.182128 10.2442L11.6301 10.2442L11.6301 7.27418L12.7821 7.27418L12.7821 11.5402ZM0.0741279 24.285C0.0741279 23.313 0.332128 22.443 0.848128 21.675C1.36413 20.919 2.10213 20.325 3.06213 19.893C4.03413 19.473 5.17413 19.263 6.48213 19.263C7.79013 19.263 8.92413 19.473 9.88413 19.893C10.8561 20.325 11.6001 20.919 12.1161 21.675C12.6321 22.443 12.8901 23.313 12.8901 24.285C12.8901 25.257 12.6321 26.121 12.1161 26.877C11.6001 27.645 10.8561 28.245 9.88413 28.677C8.92413 29.109 7.79013 29.325 6.48213 29.325C5.17413 29.325 4.03413 29.109 3.06213 28.677C2.10213 28.245 1.36413 27.645 0.848128 26.877C0.332128 26.121 0.0741279 25.257 0.0741279 24.285ZM1.26213 24.285C1.26213 25.017 1.46613 25.659 1.87413 26.211C2.28213 26.775 2.87613 27.213 3.65613 27.525C4.43613 27.837 5.37813 27.993 6.48213 27.993C7.58613 27.993 8.52813 27.837 9.30813 27.525C10.0881 27.213 10.6821 26.775 11.0901 26.211C11.4981 25.659 11.7021 25.017 11.7021 24.285C11.7021 23.553 11.4981 22.905 11.0901 22.341C10.6821 21.789 10.0881 21.357 9.30813 21.045C8.52813 20.733 7.58613 20.577 6.48213 20.577C5.37813 20.577 4.43613 20.733 3.65613 21.045C2.87613 21.357 2.28213 21.789 1.87413 22.341C1.46613 22.905 1.26213 23.553 1.26213 24.285ZM0.0741274 36.203C0.0741274 35.231 0.332127 34.361 0.848128 33.593C1.36413 32.837 2.10213 32.243 3.06213 31.811C4.03413 31.391 5.17413 31.181 6.48213 31.181C7.79013 31.181 8.92413 31.391 9.88413 31.811C10.8561 32.243 11.6001 32.837 12.1161 33.593C12.6321 34.361 12.8901 35.231 12.8901 36.203C12.8901 37.175 12.6321 38.039 12.1161 38.795C11.6001 39.563 10.8561 40.163 9.88413 40.595C8.92413 41.027 7.79013 41.243 6.48213 41.243C5.17413 41.243 4.03413 41.027 3.06213 40.595C2.10213 40.163 1.36413 39.563 0.848127 38.795C0.332127 38.039 0.0741273 37.175 0.0741274 36.203ZM1.26213 36.203C1.26213 36.935 1.46613 37.577 1.87413 38.129C2.28213 38.693 2.87613 39.131 3.65613 39.443C4.43613 39.755 5.37813 39.911 6.48213 39.911C7.58613 39.911 8.52813 39.755 9.30813 39.443C10.0881 39.131 10.6821 38.693 11.0901 38.129C11.4981 37.577 11.7021 36.935 11.7021 36.203C11.7021 35.471 11.4981 34.823 11.0901 34.259C10.6821 33.707 10.0881 33.275 9.30813 32.963C8.52813 32.651 7.58613 32.495 6.48213 32.495C5.37813 32.495 4.43613 32.651 3.65613 32.963C2.87613 33.275 2.28213 33.707 1.87413 34.259C1.46613 34.823 1.26213 35.471 1.26213 36.203ZM0.0741269 48.121C0.0741269 47.149 0.332127 46.279 0.848127 45.511C1.36413 44.755 2.10213 44.161 3.06213 43.729C4.03413 43.309 5.17413 43.099 6.48213 43.099C7.79013 43.099 8.92413 43.309 9.88413 43.729C10.8561 44.161 11.6001 44.755 12.1161 45.511C12.6321 46.279 12.8901 47.149 12.8901 48.121C12.8901 49.093 12.6321 49.957 12.1161 50.713C11.6001 51.481 10.8561 52.081 9.88413 52.513C8.92413 52.945 7.79013 53.161 6.48213 53.161C5.17413 53.161 4.03413 52.945 3.06213 52.513C2.10213 52.081 1.36413 51.481 0.848127 50.713C0.332127 49.957 0.0741268 49.093 0.0741269 48.121ZM1.26213 48.121C1.26213 48.853 1.46613 49.495 1.87413 50.047C2.28213 50.611 2.87613 51.049 3.65613 51.361C4.43613 51.673 5.37813 51.829 6.48213 51.829C7.58613 51.829 8.52813 51.673 9.30813 51.361C10.0881 51.049 10.6821 50.611 11.0901 50.047C11.4981 49.495 11.7021 48.853 11.7021 48.121C11.7021 47.389 11.4981 46.741 11.0901 46.177C10.6821 45.625 10.0881 45.193 9.30813 44.881C8.52813 44.569 7.58613 44.413 6.48213 44.413C5.37813 44.413 4.43613 44.569 3.65613 44.881C2.87613 45.193 2.28213 45.625 1.87413 46.177C1.46613 46.741 1.26213 47.389 1.26213 48.121ZM9.65013 67.7559L0.182126 67.7559L0.182126 66.4779L4.12413 66.4779C3.64413 65.3859 3.40413 64.3119 3.40413 63.2559C3.40413 62.1159 3.66213 61.2279 4.17813 60.5919C4.70613 59.9559 5.49213 59.6379 6.53613 59.6379L9.65013 59.6379L9.65013 60.9159L6.60813 60.9159C5.90013 60.9159 5.36013 61.1439 4.98813 61.5999C4.62813 62.0559 4.44813 62.6859 4.44813 63.4899C4.44813 64.3779 4.68213 65.3739 5.15013 66.4779L9.65013 66.4779L9.65013 67.7559ZM4.52013 79.6653L4.52013 71.7453C3.53613 71.8173 2.73813 72.1953 2.12613 72.8793C1.52613 73.5633 1.22613 74.4273 1.22613 75.4713C1.22613 76.0593 1.32813 76.5993 1.53213 77.0913C1.74813 77.5833 2.06013 78.0093 2.46813 78.3693L1.64013 79.0893C1.13613 78.6693 0.752126 78.1413 0.488126 77.5053C0.224126 76.8813 0.0921257 76.1913 0.0921257 75.4353C0.0921257 74.4633 0.296126 73.5993 0.704126 72.8433C1.12413 72.0993 1.70013 71.5173 2.43213 71.0973C3.16413 70.6773 3.99213 70.4673 4.91613 70.4673C5.84013 70.4673 6.66813 70.6653 7.40013 71.0613C8.13213 71.4693 8.70213 72.0213 9.11013 72.7173C9.51813 73.4253 9.72213 74.2173 9.72213 75.0933C9.72213 75.9693 9.51813 76.7553 9.11013 77.4513C8.70213 78.1473 8.13213 78.6933 7.40013 79.0893C6.68013 79.4853 5.85213 79.6833 4.91613 79.6833L4.52013 79.6653ZM8.62413 75.0933C8.62413 74.1813 8.33013 73.4133 7.74213 72.7893C7.16613 72.1773 6.41013 71.8293 5.47413 71.7453L5.47413 78.4593C6.41013 78.3753 7.16613 78.0213 7.74213 77.3973C8.33013 76.7853 8.62413 76.0173 8.62413 75.0933ZM9.65013 90.0589L0.182125 90.0589L0.182125 88.7809L8.51613 88.7809L8.51613 84.2449L6.17613 84.1189C4.20813 84.0229 2.69613 83.7949 1.64013 83.4349C0.584125 83.0749 0.0561254 82.4329 0.0561254 81.5089C0.0561255 81.2569 0.104125 80.9509 0.200125 80.5909L1.29813 80.6809C1.25013 80.8969 1.22613 81.0469 1.22613 81.1309C1.22613 81.6229 1.45413 81.9949 1.91013 82.2469C2.36613 82.4989 2.93013 82.6669 3.60213 82.7509C4.27413 82.8349 5.16213 82.9069 6.26613 82.9669L9.65013 83.1289L9.65013 90.0589ZM0.0921249 93.7819C0.0921249 93.5179 0.188125 93.2899 0.380125 93.0979C0.572125 92.9179 0.806125 92.8279 1.08212 92.8279C1.35812 92.8279 1.58612 92.9179 1.76612 93.0979C1.95812 93.2899 2.05412 93.5179 2.05412 93.7819C2.05412 94.0459 1.95812 94.2739 1.76612 94.4659C1.58612 94.6579 1.35812 94.7539 1.08212 94.7539C0.806125 94.7539 0.572125 94.6579 0.380125 94.4659C0.188125 94.2739 0.0921249 94.0459 0.0921249 93.7819Z" fill="white"/>
</svg>
