<svg width="13" height="99" viewBox="0 0 13 99" fill="none" xmlns="http://www.w3.org/2000/svg">
<path d="M12.7558 4.93056L0.155762 4.93056L0.155762 3.63456L11.6038 3.63456L11.6038 0.664563L12.7558 0.664563L12.7558 4.93056ZM1.30776 16.5465L0.155761 16.5465L0.155761 7.70847L1.07376 7.70847L6.20376 12.9465C6.85176 13.6065 7.40976 14.0505 7.87776 14.2785C8.35776 14.5185 8.83776 14.6385 9.31776 14.6385C10.0618 14.6385 10.6378 14.3805 11.0458 13.8645C11.4658 13.3605 11.6758 12.6345 11.6758 11.6865C11.6758 10.2105 11.2078 9.06447 10.2718 8.24847L11.0638 7.33047C11.6398 7.82247 12.0838 8.44647 12.3958 9.20247C12.7078 9.97047 12.8638 10.8345 12.8638 11.7945C12.8638 13.0785 12.5578 14.0925 11.9458 14.8365C11.3458 15.5925 10.5178 15.9705 9.46176 15.9705C8.81376 15.9705 8.18976 15.8265 7.58976 15.5385C6.98976 15.2505 6.29976 14.7045 5.51976 13.9005L1.30776 9.61647L1.30776 16.5465ZM0.0477605 27.9059C0.0477606 26.9339 0.305761 26.0639 0.821761 25.2959C1.33776 24.5399 2.07576 23.9459 3.03576 23.5139C4.00776 23.0939 5.14776 22.8839 6.45576 22.8839C7.76376 22.8839 8.89776 23.0939 9.85776 23.5139C10.8298 23.9459 11.5738 24.5399 12.0898 25.2959C12.6058 26.0639 12.8638 26.9339 12.8638 27.9059C12.8638 28.8779 12.6058 29.7419 12.0898 30.4979C11.5738 31.2659 10.8298 31.8659 9.85776 32.2979C8.89776 32.7299 7.76376 32.9459 6.45576 32.9459C5.14776 32.9459 4.00776 32.7299 3.03576 32.2979C2.07576 31.8659 1.33776 31.2659 0.82176 30.4979C0.30576 29.7419 0.0477605 28.8779 0.0477605 27.9059ZM1.23576 27.9059C1.23576 28.6379 1.43976 29.2799 1.84776 29.8319C2.25576 30.3959 2.84976 30.8339 3.62976 31.1459C4.40976 31.4579 5.35176 31.6139 6.45576 31.6139C7.55976 31.6139 8.50176 31.4579 9.28176 31.1459C10.0618 30.8339 10.6558 30.3959 11.0638 29.8319C11.4718 29.2799 11.6758 28.6379 11.6758 27.9059C11.6758 27.1739 11.4718 26.5259 11.0638 25.9619C10.6558 25.4099 10.0618 24.9779 9.28176 24.6659C8.50176 24.3539 7.55976 24.1979 6.45576 24.1979C5.35176 24.1979 4.40976 24.3539 3.62976 24.6659C2.84976 24.9779 2.25576 25.4099 1.84776 25.9619C1.43976 26.5259 1.23576 27.1739 1.23576 27.9059ZM0.04776 39.8238C0.0477601 38.8518 0.30576 37.9818 0.82176 37.2138C1.33776 36.4578 2.07576 35.8638 3.03576 35.4318C4.00776 35.0118 5.14776 34.8018 6.45576 34.8018C7.76376 34.8018 8.89776 35.0118 9.85776 35.4318C10.8298 35.8638 11.5738 36.4578 12.0898 37.2138C12.6058 37.9818 12.8638 38.8518 12.8638 39.8238C12.8638 40.7958 12.6058 41.6598 12.0898 42.4158C11.5738 43.1838 10.8298 43.7838 9.85776 44.2158C8.89776 44.6478 7.76376 44.8638 6.45576 44.8638C5.14776 44.8638 4.00776 44.6478 3.03576 44.2158C2.07576 43.7838 1.33776 43.1838 0.82176 42.4158C0.30576 41.6598 0.04776 40.7958 0.04776 39.8238ZM1.23576 39.8238C1.23576 40.5558 1.43976 41.1978 1.84776 41.7498C2.25576 42.3138 2.84976 42.7518 3.62976 43.0638C4.40976 43.3758 5.35176 43.5318 6.45576 43.5318C7.55976 43.5318 8.50176 43.3758 9.28176 43.0638C10.0618 42.7518 10.6558 42.3138 11.0638 41.7498C11.4718 41.1978 11.6758 40.5558 11.6758 39.8238C11.6758 39.0918 11.4718 38.4438 11.0638 37.8798C10.6558 37.3278 10.0618 36.8958 9.28176 36.5838C8.50176 36.2718 7.55976 36.1158 6.45576 36.1158C5.35176 36.1158 4.40976 36.2718 3.62976 36.5838C2.84976 36.8958 2.25576 37.3278 1.84776 37.8798C1.43976 38.4438 1.23576 39.0918 1.23576 39.8238ZM0.0477595 51.7418C0.0477596 50.7698 0.30576 49.8998 0.82176 49.1318C1.33776 48.3758 2.07576 47.7818 3.03576 47.3498C4.00776 46.9298 5.14776 46.7198 6.45576 46.7198C7.76376 46.7198 8.89776 46.9298 9.85776 47.3498C10.8298 47.7818 11.5738 48.3758 12.0898 49.1318C12.6058 49.8998 12.8638 50.7698 12.8638 51.7418C12.8638 52.7138 12.6058 53.5778 12.0898 54.3338C11.5738 55.1018 10.8298 55.7018 9.85776 56.1338C8.89776 56.5658 7.76376 56.7818 6.45576 56.7818C5.14776 56.7818 4.00776 56.5658 3.03576 56.1338C2.07576 55.7018 1.33776 55.1018 0.821759 54.3338C0.305759 53.5778 0.0477595 52.7138 0.0477595 51.7418ZM1.23576 51.7418C1.23576 52.4738 1.43976 53.1158 1.84776 53.6678C2.25576 54.2318 2.84976 54.6698 3.62976 54.9818C4.40976 55.2938 5.35176 55.4498 6.45576 55.4498C7.55976 55.4498 8.50176 55.2938 9.28176 54.9818C10.0618 54.6698 10.6558 54.2318 11.0638 53.6678C11.4718 53.1158 11.6758 52.4738 11.6758 51.7418C11.6758 51.0098 11.4718 50.3618 11.0638 49.7978C10.6558 49.2458 10.0618 48.8138 9.28176 48.5018C8.50176 48.1898 7.55976 48.0338 6.45576 48.0338C5.35176 48.0338 4.40976 48.1898 3.62976 48.5018C2.84976 48.8138 2.25576 49.2458 1.84776 49.7978C1.43976 50.3618 1.23576 51.0098 1.23576 51.7418ZM9.62376 71.3767L0.155759 71.3767L0.155759 70.0987L4.09776 70.0987C3.61776 69.0067 3.37776 67.9327 3.37776 66.8767C3.37776 65.7367 3.63576 64.8487 4.15176 64.2127C4.67976 63.5767 5.46576 63.2587 6.50976 63.2587L9.62376 63.2587L9.62376 64.5367L6.58176 64.5367C5.87376 64.5367 5.33376 64.7647 4.96176 65.2207C4.60176 65.6767 4.42176 66.3067 4.42176 67.1107C4.42176 67.9987 4.65576 68.9947 5.12376 70.0987L9.62376 70.0987L9.62376 71.3767ZM4.49376 83.2861L4.49376 75.3661C3.50976 75.4381 2.71176 75.8161 2.09976 76.5001C1.49976 77.1841 1.19976 78.0481 1.19976 79.0921C1.19976 79.6801 1.30176 80.2201 1.50576 80.7121C1.72176 81.2041 2.03376 81.6301 2.44176 81.9901L1.61376 82.7101C1.10976 82.2901 0.725758 81.7621 0.461758 81.1261C0.197758 80.5021 0.0657583 79.8121 0.0657584 79.0561C0.0657584 78.0841 0.269758 77.2201 0.677758 76.4641C1.09776 75.7201 1.67376 75.1381 2.40576 74.7181C3.13776 74.2981 3.96576 74.0881 4.88976 74.0881C5.81376 74.0881 6.64176 74.2861 7.37376 74.6821C8.10576 75.0901 8.67576 75.6421 9.08376 76.3381C9.49176 77.0461 9.69576 77.8381 9.69576 78.7141C9.69576 79.5901 9.49176 80.3761 9.08376 81.0721C8.67576 81.7681 8.10576 82.3141 7.37376 82.7101C6.65376 83.1061 5.82576 83.3041 4.88976 83.3041L4.49376 83.2861ZM8.59776 78.7141C8.59776 77.8021 8.30376 77.0341 7.71576 76.4101C7.13976 75.7981 6.38376 75.4501 5.44776 75.3661L5.44776 82.0801C6.38376 81.9961 7.13976 81.6421 7.71576 81.0181C8.30376 80.4061 8.59776 79.6381 8.59776 78.7141ZM9.62376 93.6797L0.155758 93.6797L0.155758 92.4017L8.48976 92.4017L8.48976 87.8657L6.14976 87.7397C4.18176 87.6437 2.66976 87.4157 1.61376 87.0557C0.557758 86.6957 0.0297581 86.0537 0.0297581 85.1297C0.0297581 84.8777 0.0777581 84.5717 0.173758 84.2117L1.27176 84.3017C1.22376 84.5177 1.19976 84.6677 1.19976 84.7517C1.19976 85.2437 1.42776 85.6157 1.88376 85.8677C2.33976 86.1197 2.90376 86.2877 3.57576 86.3717C4.24776 86.4557 5.13576 86.5277 6.23976 86.5877L9.62376 86.7497L9.62376 93.6797ZM0.0657576 97.4028C0.0657576 97.1388 0.161758 96.9108 0.353758 96.7188C0.545758 96.5388 0.779758 96.4488 1.05576 96.4488C1.33176 96.4488 1.55976 96.5388 1.73976 96.7188C1.93176 96.9108 2.02776 97.1388 2.02776 97.4028C2.02776 97.6668 1.93176 97.8948 1.73976 98.0868C1.55976 98.2788 1.33176 98.3748 1.05576 98.3748C0.779758 98.3748 0.545758 98.2788 0.353758 98.0868C0.161758 97.8948 0.0657576 97.6668 0.0657576 97.4028Z" fill="white"/>
</svg>
