<svg width="13" height="99" viewBox="0 0 13 99" fill="none" xmlns="http://www.w3.org/2000/svg">
<path d="M12.7299 5.17837L0.129883 5.17837L0.129883 3.88237L11.5779 3.88237L11.5779 0.912366L12.7299 0.912366L12.7299 5.17837ZM12.7299 17.0823L11.8119 17.0823L0.129882 11.8083L0.129882 10.4043L11.5779 15.5883L11.5779 9.10827L9.21988 9.10827L9.21988 7.83027L12.7299 7.83027L12.7299 17.0823ZM0.0218816 28.5228C0.0218817 27.5508 0.279882 26.6808 0.795882 25.9128C1.31188 25.1568 2.04988 24.5628 3.00988 24.1308C3.98188 23.7108 5.12188 23.5008 6.42988 23.5008C7.73788 23.5008 8.87188 23.7108 9.83188 24.1308C10.8039 24.5628 11.5479 25.1568 12.0639 25.9128C12.5799 26.6808 12.8379 27.5508 12.8379 28.5228C12.8379 29.4948 12.5799 30.3588 12.0639 31.1148C11.5479 31.8828 10.8039 32.4828 9.83188 32.9148C8.87188 33.3468 7.73788 33.5628 6.42988 33.5628C5.12188 33.5628 3.98188 33.3468 3.00988 32.9148C2.04988 32.4828 1.31188 31.8828 0.795882 31.1148C0.279882 30.3588 0.0218816 29.4948 0.0218816 28.5228ZM1.20988 28.5228C1.20988 29.2548 1.41388 29.8968 1.82188 30.4488C2.22988 31.0128 2.82388 31.4508 3.60388 31.7628C4.38388 32.0748 5.32588 32.2308 6.42988 32.2308C7.53388 32.2308 8.47588 32.0748 9.25588 31.7628C10.0359 31.4508 10.6299 31.0128 11.0379 30.4488C11.4459 29.8968 11.6499 29.2548 11.6499 28.5228C11.6499 27.7908 11.4459 27.1428 11.0379 26.5788C10.6299 26.0268 10.0359 25.5948 9.25588 25.2828C8.47588 24.9708 7.53388 24.8148 6.42988 24.8148C5.32588 24.8148 4.38388 24.9708 3.60388 25.2828C2.82388 25.5948 2.22988 26.0268 1.82188 26.5788C1.41388 27.1428 1.20988 27.7908 1.20988 28.5228ZM0.0218811 40.4408C0.0218812 39.4688 0.279881 38.5988 0.795881 37.8308C1.31188 37.0748 2.04988 36.4808 3.00988 36.0488C3.98188 35.6288 5.12188 35.4188 6.42988 35.4188C7.73788 35.4188 8.87188 35.6288 9.83188 36.0488C10.8039 36.4808 11.5479 37.0748 12.0639 37.8308C12.5799 38.5988 12.8379 39.4688 12.8379 40.4408C12.8379 41.4128 12.5799 42.2768 12.0639 43.0328C11.5479 43.8008 10.8039 44.4008 9.83188 44.8328C8.87188 45.2648 7.73788 45.4808 6.42988 45.4808C5.12188 45.4808 3.98188 45.2648 3.00988 44.8328C2.04988 44.4008 1.31188 43.8008 0.795881 43.0328C0.279881 42.2768 0.0218811 41.4128 0.0218811 40.4408ZM1.20988 40.4408C1.20988 41.1728 1.41388 41.8148 1.82188 42.3668C2.22988 42.9308 2.82388 43.3688 3.60388 43.6808C4.38388 43.9928 5.32588 44.1488 6.42988 44.1488C7.53388 44.1488 8.47588 43.9928 9.25588 43.6808C10.0359 43.3688 10.6299 42.9308 11.0379 42.3668C11.4459 41.8148 11.6499 41.1728 11.6499 40.4408C11.6499 39.7088 11.4459 39.0608 11.0379 38.4968C10.6299 37.9448 10.0359 37.5128 9.25588 37.2008C8.47588 36.8888 7.53388 36.7328 6.42988 36.7328C5.32588 36.7328 4.38388 36.8888 3.60388 37.2008C2.82388 37.5128 2.22988 37.9448 1.82188 38.4968C1.41388 39.0608 1.20988 39.7088 1.20988 40.4408ZM0.0218806 52.3588C0.0218806 51.3868 0.279881 50.5168 0.795881 49.7488C1.31188 48.9928 2.04988 48.3988 3.00988 47.9668C3.98188 47.5468 5.12188 47.3368 6.42988 47.3368C7.73788 47.3368 8.87188 47.5468 9.83188 47.9668C10.8039 48.3988 11.5479 48.9928 12.0639 49.7488C12.5799 50.5168 12.8379 51.3868 12.8379 52.3588C12.8379 53.3308 12.5799 54.1948 12.0639 54.9508C11.5479 55.7188 10.8039 56.3188 9.83188 56.7508C8.87188 57.1828 7.73788 57.3988 6.42988 57.3988C5.12188 57.3988 3.98188 57.1828 3.00988 56.7508C2.04988 56.3188 1.31188 55.7188 0.795881 54.9508C0.279881 54.1948 0.0218806 53.3308 0.0218806 52.3588ZM1.20988 52.3588C1.20988 53.0908 1.41388 53.7328 1.82188 54.2848C2.22988 54.8488 2.82388 55.2868 3.60388 55.5988C4.38388 55.9108 5.32588 56.0668 6.42988 56.0668C7.53388 56.0668 8.47588 55.9108 9.25588 55.5988C10.0359 55.2868 10.6299 54.8488 11.0379 54.2848C11.4459 53.7328 11.6499 53.0908 11.6499 52.3588C11.6499 51.6268 11.4459 50.9788 11.0379 50.4148C10.6299 49.8628 10.0359 49.4308 9.25588 49.1188C8.47588 48.8068 7.53388 48.6508 6.42988 48.6508C5.32588 48.6508 4.38388 48.8068 3.60388 49.1188C2.82388 49.4308 2.22988 49.8628 1.82188 50.4148C1.41388 50.9788 1.20988 51.6268 1.20988 52.3588ZM9.59788 71.9937L0.12988 71.9937L0.12988 70.7157L4.07188 70.7157C3.59188 69.6237 3.35188 68.5497 3.35188 67.4937C3.35188 66.3537 3.60988 65.4657 4.12588 64.8297C4.65388 64.1937 5.43988 63.8757 6.48388 63.8757L9.59788 63.8757L9.59788 65.1537L6.55588 65.1537C5.84788 65.1537 5.30788 65.3817 4.93588 65.8377C4.57588 66.2937 4.39588 66.9237 4.39588 67.7277C4.39588 68.6157 4.62988 69.6117 5.09788 70.7157L9.59788 70.7157L9.59788 71.9937ZM4.46788 83.9031L4.46788 75.9831C3.48388 76.0551 2.68588 76.4331 2.07388 77.1171C1.47388 77.8011 1.17388 78.6651 1.17388 79.7091C1.17388 80.2971 1.27588 80.8371 1.47988 81.3291C1.69588 81.8211 2.00788 82.2471 2.41588 82.6071L1.58788 83.3271C1.08388 82.9071 0.699879 82.3791 0.435879 81.7431C0.171879 81.1191 0.0398794 80.4291 0.0398794 79.6731C0.0398795 78.7011 0.24388 77.8371 0.65188 77.0811C1.07188 76.3371 1.64788 75.7551 2.37988 75.3351C3.11188 74.9151 3.93988 74.7051 4.86388 74.7051C5.78788 74.7051 6.61588 74.9031 7.34788 75.2991C8.07988 75.7071 8.64988 76.2591 9.05788 76.9551C9.46588 77.6631 9.66988 78.4551 9.66988 79.3311C9.66988 80.2071 9.46588 80.9931 9.05788 81.6891C8.64988 82.3851 8.07988 82.9311 7.34788 83.3271C6.62788 83.7231 5.79988 83.9211 4.86388 83.9211L4.46788 83.9031ZM8.57188 79.3311C8.57188 78.4191 8.27788 77.6511 7.68988 77.0271C7.11388 76.4151 6.35788 76.0671 5.42188 75.9831L5.42188 82.6971C6.35788 82.6131 7.11388 82.2591 7.68988 81.6351C8.27788 81.0231 8.57188 80.2551 8.57188 79.3311ZM9.59788 94.2966L0.129879 94.2966L0.129879 93.0186L8.46388 93.0186L8.46388 88.4826L6.12388 88.3566C4.15588 88.2606 2.64388 88.0326 1.58788 87.6726C0.531879 87.3126 0.00387913 86.6706 0.00387917 85.7466C0.00387918 85.4946 0.0518792 85.1886 0.147879 84.8286L1.24588 84.9186C1.19788 85.1346 1.17388 85.2846 1.17388 85.3686C1.17388 85.8606 1.40188 86.2326 1.85788 86.4846C2.31388 86.7366 2.87788 86.9046 3.54988 86.9886C4.22188 87.0726 5.10988 87.1446 6.21388 87.2046L9.59788 87.3666L9.59788 94.2966ZM0.0398787 98.0197C0.0398787 97.7557 0.135879 97.5277 0.327879 97.3357C0.519879 97.1557 0.753879 97.0657 1.02988 97.0657C1.30588 97.0657 1.53388 97.1557 1.71388 97.3357C1.90588 97.5277 2.00188 97.7557 2.00188 98.0197C2.00188 98.2837 1.90588 98.5117 1.71388 98.7037C1.53388 98.8957 1.30588 98.9917 1.02988 98.9917C0.753879 98.9917 0.519879 98.8957 0.327879 98.7037C0.135879 98.5117 0.0398786 98.2837 0.0398787 98.0197Z" fill="white"/>
</svg>
