<svg width="14" height="103" viewBox="0 0 14 103" fill="none" xmlns="http://www.w3.org/2000/svg">
<path d="M2.25552 10.0344L1.10352 10.0344L1.10352 1.19638L2.02152 1.19638L7.15152 6.43438C7.79952 7.09438 8.35752 7.53838 8.82552 7.76638C9.30552 8.00638 9.78552 8.12638 10.2655 8.12638C11.0095 8.12638 11.5855 7.86838 11.9935 7.35238C12.4135 6.84838 12.6235 6.12238 12.6235 5.17438C12.6235 3.69838 12.1555 2.55238 11.2195 1.73638L12.0115 0.818384C12.5875 1.31038 13.0315 1.93438 13.3435 2.69038C13.6555 3.45838 13.8115 4.32238 13.8115 5.28238C13.8115 6.56638 13.5055 7.58038 12.8935 8.32438C12.2935 9.08038 11.4655 9.45838 10.4095 9.45838C9.76152 9.45838 9.13752 9.31438 8.53752 9.02638C7.93752 8.73838 7.24752 8.19238 6.46752 7.38838L2.25552 3.10438L2.25552 10.0344ZM8.53751 14.9729C8.53751 16.7969 8.20751 18.1229 7.54752 18.9509C6.89951 19.7909 5.98751 20.2109 4.81151 20.2109C4.07951 20.2109 3.42551 20.0369 2.84951 19.6889C2.27351 19.3529 1.81751 18.8429 1.48151 18.1589C1.15751 17.4749 0.995515 16.6349 0.995515 15.6389C0.995515 14.7389 1.13952 13.8809 1.42752 13.0649C1.72752 12.2609 2.12352 11.6129 2.61552 11.1209L3.64152 11.7509C3.20952 12.1709 2.85552 12.7229 2.57952 13.4069C2.31552 14.0909 2.18351 14.8289 2.18351 15.6209C2.18351 16.6649 2.41751 17.4689 2.88551 18.0329C3.35351 18.6089 3.97751 18.8969 4.75751 18.8969C5.62151 18.8969 6.27551 18.5729 6.71951 17.9249C7.16352 17.2889 7.38552 16.2089 7.38552 14.6849L7.38552 12.0029L13.7035 12.6509L13.7035 19.5449L12.5515 19.5449L12.5515 13.7849L8.53751 13.3529L8.53751 14.9729ZM0.995514 31.5891C0.995514 30.6171 1.25351 29.7471 1.76951 28.9791C2.28551 28.2231 3.02351 27.6291 3.98351 27.1971C4.95551 26.7771 6.09551 26.5671 7.40351 26.5671C8.71151 26.5671 9.84551 26.7771 10.8055 27.1971C11.7775 27.6291 12.5215 28.2231 13.0375 28.9791C13.5535 29.7471 13.8115 30.6171 13.8115 31.5891C13.8115 32.5611 13.5535 33.4251 13.0375 34.1811C12.5215 34.9491 11.7775 35.5491 10.8055 35.9811C9.84551 36.4131 8.71151 36.6291 7.40351 36.6291C6.09551 36.6291 4.95551 36.4131 3.98351 35.9811C3.02351 35.5491 2.28551 34.9491 1.76951 34.1811C1.25351 33.4251 0.995514 32.5611 0.995514 31.5891ZM2.18351 31.5891C2.18351 32.3211 2.38751 32.9631 2.79551 33.5151C3.20351 34.0791 3.79751 34.5171 4.57751 34.8291C5.35751 35.1411 6.29951 35.2971 7.40351 35.2971C8.50751 35.2971 9.44951 35.1411 10.2295 34.8291C11.0095 34.5171 11.6035 34.0791 12.0115 33.5151C12.4195 32.9631 12.6235 32.3211 12.6235 31.5891C12.6235 30.8571 12.4195 30.2091 12.0115 29.6451C11.6035 29.0931 11.0095 28.6611 10.2295 28.3491C9.44951 28.0371 8.50751 27.8811 7.40351 27.8811C6.29951 27.8811 5.35751 28.0371 4.57751 28.3491C3.79751 28.6611 3.20351 29.0931 2.79551 29.6451C2.38751 30.2091 2.18351 30.8571 2.18351 31.5891ZM0.995514 43.5071C0.995514 42.5351 1.25351 41.6651 1.76951 40.8971C2.28551 40.1411 3.02351 39.5471 3.98351 39.1151C4.95551 38.6951 6.09551 38.4851 7.40351 38.4851C8.71151 38.4851 9.84551 38.6951 10.8055 39.1151C11.7775 39.5471 12.5215 40.1411 13.0375 40.8971C13.5535 41.6651 13.8115 42.5351 13.8115 43.5071C13.8115 44.4791 13.5535 45.3431 13.0375 46.0991C12.5215 46.8671 11.7775 47.4671 10.8055 47.8991C9.84551 48.3311 8.71151 48.5471 7.40351 48.5471C6.09551 48.5471 4.95551 48.3311 3.98351 47.8991C3.02351 47.4671 2.28551 46.8671 1.76951 46.0991C1.25351 45.3431 0.995514 44.4791 0.995514 43.5071ZM2.18351 43.5071C2.18351 44.2391 2.38751 44.8811 2.79551 45.4331C3.20351 45.9971 3.79751 46.4351 4.57751 46.7471C5.35751 47.0591 6.29951 47.2151 7.40351 47.2151C8.50751 47.2151 9.44951 47.0591 10.2295 46.7471C11.0095 46.4351 11.6035 45.9971 12.0115 45.4331C12.4195 44.8811 12.6235 44.2391 12.6235 43.5071C12.6235 42.7751 12.4195 42.1271 12.0115 41.5631C11.6035 41.0111 11.0095 40.5791 10.2295 40.2671C9.44951 39.9551 8.50751 39.7991 7.40351 39.7991C6.29951 39.7991 5.35751 39.9551 4.57751 40.2671C3.79751 40.5791 3.20351 41.0111 2.79551 41.5631C2.38751 42.1271 2.18351 42.7751 2.18351 43.5071ZM0.995513 55.425C0.995513 54.453 1.25351 53.583 1.76951 52.815C2.28551 52.059 3.02351 51.465 3.98351 51.033C4.95551 50.613 6.09551 50.403 7.40351 50.403C8.71151 50.403 9.84551 50.613 10.8055 51.033C11.7775 51.465 12.5215 52.059 13.0375 52.815C13.5535 53.583 13.8115 54.453 13.8115 55.425C13.8115 56.397 13.5535 57.261 13.0375 58.017C12.5215 58.785 11.7775 59.385 10.8055 59.817C9.84551 60.249 8.71151 60.465 7.40351 60.465C6.09551 60.465 4.95551 60.249 3.98351 59.817C3.02351 59.385 2.28551 58.785 1.76951 58.017C1.25351 57.261 0.995513 56.397 0.995513 55.425ZM2.18351 55.425C2.18351 56.157 2.38751 56.799 2.79551 57.351C3.20351 57.915 3.79751 58.353 4.57751 58.665C5.35751 58.977 6.29951 59.133 7.40351 59.133C8.50751 59.133 9.44951 58.977 10.2295 58.665C11.0095 58.353 11.6035 57.915 12.0115 57.351C12.4195 56.799 12.6235 56.157 12.6235 55.425C12.6235 54.693 12.4195 54.045 12.0115 53.481C11.6035 52.929 11.0095 52.497 10.2295 52.185C9.44951 51.873 8.50751 51.717 7.40351 51.717C6.29951 51.717 5.35751 51.873 4.57751 52.185C3.79751 52.497 3.20351 52.929 2.79551 53.481C2.38751 54.045 2.18351 54.693 2.18351 55.425ZM10.5715 75.0599L1.10351 75.0599L1.10351 73.7819L5.04551 73.7819C4.56551 72.6899 4.32551 71.6159 4.32551 70.5599C4.32551 69.4199 4.58351 68.5319 5.09951 67.8959C5.62751 67.2599 6.41351 66.9419 7.45751 66.9419L10.5715 66.9419L10.5715 68.2199L7.52951 68.2199C6.82151 68.2199 6.28151 68.4479 5.90951 68.9039C5.54951 69.3599 5.36951 69.9899 5.36951 70.7939C5.36951 71.6819 5.60351 72.6779 6.07151 73.7819L10.5715 73.7819L10.5715 75.0599ZM5.44151 86.9693L5.44151 79.0493C4.45751 79.1213 3.65951 79.4993 3.04751 80.1833C2.44751 80.8673 2.14751 81.7313 2.14751 82.7753C2.14751 83.3633 2.24951 83.9033 2.45351 84.3953C2.66951 84.8873 2.98151 85.3133 3.38951 85.6733L2.56151 86.3933C2.05751 85.9733 1.67351 85.4453 1.40951 84.8093C1.14551 84.1853 1.01351 83.4953 1.01351 82.7393C1.01351 81.7673 1.21751 80.9033 1.62551 80.1473C2.04551 79.4033 2.62151 78.8213 3.35351 78.4013C4.08551 77.9813 4.91351 77.7713 5.83751 77.7713C6.76151 77.7713 7.58951 77.9693 8.32151 78.3653C9.05351 78.7733 9.62351 79.3253 10.0315 80.0213C10.4395 80.7293 10.6435 81.5213 10.6435 82.3973C10.6435 83.2733 10.4395 84.0593 10.0315 84.7553C9.62351 85.4513 9.05351 85.9973 8.32151 86.3933C7.60151 86.7893 6.77351 86.9873 5.83751 86.9873L5.44151 86.9693ZM9.54551 82.3973C9.54551 81.4853 9.25151 80.7173 8.66351 80.0933C8.08751 79.4813 7.33151 79.1333 6.39551 79.0493L6.39551 85.7633C7.33151 85.6793 8.08751 85.3253 8.66351 84.7013C9.25151 84.0893 9.54551 83.3213 9.54551 82.3973ZM10.5715 97.3629L1.10351 97.3629L1.10351 96.0849L9.43751 96.0849L9.43751 91.5489L7.09751 91.4229C5.12951 91.3269 3.61751 91.0989 2.56151 90.7389C1.50551 90.3789 0.977512 89.7369 0.977512 88.8129C0.977512 88.5609 1.02551 88.2549 1.12151 87.8949L2.21951 87.9849C2.17151 88.2009 2.14751 88.3509 2.14751 88.4349C2.14751 88.9269 2.37551 89.2989 2.83151 89.5509C3.28751 89.8029 3.85151 89.9709 4.52351 90.0549C5.19551 90.1389 6.08351 90.2109 7.18751 90.2709L10.5715 90.4329L10.5715 97.3629ZM1.01351 101.086C1.01351 100.822 1.10951 100.594 1.30151 100.402C1.49351 100.222 1.72751 100.132 2.00351 100.132C2.27951 100.132 2.50751 100.222 2.68751 100.402C2.87951 100.594 2.97551 100.822 2.97551 101.086C2.97551 101.35 2.87951 101.578 2.68751 101.77C2.50751 101.962 2.27951 102.058 2.00351 102.058C1.72751 102.058 1.49351 101.962 1.30151 101.77C1.10951 101.578 1.01351 101.35 1.01351 101.086Z" fill="white"/>
</svg>
