<svg width="133" height="132" viewBox="0 0 133 132" fill="none" xmlns="http://www.w3.org/2000/svg">
<path d="M66.3853 0C29.8103 0 0 29.7143 0 66.1714V71.4286V81.7143V127.314C0 129.943 2.06379 132 4.70086 132H28.8931C31.5302 132 33.594 129.943 33.594 127.314V71.4286C33.594 68.8 31.5302 66.7429 28.8931 66.7429H9.40172V66.1714C9.40172 34.8571 34.9698 9.25714 66.5 9.25714C98.0302 9.25714 123.598 34.7429 123.598 66.1714V66.7429H104.107C101.47 66.7429 99.406 68.8 99.406 71.4286V127.314C99.406 129.943 101.47 132 104.107 132H128.299C130.936 132 133 129.943 133 127.314V81.7143V71.4286V66.1714C132.771 29.7143 102.96 0 66.3853 0ZM24.1922 76.1143V122.743H9.28707V81.7143V76H24.1922V76.1143ZM123.484 81.8286V122.743H108.693V76.2286H123.484V81.8286Z" fill="#E9E9E9"/>
</svg>
