<svg width="133" height="133" viewBox="0 0 133 133" fill="none" xmlns="http://www.w3.org/2000/svg">
<path d="M91.4375 0H41.5625C18.6117 0 0 18.6117 0 41.5625V91.4375C0 114.388 18.6117 133 41.5625 133H91.4375C114.388 133 133 114.388 133 91.4375V41.5625C133 18.6117 114.388 0 91.4375 0ZM120.531 91.4375C120.531 107.481 107.481 120.531 91.4375 120.531H41.5625C25.5194 120.531 12.4688 107.481 12.4688 91.4375V41.5625C12.4688 25.5194 25.5194 12.4688 41.5625 12.4688H91.4375C107.481 12.4688 120.531 25.5194 120.531 41.5625V91.4375Z" fill="#E9E9E9"/>
<path d="M66.5 33.25C48.1377 33.25 33.25 48.1377 33.25 66.5C33.25 84.8623 48.1377 99.75 66.5 99.75C84.8623 99.75 99.75 84.8623 99.75 66.5C99.75 48.1377 84.8623 33.25 66.5 33.25ZM66.5 87.2812C55.0454 87.2812 45.7188 77.9546 45.7188 66.5C45.7188 55.0371 55.0454 45.7188 66.5 45.7188C77.9546 45.7188 87.2812 55.0371 87.2812 66.5C87.2812 77.9546 77.9546 87.2812 66.5 87.2812Z" fill="#E9E9E9"/>
<path d="M102.244 35.1867C104.691 35.1867 106.675 33.2031 106.675 30.7562C106.675 28.3093 104.691 26.3256 102.244 26.3256C99.7976 26.3256 97.8139 28.3093 97.8139 30.7562C97.8139 33.2031 99.7976 35.1867 102.244 35.1867Z" fill="#E9E9E9"/>
</svg>
