<svg width="133" height="133" viewBox="0 0 133 133" fill="none" xmlns="http://www.w3.org/2000/svg">
<path d="M117.414 10.3906H111.18V0H100.789V10.3906H32.2109V0H21.8203V10.3906H15.5859C6.99185 10.3906 0 17.3825 0 25.9766V117.414C0 126.008 6.99185 133 15.5859 133H117.414C126.008 133 133 126.008 133 117.414V25.9766C133 17.3825 126.008 10.3906 117.414 10.3906ZM122.609 117.414C122.609 120.279 120.279 122.609 117.414 122.609H15.5859C12.7212 122.609 10.3906 120.279 10.3906 117.414V48.8359H122.609V117.414ZM122.609 38.4453H10.3906V25.9766C10.3906 23.1119 12.7212 20.7812 15.5859 20.7812H21.8203V31.1719H32.2109V20.7812H100.789V31.1719H111.18V20.7812H117.414C120.279 20.7812 122.609 23.1119 122.609 25.9766V38.4453Z" fill="#E9E9E9"/>
<path d="M30.1328 59.7461H19.7422V70.1367H30.1328V59.7461Z" fill="#E9E9E9"/>
<path d="M50.9141 59.7461H40.5234V70.1367H50.9141V59.7461Z" fill="#E9E9E9"/>
<path d="M71.6953 59.7461H61.3047V70.1367H71.6953V59.7461Z" fill="#E9E9E9"/>
<path d="M92.4766 59.7461H82.0859V70.1367H92.4766V59.7461Z" fill="#E9E9E9"/>
<path d="M113.258 59.7461H102.867V70.1367H113.258V59.7461Z" fill="#E9E9E9"/>
<path d="M30.1328 80.5273H19.7422V90.918H30.1328V80.5273Z" fill="#E9E9E9"/>
<path d="M50.9141 80.5273H40.5234V90.918H50.9141V80.5273Z" fill="#E9E9E9"/>
<path d="M71.6953 80.5273H61.3047V90.918H71.6953V80.5273Z" fill="#E9E9E9"/>
<path d="M92.4766 80.5273H82.0859V90.918H92.4766V80.5273Z" fill="#E9E9E9"/>
<path d="M30.1328 101.309H19.7422V111.699H30.1328V101.309Z" fill="#E9E9E9"/>
<path d="M50.9141 101.309H40.5234V111.699H50.9141V101.309Z" fill="#E9E9E9"/>
<path d="M71.6953 101.309H61.3047V111.699H71.6953V101.309Z" fill="#E9E9E9"/>
<path d="M92.4766 101.309H82.0859V111.699H92.4766V101.309Z" fill="#E9E9E9"/>
<path d="M113.258 80.5273H102.867V90.918H113.258V80.5273Z" fill="#E9E9E9"/>
</svg>
