<svg width="10" height="28" viewBox="0 0 10 28" fill="none" xmlns="http://www.w3.org/2000/svg">
<path d="M7.416 20.6462L9 20.6462L9 26.9942L7.74 26.9942L4.68 23.7542C4.352 23.4102 4.072 23.1782 3.84 23.0582C3.6 22.9382 3.364 22.8782 3.132 22.8782C2.796 22.8782 2.54 22.9942 2.364 23.2262C2.18 23.4502 2.088 23.7822 2.088 24.2222C2.088 24.5902 2.16 24.9222 2.304 25.2182C2.44 25.5142 2.648 25.7622 2.928 25.9622L2.016 27.3782C1.528 27.0502 1.148 26.5982 0.875999 26.0222C0.595999 25.4462 0.456 24.7862 0.456 24.0422C0.456 23.4182 0.559999 22.8742 0.767999 22.4102C0.967999 21.9382 1.256 21.5742 1.632 21.3182C2 21.0542 2.436 20.9222 2.94 20.9222C3.396 20.9222 3.824 21.0182 4.224 21.2102C4.624 21.4022 5.08 21.7742 5.592 22.3262L7.416 24.2582L7.416 20.6462ZM9.144 16.2676C9.144 16.9636 8.972 17.5836 8.628 18.1276C8.284 18.6716 7.788 19.0996 7.14 19.4116C6.484 19.7156 5.704 19.8676 4.8 19.8676C3.896 19.8676 3.12 19.7156 2.472 19.4116C1.816 19.0996 1.316 18.6716 0.971999 18.1276C0.627999 17.5836 0.455999 16.9636 0.455999 16.2676C0.455999 15.5716 0.627999 14.9516 0.971999 14.4076C1.316 13.8636 1.816 13.4396 2.472 13.1356C3.12 12.8236 3.896 12.6676 4.8 12.6676C5.704 12.6676 6.484 12.8236 7.14 13.1356C7.788 13.4396 8.284 13.8636 8.628 14.4076C8.972 14.9516 9.144 15.5716 9.144 16.2676ZM7.5 16.2676C7.5 15.7556 7.28 15.3556 6.84 15.0676C6.4 14.7716 5.72 14.6236 4.8 14.6236C3.88 14.6236 3.2 14.7716 2.76 15.0676C2.32 15.3556 2.1 15.7556 2.1 16.2676C2.1 16.7716 2.32 17.1716 2.76 17.4676C3.2 17.7556 3.88 17.8996 4.8 17.8996C5.72 17.8996 6.4 17.7556 6.84 17.4676C7.28 17.1716 7.5 16.7716 7.5 16.2676ZM0.599999 8.55334L9 8.55334L9 10.4973L2.16 10.4973L2.16 12.1773L0.599999 12.1773L0.599999 8.55334ZM4.584 1.34612C4.792 0.930119 5.064 0.614119 5.4 0.39812C5.736 0.17412 6.124 0.0621198 6.564 0.0621198C7.084 0.0621198 7.54 0.21012 7.932 0.50612C8.316 0.80212 8.616 1.21812 8.832 1.75412C9.04 2.29012 9.144 2.91012 9.144 3.61412C9.144 4.31812 9.04 4.93812 8.832 5.47412C8.616 6.00212 8.316 6.41412 7.932 6.71012C7.54 6.99812 7.084 7.14212 6.564 7.14212C6.124 7.14212 5.736 7.03412 5.4 6.81812C5.064 6.59412 4.792 6.27812 4.584 5.87012C4.392 6.18212 4.152 6.42212 3.864 6.59012C3.568 6.75812 3.232 6.84212 2.856 6.84212C2.368 6.84212 1.944 6.70612 1.584 6.43412C1.224 6.16212 0.947999 5.78212 0.755999 5.29412C0.555999 4.80612 0.455999 4.24612 0.455999 3.61412C0.455999 2.97412 0.555999 2.41012 0.755999 1.92212C0.947999 1.42612 1.224 1.04212 1.584 0.77012C1.944 0.49812 2.368 0.36212 2.856 0.36212C3.232 0.36212 3.568 0.44612 3.864 0.614119C4.152 0.78212 4.392 1.02612 4.584 1.34612ZM1.884 3.61412C1.884 4.00612 1.98 4.32212 2.172 4.56212C2.356 4.79412 2.612 4.91012 2.94 4.91012C3.26 4.91012 3.512 4.79412 3.696 4.56212C3.88 4.33012 3.972 4.01412 3.972 3.61412C3.972 3.21412 3.88 2.89412 3.696 2.65412C3.512 2.41412 3.26 2.29412 2.94 2.29412C2.612 2.29412 2.356 2.41412 2.172 2.65412C1.98 2.89412 1.884 3.21412 1.884 3.61412ZM7.716 3.61412C7.716 3.12612 7.608 2.74212 7.392 2.46212C7.168 2.17412 6.872 2.03012 6.504 2.03012C6.136 2.03012 5.844 2.17412 5.628 2.46212C5.412 2.74212 5.304 3.12612 5.304 3.61412C5.304 4.09412 5.412 4.47412 5.628 4.75412C5.844 5.03412 6.136 5.17412 6.504 5.17412C6.88 5.17412 7.176 5.03412 7.392 4.75412C7.608 4.47412 7.716 4.09412 7.716 3.61412Z" fill="black"/>
</svg>
