<svg width="10" height="25" viewBox="0 0 10 25" fill="none" xmlns="http://www.w3.org/2000/svg">
<path d="M7.416 17.5059L9 17.5059L9 23.8539L7.74 23.8539L4.68 20.6139C4.352 20.2699 4.072 20.0379 3.84 19.9179C3.6 19.7979 3.364 19.7379 3.132 19.7379C2.796 19.7379 2.54 19.8539 2.364 20.0859C2.18 20.3099 2.088 20.6419 2.088 21.0819C2.088 21.4499 2.16 21.7819 2.304 22.0779C2.44 22.3739 2.648 22.6219 2.928 22.8219L2.016 24.2379C1.528 23.9099 1.148 23.4579 0.875999 22.8819C0.596 22.3059 0.456 21.6459 0.456 20.9019C0.456 20.2779 0.559999 19.7339 0.767999 19.2699C0.967999 18.7979 1.256 18.4339 1.632 18.1779C2 17.9139 2.436 17.7819 2.94 17.7819C3.396 17.7819 3.824 17.8779 4.224 18.0699C4.624 18.2619 5.08 18.6339 5.592 19.1859L7.416 21.1179L7.416 17.5059ZM9.144 13.1272C9.144 13.8232 8.972 14.4432 8.628 14.9872C8.284 15.5312 7.788 15.9592 7.14 16.2712C6.484 16.5752 5.704 16.7272 4.8 16.7272C3.896 16.7272 3.12 16.5752 2.472 16.2712C1.816 15.9592 1.316 15.5312 0.971999 14.9872C0.627999 14.4432 0.455999 13.8232 0.455999 13.1272C0.455999 12.4312 0.627999 11.8112 0.971999 11.2672C1.316 10.7232 1.816 10.2992 2.472 9.99519C3.12 9.68319 3.896 9.52719 4.8 9.52719C5.704 9.52719 6.484 9.68319 7.14 9.99519C7.788 10.2992 8.284 10.7232 8.628 11.2672C8.972 11.8112 9.144 12.4312 9.144 13.1272ZM7.5 13.1272C7.5 12.6152 7.28 12.2152 6.84 11.9272C6.4 11.6312 5.72 11.4832 4.8 11.4832C3.88 11.4832 3.2 11.6312 2.76 11.9272C2.32 12.2152 2.1 12.6152 2.1 13.1272C2.1 13.6312 2.32 14.0312 2.76 14.3272C3.2 14.6152 3.88 14.7592 4.8 14.7592C5.72 14.7592 6.4 14.6152 6.84 14.3272C7.28 14.0312 7.5 13.6312 7.5 13.1272ZM0.599999 5.41297L9 5.41297L9 7.35697L2.16 7.35697L2.16 9.03697L0.599999 9.03697L0.599999 5.41297ZM0.599999 0.713754L9 0.713754L9 2.65775L2.16 2.65775L2.16 4.33775L0.599999 4.33775L0.599999 0.713754Z" fill="black"/>
</svg>
