<svg width="10" height="28" viewBox="0 0 10 28" fill="none" xmlns="http://www.w3.org/2000/svg">
<path d="M7.416 20.9706L9 20.9706L9 27.3186L7.74 27.3186L4.68 24.0786C4.352 23.7346 4.072 23.5026 3.84 23.3826C3.6 23.2626 3.364 23.2026 3.132 23.2026C2.796 23.2026 2.54 23.3186 2.364 23.5506C2.18 23.7746 2.088 24.1066 2.088 24.5466C2.088 24.9146 2.16 25.2466 2.304 25.5426C2.44 25.8386 2.648 26.0866 2.928 26.2866L2.016 27.7026C1.528 27.3746 1.148 26.9226 0.875999 26.3466C0.596 25.7706 0.456 25.1106 0.456 24.3666C0.456 23.7426 0.559999 23.1986 0.767999 22.7346C0.967999 22.2626 1.256 21.8986 1.632 21.6426C2 21.3786 2.436 21.2466 2.94 21.2466C3.396 21.2466 3.824 21.3426 4.224 21.5346C4.624 21.7266 5.08 22.0986 5.592 22.6506L7.416 24.5826L7.416 20.9706ZM9.144 16.5919C9.144 17.2879 8.972 17.9079 8.628 18.4519C8.284 18.9959 7.788 19.4239 7.14 19.7359C6.484 20.0399 5.704 20.1919 4.8 20.1919C3.896 20.1919 3.12 20.0399 2.472 19.7359C1.816 19.4239 1.316 18.9959 0.971999 18.4519C0.627999 17.9079 0.455999 17.2879 0.455999 16.5919C0.455999 15.8959 0.627999 15.2759 0.971999 14.7319C1.316 14.1879 1.816 13.7639 2.472 13.4599C3.12 13.1479 3.896 12.9919 4.8 12.9919C5.704 12.9919 6.484 13.1479 7.14 13.4599C7.788 13.7639 8.284 14.1879 8.628 14.7319C8.972 15.2759 9.144 15.8959 9.144 16.5919ZM7.5 16.5919C7.5 16.0799 7.28 15.6799 6.84 15.3919C6.4 15.0959 5.72 14.9479 4.8 14.9479C3.88 14.9479 3.2 15.0959 2.76 15.3919C2.32 15.6799 2.1 16.0799 2.1 16.5919C2.1 17.0959 2.32 17.4959 2.76 17.7919C3.2 18.0799 3.88 18.2239 4.8 18.2239C5.72 18.2239 6.4 18.0799 6.84 17.7919C7.28 17.4959 7.5 17.0959 7.5 16.5919ZM0.599999 8.87766L9 8.87766L9 10.8217L2.16 10.8217L2.16 12.5017L0.599999 12.5017L0.599999 8.87766ZM0.599999 0.84244L1.86 0.84244L9 3.96244L9 6.07444L2.184 3.06244L2.184 5.84644L3.552 5.84644L3.552 7.57444L0.599999 7.57444L0.599999 0.84244Z" fill="black"/>
</svg>
