<svg width="10" height="27" viewBox="0 0 10 27" fill="none" xmlns="http://www.w3.org/2000/svg">
<path d="M7.416 19.8682L9 19.8682L9 26.2162L7.74 26.2162L4.68 22.9762C4.352 22.6322 4.072 22.4002 3.84 22.2802C3.6 22.1602 3.364 22.1002 3.132 22.1002C2.796 22.1002 2.54 22.2162 2.364 22.4482C2.18 22.6722 2.088 23.0042 2.088 23.4442C2.088 23.8122 2.16 24.1442 2.304 24.4402C2.44 24.7362 2.648 24.9842 2.928 25.1842L2.016 26.6002C1.528 26.2722 1.148 25.8202 0.875999 25.2442C0.596 24.6682 0.456 24.0082 0.456 23.2642C0.456 22.6402 0.559999 22.0962 0.767999 21.6322C0.967999 21.1602 1.256 20.7962 1.632 20.5402C2 20.2762 2.436 20.1442 2.94 20.1442C3.396 20.1442 3.824 20.2402 4.224 20.4322C4.624 20.6242 5.08 20.9962 5.592 21.5482L7.416 23.4802L7.416 19.8682ZM9.144 15.4896C9.144 16.1856 8.972 16.8056 8.628 17.3496C8.284 17.8936 7.788 18.3216 7.14 18.6336C6.484 18.9376 5.704 19.0896 4.8 19.0896C3.896 19.0896 3.12 18.9376 2.472 18.6336C1.816 18.3216 1.316 17.8936 0.971999 17.3496C0.627999 16.8056 0.455999 16.1856 0.455999 15.4896C0.455999 14.7936 0.627999 14.1736 0.971999 13.6296C1.316 13.0856 1.816 12.6616 2.472 12.3576C3.12 12.0456 3.896 11.8896 4.8 11.8896C5.704 11.8896 6.484 12.0456 7.14 12.3576C7.788 12.6616 8.284 13.0856 8.628 13.6296C8.972 14.1736 9.144 14.7936 9.144 15.4896ZM7.5 15.4896C7.5 14.9776 7.28 14.5776 6.84 14.2896C6.4 13.9936 5.72 13.8456 4.8 13.8456C3.88 13.8456 3.2 13.9936 2.76 14.2896C2.32 14.5776 2.1 14.9776 2.1 15.4896C2.1 15.9936 2.32 16.3936 2.76 16.6896C3.2 16.9776 3.88 17.1216 4.8 17.1216C5.72 17.1216 6.4 16.9776 6.84 16.6896C7.28 16.3936 7.5 15.9936 7.5 15.4896ZM0.599999 7.77534L9 7.77534L9 9.71934L2.16 9.71934L2.16 11.3993L0.599999 11.3993L0.599999 7.77534ZM7.416 0.0401232L9 0.0401231L9 6.38812L7.74 6.38812L4.68 3.14812C4.352 2.80412 4.072 2.57212 3.84 2.45212C3.6 2.33212 3.364 2.27212 3.132 2.27212C2.796 2.27212 2.54 2.38812 2.364 2.62012C2.18 2.84412 2.088 3.17612 2.088 3.61612C2.088 3.98412 2.16 4.31612 2.304 4.61212C2.44 4.90812 2.648 5.15612 2.928 5.35612L2.016 6.77212C1.528 6.44412 1.148 5.99212 0.875999 5.41612C0.595999 4.84012 0.455999 4.18012 0.455999 3.43612C0.455999 2.81212 0.559999 2.26812 0.767999 1.80412C0.967999 1.33212 1.256 0.968124 1.632 0.712124C2 0.448124 2.436 0.316124 2.94 0.316124C3.396 0.316124 3.824 0.412123 4.224 0.604123C4.624 0.796123 5.08 1.16812 5.592 1.72012L7.416 3.65212L7.416 0.0401232Z" fill="black"/>
</svg>
