<svg width="10" height="29" viewBox="0 0 10 29" fill="none" xmlns="http://www.w3.org/2000/svg">
<path d="M7.416 22.0758L9 22.0758L9 28.4238L7.74 28.4238L4.68 25.1838C4.352 24.8398 4.072 24.6078 3.84 24.4878C3.6 24.3678 3.364 24.3078 3.132 24.3078C2.796 24.3078 2.54 24.4238 2.364 24.6558C2.18 24.8798 2.088 25.2118 2.088 25.6518C2.088 26.0198 2.16 26.3518 2.304 26.6478C2.44 26.9438 2.648 27.1918 2.928 27.3918L2.016 28.8078C1.528 28.4798 1.148 28.0278 0.875999 27.4518C0.596 26.8758 0.456 26.2158 0.456 25.4718C0.456 24.8478 0.559999 24.3038 0.767999 23.8398C0.967999 23.3678 1.256 23.0038 1.632 22.7478C2 22.4838 2.436 22.3518 2.94 22.3518C3.396 22.3518 3.824 22.4478 4.224 22.6398C4.624 22.8318 5.08 23.2038 5.592 23.7558L7.416 25.6878L7.416 22.0758ZM9.144 17.6971C9.144 18.3931 8.972 19.0131 8.628 19.5571C8.284 20.1011 7.788 20.5291 7.14 20.8411C6.484 21.1451 5.704 21.2971 4.8 21.2971C3.896 21.2971 3.12 21.1451 2.472 20.8411C1.816 20.5291 1.316 20.1011 0.971999 19.5571C0.627999 19.0131 0.455999 18.3931 0.455999 17.6971C0.455999 17.0011 0.627999 16.3811 0.971999 15.8371C1.316 15.2931 1.816 14.8691 2.472 14.5651C3.12 14.2531 3.896 14.0971 4.8 14.0971C5.704 14.0971 6.484 14.2531 7.14 14.5651C7.788 14.8691 8.284 15.2931 8.628 15.8371C8.972 16.3811 9.144 17.0011 9.144 17.6971ZM7.5 17.6971C7.5 17.1851 7.28 16.7851 6.84 16.4971C6.4 16.2011 5.72 16.0531 4.8 16.0531C3.88 16.0531 3.2 16.2011 2.76 16.4971C2.32 16.7851 2.1 17.1851 2.1 17.6971C2.1 18.2011 2.32 18.6011 2.76 18.8971C3.2 19.1851 3.88 19.3291 4.8 19.3291C5.72 19.3291 6.4 19.1851 6.84 18.8971C7.28 18.6011 7.5 18.2011 7.5 17.6971ZM0.599999 9.98287L9 9.98287L9 11.9269L2.16 11.9269L2.16 13.6069L0.599999 13.6069L0.599999 9.98287ZM7.236 0.831655L7.236 2.19965L9 2.19965L9 4.09565L7.236 4.09565L7.236 8.61965L5.928 8.61965L0.599999 4.65965L0.599999 2.61965L5.652 6.29165L5.652 4.03565L4.08 4.03565L4.08 2.19965L5.652 2.19965L5.652 0.831655L7.236 0.831655Z" fill="black"/>
</svg>
