<svg width="10" height="28" viewBox="0 0 10 28" fill="none" xmlns="http://www.w3.org/2000/svg">
<path d="M7.416 21.1336L9 21.1336L9 27.4816L7.74 27.4816L4.68 24.2416C4.352 23.8976 4.072 23.6656 3.84 23.5456C3.6 23.4256 3.364 23.3656 3.132 23.3656C2.796 23.3656 2.54 23.4816 2.364 23.7136C2.18 23.9376 2.088 24.2696 2.088 24.7096C2.088 25.0776 2.16 25.4096 2.304 25.7056C2.44 26.0016 2.648 26.2496 2.928 26.4496L2.016 27.8656C1.528 27.5376 1.148 27.0856 0.875999 26.5096C0.596 25.9336 0.456 25.2736 0.456 24.5296C0.456 23.9056 0.559999 23.3616 0.767999 22.8976C0.967999 22.4256 1.256 22.0616 1.632 21.8056C2 21.5416 2.436 21.4096 2.94 21.4096C3.396 21.4096 3.824 21.5056 4.224 21.6976C4.624 21.8896 5.08 22.2616 5.592 22.8136L7.416 24.7456L7.416 21.1336ZM9.144 16.7549C9.144 17.4509 8.972 18.0709 8.628 18.6149C8.284 19.1589 7.788 19.5869 7.14 19.8989C6.484 20.2029 5.704 20.3549 4.8 20.3549C3.896 20.3549 3.12 20.2029 2.472 19.8989C1.816 19.5869 1.316 19.1589 0.971999 18.6149C0.627999 18.0709 0.455999 17.4509 0.455999 16.7549C0.455999 16.0589 0.627999 15.4389 0.971999 14.8949C1.316 14.3509 1.816 13.9269 2.472 13.6229C3.12 13.3109 3.896 13.1549 4.8 13.1549C5.704 13.1549 6.484 13.3109 7.14 13.6229C7.788 13.9269 8.284 14.3509 8.628 14.8949C8.972 15.4389 9.144 16.0589 9.144 16.7549ZM7.5 16.7549C7.5 16.2429 7.28 15.8429 6.84 15.5549C6.4 15.2589 5.72 15.1109 4.8 15.1109C3.88 15.1109 3.2 15.2589 2.76 15.5549C2.32 15.8429 2.1 16.2429 2.1 16.7549C2.1 17.2589 2.32 17.6589 2.76 17.9549C3.2 18.2429 3.88 18.3869 4.8 18.3869C5.72 18.3869 6.4 18.2429 6.84 17.9549C7.28 17.6589 7.5 17.2589 7.5 16.7549ZM0.599999 9.04071L9 9.04071L9 10.9847L2.16 10.9847L2.16 12.6647L0.599999 12.6647L0.599999 9.04071ZM3.732 3.5375C3.732 3.0015 3.84 2.5135 4.056 2.07349C4.272 1.63349 4.58 1.28549 4.98 1.02949C5.372 0.773495 5.828 0.645495 6.348 0.645495C6.908 0.645495 7.4 0.785495 7.824 1.06549C8.248 1.34549 8.576 1.72949 8.808 2.21749C9.032 2.69749 9.144 3.23349 9.144 3.82549C9.144 5.00149 8.784 5.92149 8.064 6.58549C7.344 7.24949 6.316 7.5815 4.98 7.5815C4.028 7.5815 3.212 7.4015 2.532 7.0415C1.852 6.6815 1.336 6.1815 0.983999 5.5415C0.631999 4.8935 0.455999 4.1455 0.455999 3.2975C0.455999 2.8495 0.507999 2.4215 0.611998 2.0135C0.707999 1.5975 0.847999 1.2455 1.032 0.957495L2.46 1.6775C2.18 2.0935 2.04 2.6175 2.04 3.2495C2.04 3.9615 2.248 4.5255 2.664 4.9415C3.08 5.3575 3.684 5.5815 4.476 5.6135C3.98 5.1175 3.732 4.4255 3.732 3.5375ZM7.692 3.93349C7.692 3.51749 7.58 3.18149 7.356 2.92549C7.132 2.66149 6.828 2.52949 6.444 2.52949C6.06 2.5295 5.756 2.66149 5.532 2.92549C5.3 3.1815 5.184 3.52549 5.184 3.95749C5.184 4.38149 5.304 4.72949 5.544 5.0015C5.776 5.27349 6.076 5.40949 6.444 5.40949C6.812 5.40949 7.112 5.27749 7.344 5.01349C7.576 4.74949 7.692 4.38949 7.692 3.93349Z" fill="black"/>
</svg>
